{
.appVersion = "1352";
DisplayStrings = (
An,
abcdefghijklmnopqrstuvwxyz,
ABCDEFGHIJKLMNOPQRSTUVWXYZ
);
copyright = "Copyright 2014 The Alumni Sans Collegiate Project Authors (https://github.com/googlefonts/allumini-sans-collegiate)";
customParameters = (
{
name = licenseURL;
value = "https://scripts.sil.org/OFL";
},
{
name = license;
value = "This Font Software is licensed under the SIL Open Font License, Version 1.1. This license is available with a FAQ at: https://scripts.sil.org/OFL";
},
{
name = vendorID;
value = GOOG;
},
{
name = fsType;
value = (
);
},
{
name = glyphOrder;
value = (
.notdef,
.null,
CR,
space,
nbspace
);
},
{
name = "Use Typo Metrics";
value = 1;
}
);
date = "2021-11-22 03:34:52 +0000";
designer = "Robert E. Leuschke";
designerURL = www.typesetit.com;
familyName = "Alumni Sans Collegiate Italic";
featurePrefixes = (
{
automatic = 1;
code = "languagesystem DFLT dflt;\012\012languagesystem latn dflt;\012languagesystem latn AZE;\012languagesystem latn CRT;\012languagesystem latn KAZ;\012languagesystem latn TAT;\012languagesystem latn TRK;\012languagesystem latn ROM;\012languagesystem latn MOL;\012languagesystem latn CAT;\012";
name = Languagesystems;
}
);
features = (
{
automatic = 1;
code = "feature locl;\012feature subs;\012feature sinf;\012feature sups;\012feature numr;\012feature dnom;\012feature frac;\012feature ordn;\012";
name = aalt;
},
{
automatic = 1;

glyphs = (
{
glyphname = .notdef;
lastChange = "2021-11-22 23:52:12 +0000";
layers = (
{
layerId = "6544E2DB-1912-401E-9B5B-A29F161A5995";
paths = (
{
closed = 1;
nodes = (
"477 0 LINE",
"486 8 LINE",
"486 621 LINE",
"477 630 LINE",
"56 630 LINE",
"48 620 LINE",
"48 9 LINE",
"56 0 LINE"
);
},
{
closed = 1;
nodes = (
"152 150 LINE",
"242 316 LINE",
"152 479 LINE",
"171 514 LINE",
"261 350 LINE",
"352 514 LINE",
"371 479 LINE",
"281 314 LINE",
"371 150 LINE",
"352 116 LINE",
"261 279 LINE",
"171 116 LINE"
);
},
{
closed = 1;
nodes = (
"65 613 LINE",
"469 613 LINE",
"469 16 LINE",
"65 16 LINE"
);
},
{
closed = 1;
nodes = (
"435 49 LINE",
"435 577 LINE",
"100 577 LINE",
"100 49 LINE"
);
}
);
userData = {
assembly = "SVTCA[0]	/* SetFreedomAndProjectionVectorToAxis */\012PUSHW[ ]	/* 1 value pushed */\0122 \012MDAP[1]	/* MoveDirectAbsPt */\012PUSHW[ ]	/* 1 value pushed */\0120 \012RCVT[ ]	/* ReadCVT */\012IF[ ]	/* If */\012PUSHW[ ]	/* 1 value pushed */\0126 \012MDAP[1]	/* MoveDirectAbsPt */\012ELSE[ ]	/* Else */\012PUSHW[ ]	/* 2 values pushed */\0126 7 \012MIAP[0]	/* MoveIndirectAbsPt */\012EIF[ ]	/* EndIf */\012PUSHW[ ]	/* 3 values pushed */\01216 6 2 \012SRP1[ ]	/* SetRefPoint1 */\012SRP2[ ]	/* SetRefPoint2 */\012IP[ ]	/* InterpolatePts */\012PUSHW[ ]	/* 3 values pushed */\01217 6 2 \012SRP1[ ]	/* SetRefPoint1 */\012SRP2[ ]	/* SetRefPoint2 */\012IP[ ]	/* InterpolatePts */\012PUSHW[ ]	/* 3 values pushed */\01218 6 2 \012SRP1[ ]	/* SetRefPoint1 */\012SRP2[ ]	/* SetRefPoint2 */\012IP[ ]	/* InterpolatePts */\012PUSHW[ ]	/* 3 values pushed */\01222 6 2 \012SRP1[ ]	/* SetRefPoint1 */\012SRP2[ ]	/* SetRefPoint2 */\012IP[ ]	/* InterpolatePts */\012PUSHW[ ]	/* 3 values pushed */\01223 6 2 \012SRP1[ ]	/* SetRefPoint1 */\012SRP2[ ]	/* SetRefPoint2 */\012IP[ ]	/* InterpolatePts */\012PUSHW[ ]	/* 3 values pushed */\01224 6 2 \012SRP1[ ]	/* SetRefPoint1 */\012SRP2[ ]	/* SetRefPoint2 */\012IP[ ]	/* InterpolatePts */\012IUP[0]	/* InterpolateUntPts */\012IUP[1]	/* InterpolateUntPts */";
};
width = 534;
}
);
note = .notdef;
},
{
glyphname = A;
lastChange = "2021-11-22 23:52:12 +0000";
layers = (
{
layerId = "6544E2DB-1912-401E-9B5B-A29F161A5995";
paths = (
{
closed = 1;
nodes = (
"386 0 LINE",
"389 591 LINE",
"139 591 LINE",
"-26 0 LINE"
);
},
{
closed = 1;
nodes = (
"209 184 LINE",
"212.5 233 LINE",
"213.443 236.771 OFFCURVE",
"215.219 271.414 OFFCURVE",
"217 291 CURVE",
"195 184 LINE"
);
},
{
closed = 1;
nodes = (
"151 573 LINE",
"371 573 LINE",
"368 18 LINE",
"194 18 LINE",
"197 96 LINE",
"182 96 LINE",
"165 18 LINE",
"-4 18 LINE"
);
},
{
closed = 1;
nodes = (
"158 27 LINE",
"174 105 LINE",
"206 105 LINE",
"202 27 LINE",
"358 27 LINE",
"362 564 LINE",
"157 564 LINE",
"7 27 LINE"
);
},
{
closed = 1;
nodes = (
"240 450 LINE",
"216 175 LINE",
"185 175 LINE"
);
}
);
userData = {
assembly = "SVTCA[0]	/* SetFreedomAndProjectionVectorToAxis */\012PUSHW[ ]	/* 4 values pushed */\0129 4 2 4 \012CALL[ ]	/* CallFunction */\012PUSHW[ ]	/* 1 value pushed */\0129 \012SRP0[ ]	/* SetRefPoint0 */\012PUSHW[ ]	/* 2 values pushed */\0123 2 \012MIRP[10100]	/* MoveIndirectRelPt */\012PUSHW[ ]	/* 1 value pushed */\0122 \012SRP0[ ]	/* SetRefPoint0 */\012PUSHW[ ]	/* 1 value pushed */\0125 \012MDRP[10000]	/* MoveDirectRelPt */\012IUP[0]	/* InterpolateUntPts */\012IUP[1]	/* InterpolateUntPts */";
};
width = 427;
}
);
note = A;
rightKerningGroup = parenright;
unicode = 0041;
},
{
color = 11;
glyphname = Abreve;
lastChange = "2021-11-22 23:53:49 +0000";
layers = (
{
components = (
{
name = A;
}
);
layerId = "6544E2DB-1912-401E-9B5B-A29F161A5995";
paths = (
{
closed = 1;
nodes = (
"264 640 OFFCURVE",
"305 686 OFFCURVE",
"310 754 CURVE",
"209 754 LINE",
"207 743 OFFCURVE",
"205 735 OFFCURVE",
"201 730 CURVE SMOOTH",
"197 725 OFFCURVE",
"193 722 OFFCURVE",
"188 722 CURVE SMOOTH",
"179 722 OFFCURVE",
"170 731 OFFCURVE",
"172 754 CURVE",
"71 754 LINE",
"67 696 OFFCURVE",
"90 640 OFFCURVE",
"181 640 CURVE SMOOTH"
);
},
{
closed = 1;
nodes = (
"105 653 OFFCURVE",
"83 696 OFFCURVE",
"86 741 CURVE",
"155 741 LINE",
"154 718 OFFCURVE",
"170 709 OFFCURVE",
"187 709 CURVE SMOOTH",
"204 709 OFFCURVE",
"221 718 OFFCURVE",
"223 741 CURVE",
"293 741 LINE",
"290 692 OFFCURVE",
"258 653 OFFCURVE",
"182 653 CURVE SMOOTH"
);
},
{
closed = 1;
nodes = (
"253 660 OFFCURVE",
"282 693 OFFCURVE",
"285 734 CURVE",
"231 734 LINE",
"225 691 OFFCURVE",
"144 691 OFFCURVE",
"147 734 CURVE",
"94 734 LINE",
"91 695 OFFCURVE",
"113 660 OFFCURVE",
"182 660 CURVE SMOOTH"
);
}
);
width = 427;
}
);
note = Abreve;
unicode = 0102;
},
{
color = 11;
glyphname = Abreveacute;
lastChange = "2021-11-22 23:52:12 +0000";
layers = (
{
components = (
{
name = A;
}
);
layerId = "6544E2DB-1912-401E-9B5B-A29F161A5995";
paths = (
{
closed = 1;
nodes = (
"264 640 OFFCURVE",
"305 686 OFFCURVE",
"310 754 CURVE",
"209 754 LINE",
"207 743 OFFCURVE",
"205 735 OFFCURVE",
"201 730 CURVE SMOOTH",
"197 725 OFFCURVE",
"193 722 OFFCURVE",
"188 722 CURVE SMOOTH",
"179 722 OFFCURVE",
"170 731 OFFCURVE",
"172 754 CURVE",
"71 754 LINE",
"67 696 OFFCURVE",
"90 640 OFFCURVE",
"181 640 CURVE SMOOTH"
);
},
{
closed = 1;
nodes = (
"105 653 OFFCURVE",
"83 696 OFFCURVE",
"86 741 CURVE",
"155 741 LINE",
"154 718 OFFCURVE",
"170 709 OFFCURVE",
"187 709 CURVE SMOOTH",
"204 709 OFFCURVE",
"221 718 OFFCURVE",
"223 741 CURVE",
"293 741 LINE",
"290 692 OFFCURVE",
"258 653 OFFCURVE",
"182 653 CURVE SMOOTH"
);
},
{
closed = 1;
nodes = (
"253 660 OFFCURVE",
"282 693 OFFCURVE",
"285 734 CURVE",
"231 734 LINE",
"225 691 OFFCURVE",
"144 691 OFFCURVE",
"147 734 CURVE",
"94 734 LINE",
"91 695 OFFCURVE",
"113 660 OFFCURVE",
"182 660 CURVE SMOOTH"
);
}
);
width = 427;
}
);
unicode = 1EAE;
},
{
color = 11;
glyphname = Abrevedotbelow;
lastChange = "2021-11-22 23:53:49 +0000";
layers = (
{
components = (
{
name = A;
},
{
name = dotbelowcomb;
}
);
layerId = "6544E2DB-1912-401E-9B5B-A29F161A5995";
paths = (
{
closed = 1;
nodes = (
"264 640 OFFCURVE",
"305 686 OFFCURVE",
"310 754 CURVE",
"209 754 LINE",
"207 743 OFFCURVE",
"205 735 OFFCURVE",
"201 730 CURVE SMOOTH",
"197 725 OFFCURVE",
"193 722 OFFCURVE",
"188 722 CURVE SMOOTH",
"179 722 OFFCURVE",
"170 731 OFFCURVE",
"172 754 CURVE",
"71 754 LINE",
"67 696 OFFCURVE",
"90 640 OFFCURVE",
"181 640 CURVE SMOOTH"
);
},
{
closed = 1;
nodes = (
"105 653 OFFCURVE",
"83 696 OFFCURVE",
"86 741 CURVE",
"155 741 LINE",
"154 718 OFFCURVE",
"170 709 OFFCURVE",
"187 709 CURVE SMOOTH",
"204 709 OFFCURVE",
"221 718 OFFCURVE",
"223 741 CURVE",
"293 741 LINE",
"290 692 OFFCURVE",
"258 653 OFFCURVE",
"182 653 CURVE SMOOTH"
);
},
{
closed = 1;
nodes = (
"253 660 OFFCURVE",
"282 693 OFFCURVE",
"285 734 CURVE",
"231 734 LINE",
"225 691 OFFCURVE",
"144 691 OFFCURVE",
"147 734 CURVE",
"94 734 LINE",
"91 695 OFFCURVE",
"113 660 OFFCURVE",
"182 660 CURVE SMOOTH"
);
}
);
width = 427;
}
);
unicode = 1EB6;
},
{
color = 11;
glyphname = Abrevegrave;
lastChange = "2021-11-22 23:52:12 +0000";
layers = (
{
components = (
{
name = A;
}
);
layerId = "6544E2DB-1912-401E-9B5B-A29F161A5995";
paths = (
{
closed = 1;
nodes = (
"359 640 OFFCURVE",
"400 686 OFFCURVE",
"405 754 CURVE",
"304 754 LINE",
"302 743 OFFCURVE",
"300 735 OFFCURVE",
"296 730 CURVE SMOOTH",
"292 725 OFFCURVE",
"288 722 OFFCURVE",
"283 722 CURVE SMOOTH",
"274 722 OFFCURVE",
"265 731 OFFCURVE",
"267 754 CURVE",
"166 754 LINE",
"162 696 OFFCURVE",
"185 640 OFFCURVE",
"276 640 CURVE SMOOTH"
);
},
{
closed = 1;
nodes = (
"200 653 OFFCURVE",
"178 696 OFFCURVE",
"181 741 CURVE",
"250 741 LINE",
"250 718 OFFCURVE",
"265 709 OFFCURVE",
"282 709 CURVE SMOOTH",
"299 709 OFFCURVE",
"317 718 OFFCURVE",
"318 741 CURVE",
"388 741 LINE",
"385 692 OFFCURVE",
"353 653 OFFCURVE",
"277 653 CURVE SMOOTH"
);
},
{
closed = 1;
nodes = (
"348 660 OFFCURVE",
"377 693 OFFCURVE",
"380 734 CURVE",
"326 734 LINE",
"320 691 OFFCURVE",
"239 691 OFFCURVE",
"242 734 CURVE",
"189 734 LINE",
"186 695 OFFCURVE",
"208 660 OFFCURVE",
"277 660 CURVE SMOOTH"
);
},
{
closed = 1;
nodes = (
"371 762 LINE",
"264 866 LINE",
"87 866 LINE",
"233 762 LINE"
);
},
{
closed = 1;
nodes = (
"129 853 LINE",
"256 853 LINE",
"336 774 LINE",
"239 774 LINE"
);
},
{
closed = 1;
nodes = (
"320 781 LINE",
"253 847 LINE",
"151 847 LINE",
"243 781 LINE"
);
}
);
width = 427;
}
);
unicode = 1EB0;
},
{
color = 11;
glyphname = Ainvertedbreve;
lastChange = "2021-11-22 23:53:49 +0000";
layers = (
{
components = (
{
name = A;
}
);
layerId = "6544E2DB-1912-401E-9B5B-A29F161A5995";
paths = (
{
closed = 1;
nodes = (
"91 754 OFFCURVE",
"60 698 OFFCURVE",
"56 640 CURVE",
"157 640 LINE",
"159 663 OFFCURVE",
"168 672 OFFCURVE",
"177 672 CURVE SMOOTH",
"182 672 OFFCURVE",
"186 669 OFFCURVE",
"190 664 CURVE",
"192 659 OFFCURVE",
"194 651 OFFCURVE",
"194 640 CURVE",
"295 640 LINE",
"300 708 OFFCURVE",
"265 754 OFFCURVE",
"182 754 CURVE SMOOTH"
);
},
{
closed = 1;
nodes = (
"257 741 OFFCURVE",
"283 702 OFFCURVE",
"280 653 CURVE",
"210 653 LINE",
"212 676 OFFCURVE",
"195 685 OFFCURVE",
"178 685 CURVE SMOOTH",
"161 685 OFFCURVE",
"145 676 OFFCURVE",
"142 653 CURVE",
"73 653 LINE",
"76 698 OFFCURVE",
"104 741 OFFCURVE",
"181 741 CURVE SMOOTH"
);
},
{
closed = 1;
nodes = (
"112 734 OFFCURVE",
"84 699 OFFCURVE",
"81 660 CURVE",
"134 660 LINE",
"137 703 OFFCURVE",
"218 703 OFFCURVE",
"218 660 CURVE",
"272 660 LINE",
"275 701 OFFCURVE",
"252 734 OFFCURVE",
"181 734 CURVE SMOOTH"
);
}
);
width = 427;
}
);
unicode = 0202;
},
{
glyphname = AE;
lastChange = "2021-11-22 23:52:12 +0000";
layers = (
{
layerId = "6544E2DB-1912-401E-9B5B-A29F161A5995";
paths = (
{
closed = 1;
nodes = (
"484 0 LINE",
"505 153 LINE",
"390 153 LINE",
"391 218 LINE",
"505 218 LINE",
"529 386 LINE",
"392 386 LINE",
"392 397.333 OFFCURVE",
"391.833 406.333 OFFCURVE",
"391.5 413 CURVE SMOOTH",
"391 436 LINE",
"545 436 LINE",
"567 591 LINE",
"136 591 LINE",
"-32 0 LINE"
);
},
{
closed = 1;
nodes = (
"209 184 LINE",
"219 302 LINE",
"195 184 LINE"
);
},
{
closed = 1;
nodes = (
"235 428 LINE",
"240 450 LINE",
"238 428 LINE",
"217 175 LINE",
"185 175 LINE"
);
},
{
closed = 1;
nodes = (
"148 573 LINE",
"546 573 LINE",
"529 454 LINE",
"372 454 LINE",
"372 438.667 OFFCURVE",
"372.333 424.333 OFFCURVE",
"373 411 CURVE SMOOTH",
"373.667 397.667 OFFCURVE",
"373.667 383.333 OFFCURVE",
"373 368 CURVE",
"508 368 LINE",
"490 236 LINE",
"373 236 LINE",
"372.333 218.667 OFFCURVE",
"372.333 202 OFFCURVE",
"373 186 CURVE SMOOTH",
"373.667 170 OFFCURVE",
"373.333 152.667 OFFCURVE",
"372 134 CURVE",
"484 134 LINE",
"468 18 LINE",
"194 18 LINE",
"197 96 LINE",
"182 96 LINE",
"165 18 LINE",
"-9 18 LINE"
);
},
{
closed = 1;
nodes = (
"158 27 LINE",
"174 105 LINE",
"207 105 LINE",
"203 27 LINE",
"460 27 LINE",
"474 125 LINE",
"363 125 LINE",
"364 245 LINE",
"482 245 LINE",
"498 359 LINE",
"364 359 LINE",
"365 463 LINE",
"522 463 LINE",
"536 564 LINE",
"155 564 LINE",
"3 27 LINE"
);
}
);
userData = {
assembly = "SVTCA[0]	/* SetFreedomAndProjectionVectorToAxis */\012PUSHW[ ]	/* 4 values pushed */\01227 3 14 4 \012CALL[ ]	/* CallFunction */\012PUSHW[ ]	/* 1 value pushed */\01214 \012SRP0[ ]	/* SetRefPoint0 */\012PUSHW[ ]	/* 1 value pushed */\0122 \012MDRP[10000]	/* MoveDirectRelPt */\012IUP[0]	/* InterpolateUntPts */\012IUP[1]	/* InterpolateUntPts */";
};
width = 543;
}
);
note = AE;
unicode = 00C6;
},
{
glyphname = B;
lastChange = "2021-11-22 23:52:12 +0000";
layers = (
{
layerId = "6544E2DB-1912-401E-9B5B-A29F161A5995";
paths = (
{
closed = 1;
nodes = (
"203 0 LINE SMOOTH",
"300.333 0 OFFCURVE",
"362.333 34.333 OFFCURVE",
"377 141 CURVE SMOOTH",
"387 211 LINE SMOOTH",
"395 263 OFFCURVE",
"385.333 299.333 OFFCURVE",
"358 320 CURVE",
"382 342.667 OFFCURVE",
"396.333 376.667 OFFCURVE",
"403 414 CURVE SMOOTH",
"411 472 LINE SMOOTH",
"422.214 544.893 OFFCURVE",
"383.706 591 OFFCURVE",
"294 591 CURVE SMOOTH",
"69 591 LINE",
"-14 0 LINE"
);
},
{
closed = 1;
nodes = (
"189 253 LINE",
"202 253 LINE SMOOTH",
"210 253 OFFCURVE",
"213.667 245.667 OFFCURVE",
"213 231 CURVE SMOOTH",
"212.333 216.333 OFFCURVE",
"210.333 198.333 OFFCURVE",
"207 177 CURVE SMOOTH",
"203.667 155.667 OFFCURVE",
"200 137.667 OFFCURVE",
"196 123 CURVE SMOOTH",
"192 108.333 OFFCURVE",
"187 101 OFFCURVE",
"181 101 CURVE SMOOTH",
"168 101 LINE"
);
},
{
closed = 1;
nodes = (
"182 110 LINE SMOOTH",
"184.667 110 OFFCURVE",
"187.333 116.5 OFFCURVE",
"190 129.5 CURVE SMOOTH",
"192.667 142.5 OFFCURVE",
"195.333 158.333 OFFCURVE",
"198 177 CURVE SMOOTH",
"201.333 195.667 OFFCURVE",
"203.5 211.5 OFFCURVE",
"204.5 224.5 CURVE SMOOTH",
"205.5 237.5 OFFCURVE",
"204.333 244 OFFCURVE",
"201 244 CURVE SMOOTH",
"197 244 LINE",
"178 110 LINE"
);
},
{
closed = 1;
nodes = (
"83 573 LINE",
"291 573 LINE SMOOTH",
"373.667 573 OFFCURVE",
"401 532 OFFCURVE",
"393 472 CURVE SMOOTH",
"385 414 LINE SMOOTH",
"378.333 371.333 OFFCURVE",
"360 335.667 OFFCURVE",
"324 317 CURVE",
"360 305 OFFCURVE",
"378.333 271 OFFCURVE",
"369 211 CURVE SMOOTH",
"359 141 LINE SMOOTH",
"345.83 48.812 OFFCURVE",
"294.481 18 OFFCURVE",
"205 18 CURVE SMOOTH",
"5 18 LINE"
);
},
{
closed = 1;
nodes = (
"206 27 LINE SMOOTH",
"286 27 OFFCURVE",
"339 54.333 OFFCURVE",
"351 141 CURVE SMOOTH",
"361 211 LINE SMOOTH",
"370.333 280.333 OFFCURVE",
"336.333 314 OFFCURVE",
"287 314 CURVE",
"287 316 LINE",
"343 322.667 OFFCURVE",
"370.333 363.333 OFFCURVE",
"377 414 CURVE SMOOTH",
"385 472 LINE SMOOTH",
"391.667 526.667 OFFCURVE",
"366 564 OFFCURVE",
"290 564 CURVE SMOOTH",
"90 564 LINE",
"14 27 LINE"
);
},
{
closed = 1;
nodes = (
"222 488 LINE",
"235 488 LINE SMOOTH",
"243 488 OFFCURVE",
"246.833 481 OFFCURVE",
"246.5 467 CURVE SMOOTH",
"246.167 453 OFFCURVE",
"244.333 435.667 OFFCURVE",
"241 415 CURVE SMOOTH",
"237.667 395 OFFCURVE",
"233.667 378 OFFCURVE",
"229 364 CURVE SMOOTH",
"224.333 350 OFFCURVE",
"219 343 OFFCURVE",
"213 343 CURVE SMOOTH",
"202 343 LINE"
);
},
{
closed = 1;
nodes = (
"214 352 LINE SMOOTH",
"217.333 352 OFFCURVE",
"220.5 358.167 OFFCURVE",
"223.5 370.5 CURVE SMOOTH",
"226.5 382.833 OFFCURVE",
"229.333 397.667 OFFCURVE",
"232 415 CURVE SMOOTH",
"234.667 432.333 OFFCURVE",
"236.5 447.167 OFFCURVE",
"237.5 459.5 CURVE SMOOTH",
"238.5 471.833 OFFCURVE",
"237.333 478 OFFCURVE",
"234 478 CURVE SMOOTH",
"230 478 LINE",
"212 352 LINE"
);
}
);
userData = {
assembly = "SVTCA[0]	/* SetFreedomAndProjectionVectorToAxis */\012PUSHW[ ]	/* 4 values pushed */\01219 2 16 4 \012CALL[ ]	/* CallFunction */\012PUSHW[ ]	/* 4 values pushed */\01227 1 25 4 \012CALL[ ]	/* CallFunction */\012PUSHW[ ]	/* 3 values pushed */\0129 25 27 \012SRP1[ ]	/* SetRefPoint1 */\012SRP2[ ]	/* SetRefPoint2 */\012IP[ ]	/* InterpolatePts */\012PUSHW[ ]	/* 3 values pushed */\01264 25 27 \012SRP1[ ]	/* SetRefPoint1 */\012SRP2[ ]	/* SetRefPoint2 */\012IP[ ]	/* InterpolatePts */\012IUP[0]	/* InterpolateUntPts */\012IUP[1]	/* InterpolateUntPts */";
};
width = 427;
}
);
note = B;
rightKerningGroup = parenright;
unicode = 0042;
},
{
glyphname = C;
lastChange = "2021-11-22 23:52:12 +0000";
layers = (
{
layerId = "6544E2DB-1912-401E-9B5B-A29F161A5995";
paths = (
{
closed = 1;
nodes = (
"282.295 -11 OFFCURVE",
"341.916 28.955 OFFCURVE",
"364 186 CURVE SMOOTH",
"377 280 LINE",
"214 280 LINE",
"216 298 LINE",
"379 298 LINE",
"401 451 LINE SMOOTH",
"415.667 560.333 OFFCURVE",
"356.333 601 OFFCURVE",
"247 601 CURVE SMOOTH",
"136.503 601 OFFCURVE",
"59.842 559.255 OFFCURVE",
"44 451 CURVE SMOOTH",
"7 185 LINE SMOOTH",
"-15.223 29.441 OFFCURVE",
"38.522 -11 OFFCURVE",
"161 -11 CURVE SMOOTH"
);
},
{
closed = 1;
nodes = (
"50.824 7 OFFCURVE",
"4.273 44.445 OFFCURVE",
"24 185 CURVE SMOOTH",
"61 451 LINE SMOOTH",
"74.333 547 OFFCURVE",
"144 583 OFFCURVE",
"244 583 CURVE SMOOTH",
"342.667 583 OFFCURVE",
"397.333 547 OFFCURVE",
"384 451 CURVE SMOOTH",
"365 316 LINE",
"212 316 LINE",
"232 458 LINE SMOOTH",
"233.333 465.333 OFFCURVE",
"233.5 470.167 OFFCURVE",
"232.5 472.5 CURVE SMOOTH",
"231.5 474.833 OFFCURVE",
"230.333 476 OFFCURVE",
"229 476 CURVE SMOOTH",
"227 476 OFFCURVE",
"225.5 474.833 OFFCURVE",
"224.5 472.5 CURVE SMOOTH",
"223.5 470.167 OFFCURVE",
"222.333 465.333 OFFCURVE",
"221 458 CURVE SMOOTH",
"174 127 LINE",
"173.333 115 OFFCURVE",
"174.667 109 OFFCURVE",
"178 109 CURVE SMOOTH",
"179.333 109 OFFCURVE",
"180.667 110.333 OFFCURVE",
"182 113 CURVE SMOOTH",
"183.333 115.667 OFFCURVE",
"184.333 120.333 OFFCURVE",
"185 127 CURVE SMOOTH",
"204 262 LINE",
"357 262 LINE",
"347 186 LINE SMOOTH",
"327.459 44.329 OFFCURVE",
"272.178 7 OFFCURVE",
"163 7 CURVE SMOOTH"
);
},
{
closed = 1;
nodes = (
"269.255 16 OFFCURVE",
"318.261 50.294 OFFCURVE",
"338 186 CURVE SMOOTH",
"347 253 LINE",
"211 253 LINE",
"193 127 LINE SMOOTH",
"191.667 117 OFFCURVE",
"189.5 110 OFFCURVE",
"186.5 106 CURVE SMOOTH",
"183.5 102 OFFCURVE",
"180.333 100 OFFCURVE",
"177 100 CURVE SMOOTH",
"172.333 100 OFFCURVE",
"169 102 OFFCURVE",
"167 106 CURVE SMOOTH",
"165 110 OFFCURVE",
"164.667 117 OFFCURVE",
"166 127 CURVE SMOOTH",
"213 458 LINE SMOOTH",
"214.333 468.667 OFFCURVE",
"216.5 475.833 OFFCURVE",
"219.5 479.5 CURVE SMOOTH",
"222.5 483.167 OFFCURVE",
"226.333 485 OFFCURVE",
"231 485 CURVE SMOOTH",
"234.333 485 OFFCURVE",
"237 483.167 OFFCURVE",
"239 479.5 CURVE SMOOTH",
"241 475.833 OFFCURVE",
"241.333 468.667 OFFCURVE",
"240 458 CURVE SMOOTH",
"221 325 LINE",
"357 325 LINE",
"375 451 LINE SMOOTH",
"388.333 540.333 OFFCURVE",
"336.333 574 OFFCURVE",
"243 574 CURVE SMOOTH",
"148.333 574 OFFCURVE",
"83.333 541.667 OFFCURVE",
"70 451 CURVE SMOOTH",
"33 185 LINE SMOOTH",
"13.183 51.239 OFFCURVE",
"59.538 16 OFFCURVE",
"165 16 CURVE SMOOTH"
);
}
);
width = 412;
}
);
note = C;
unicode = 0043;
},
{
glyphname = D;
lastChange = "2021-11-22 23:52:12 +0000";
layers = (
{
layerId = "6544E2DB-1912-401E-9B5B-A29F161A5995";
paths = (
{
closed = 1;
nodes = (
"189 0 LINE SMOOTH",
"285 0 OFFCURVE",
"346.333 34.333 OFFCURVE",
"361 141 CURVE SMOOTH",
"408 472 LINE SMOOTH",
"418.667 542.667 OFFCURVE",
"386.333 591 OFFCURVE",
"293 591 CURVE SMOOTH",
"68 591 LINE",
"-15 0 LINE"
);
},
{
closed = 1;
nodes = (
"83 573 LINE",
"290 573 LINE SMOOTH",
"371.333 573 OFFCURVE",
"399 532 OFFCURVE",
"391 472 CURVE SMOOTH",
"344 141 LINE SMOOTH",
"330.893 49.252 OFFCURVE",
"279.57 18 OFFCURVE",
"191 18 CURVE SMOOTH",
"5 18 LINE"
);
},
{
closed = 1;
nodes = (
"192 27 LINE SMOOTH",
"272 27 OFFCURVE",
"324 54.333 OFFCURVE",
"336 141 CURVE SMOOTH",
"383 472 LINE SMOOTH",
"389.667 526.667 OFFCURVE",
"365 564 OFFCURVE",
"289 564 CURVE SMOOTH",
"90 564 LINE",
"14 27 LINE"
);
},
{
closed = 1;
nodes = (
"221 484 LINE",
"234 484 LINE SMOOTH",
"238.667 484 OFFCURVE",
"242 482.167 OFFCURVE",
"244 478.5 CURVE SMOOTH",
"246 474.833 OFFCURVE",
"246.333 467.667 OFFCURVE",
"245 457 CURVE SMOOTH",
"198 127 LINE SMOOTH",
"196.667 116.333 OFFCURVE",
"194.5 109.167 OFFCURVE",
"191.5 105.5 CURVE SMOOTH",
"188.5 101.833 OFFCURVE",
"184.667 100 OFFCURVE",
"180 100 CURVE SMOOTH",
"167 100 LINE"
);
},
{
closed = 1;
nodes = (
"181 109 LINE SMOOTH",
"182.333 109 OFFCURVE",
"183.667 110.167 OFFCURVE",
"185 112.5 CURVE SMOOTH",
"186.333 114.833 OFFCURVE",
"187.667 119.667 OFFCURVE",
"189 127 CURVE SMOOTH",
"236 457 LINE SMOOTH",
"238 469 OFFCURVE",
"236.667 475 OFFCURVE",
"232 475 CURVE SMOOTH",
"228 475 LINE",
"177 109 LINE"
);
}
);
userData = {
assembly = "SVTCA[0]	/* SetFreedomAndProjectionVectorToAxis */\012PUSHW[ ]	/* 4 values pushed */\01216 2 8 4 \012CALL[ ]	/* CallFunction */\012IUP[0]	/* InterpolateUntPts */\012IUP[1]	/* InterpolateUntPts */";
};
width = 412;
}
);
note = D;
unicode = 0044;
},
{
glyphname = Eth;
lastChange = "2021-11-22 23:52:12 +0000";
layers = (
{
layerId = "6544E2DB-1912-401E-9B5B-A29F161A5995";
paths = (
{
closed = 1;
nodes = (
"211 0 LINE SMOOTH",
"367.472 0 OFFCURVE",
"387.401 64.188 OFFCURVE",
"411 232 CURVE SMOOTH",
"432 380 LINE SMOOTH",
"456.123 543.498 OFFCURVE",
"456.384 591 OFFCURVE",
"301 591 CURVE SMOOTH",
"78 591 LINE",
"37 300 LINE",
"5 300 LINE",
"-15 163 LINE",
"17 163 LINE",
"-5 0 LINE"
);
},
{
closed = 1;
nodes = (
"37 182 LINE",
"6 182 LINE",
"20 282 LINE",
"51 282 LINE",
"92 573 LINE",
"298 573 LINE SMOOTH",
"438.575 573 OFFCURVE",
"436.453 527.489 OFFCURVE",
"415 380 CURVE SMOOTH",
"394 232 LINE SMOOTH",
"373.074 77.67 OFFCURVE",
"352.283 18 OFFCURVE",
"213 18 CURVE SMOOTH",
"14 18 LINE"
);
},
{
closed = 1;
nodes = (
"214 27 LINE SMOOTH",
"347.198 27 OFFCURVE",
"364.069 85.481 OFFCURVE",
"385 232 CURVE SMOOTH",
"406 380 LINE SMOOTH",
"424.719 521.729 OFFCURVE",
"429.457 564 OFFCURVE",
"297 564 CURVE SMOOTH",
"100 564 LINE",
"59 273 LINE",
"27 273 LINE",
"15 191 LINE",
"47 191 LINE",
"24 27 LINE"
);
},
{
closed = 1;
nodes = (
"194 191 LINE",
"211 191 LINE",
"223 273 LINE",
"206 273 LINE",
"236 488 LINE",
"256 488 LINE SMOOTH",
"269.333 488 OFFCURVE",
"276.667 482.333 OFFCURVE",
"274 461 CURVE SMOOTH",
"269.14 426.981 OFFCURVE",
"252.516 304.582 OFFCURVE",
"251 297 CURVE SMOOTH",
"228 129 LINE SMOOTH",
"225.333 106.333 OFFCURVE",
"215.333 101 OFFCURVE",
"202 101 CURVE SMOOTH",
"182 101 LINE"
);
},
{
closed = 1;
nodes = (
"203 110 LINE SMOOTH",
"211 110 OFFCURVE",
"216.333 114.333 OFFCURVE",
"219 129 CURVE SMOOTH",
"246 326 LINE SMOOTH",
"251.333 358 OFFCURVE",
"259.333 409 OFFCURVE",
"266 461 CURVE SMOOTH",
"268.667 475.667 OFFCURVE",
"263 479 OFFCURVE",
"255 479 CURVE SMOOTH",
"243 479 LINE",
"215 282 LINE",
"233 282 LINE",
"219 182 LINE",
"201 182 LINE",
"191 110 LINE"
);
}
);
userData = {
assembly = "SVTCA[0]	/* SetFreedomAndProjectionVectorToAxis */\012PUSHW[ ]	/* 4 values pushed */\01233 2 13 4 \012CALL[ ]	/* CallFunction */\012PUSHW[ ]	/* 4 values pushed */\0120 2 15 4 \012CALL[ ]	/* CallFunction */\012PUSHW[ ]	/* 1 value pushed */\0120 \012SRP0[ ]	/* SetRefPoint0 */\012PUSHW[ ]	/* 1 value pushed */\01228 \012MDRP[10000]	/* MoveDirectRelPt */\012PUSHW[ ]	/* 1 value pushed */\01215 \012SRP0[ ]	/* SetRefPoint0 */\012PUSHW[ ]	/* 1 value pushed */\01230 \012MDRP[10000]	/* MoveDirectRelPt */\012IUP[0]	/* InterpolateUntPts */\012IUP[1]	/* InterpolateUntPts */";
};
width = 448;
}
);
note = Eth;
rightKerningGroup = parenright;
unicode = 00D0;
},
{
glyphname = E;
lastChange = "2021-11-22 23:52:12 +0000";
layers = (
{
layerId = "6544E2DB-1912-401E-9B5B-A29F161A5995";
paths = (
{
closed = 1;
nodes = (
"271 0 LINE",
"292 153 LINE",
"192 153 LINE",
"201 218 LINE",
"292 218 LINE",
"316 386 LINE",
"225 386 LINE",
"232 436 LINE",
"332 436 LINE",
"354 591 LINE",
"68 591 LINE",
"-15 0 LINE"
);
},
{
closed = 1;
nodes = (
"81 573 LINE",
"334 573 LINE",
"317 454 LINE",
"218 454 LINE",
"206 368 LINE",
"297 368 LINE",
"279 236 LINE",
"188 236 LINE",
"173 134 LINE",
"272 134 LINE",
"256 18 LINE",
"3 18 LINE"
);
},
{
closed = 1;
nodes = (
"249 27 LINE",
"263 125 LINE",
"164 125 LINE",
"181 245 LINE",
"272 245 LINE",
"288 359 LINE",
"197 359 LINE",
"212 463 LINE",
"311 463 LINE",
"325 564 LINE",
"88 564 LINE",
"12 27 LINE"
);
}
);
userData = {
assembly = "PUSHW[ ]	/* 4 values pushed */\01229 6 7 4 \012CALL[ ]	/* CallFunction */\012PUSHW[ ]	/* 1 value pushed */\01229 \012SRP0[ ]	/* SetRefPoint0 */\012PUSHW[ ]	/* 1 value pushed */\0122 \012MDRP[10000]	/* MoveDirectRelPt */\012PUSHW[ ]	/* 1 value pushed */\0122 \012MDAP[1]	/* MoveDirectAbsPt */\012PUSHW[ ]	/* 1 value pushed */\0127 \012SRP0[ ]	/* SetRefPoint0 */\012PUSHW[ ]	/* 1 value pushed */\01216 \012MDRP[10000]	/* MoveDirectRelPt */\012PUSHW[ ]	/* 1 value pushed */\01216 \012MDAP[1]	/* MoveDirectAbsPt */\012PUSHW[ ]	/* 1 value pushed */\01229 \012SRP0[ ]	/* SetRefPoint0 */\012PUSHW[ ]	/* 1 value pushed */\01221 \012MDRP[10000]	/* MoveDirectRelPt */\012PUSHW[ ]	/* 1 value pushed */\01221 \012MDAP[1]	/* MoveDirectAbsPt */\012PUSHW[ ]	/* 1 value pushed */\01229 \012SRP0[ ]	/* SetRefPoint0 */\012PUSHW[ ]	/* 1 value pushed */\01237 \012MDRP[11100]	/* MoveDirectRelPt */\012SVTCA[0]	/* SetFreedomAndProjectionVectorToAxis */\012PUSHW[ ]	/* 4 values pushed */\0129 3 10 4 \012CALL[ ]	/* CallFunction */\012IUP[0]	/* InterpolateUntPts */\012IUP[1]	/* InterpolateUntPts */";
};
width = 342;
}
);
note = E;
unicode = 0045;
},
{
color = 11;
glyphname = Ebreve;
lastChange = "2021-11-22 23:53:49 +0000";
layers = (
{
components = (
{
name = E;
}
);
layerId = "6544E2DB-1912-401E-9B5B-A29F161A5995";
paths = (
{
closed = 1;
nodes = (
"264 640 OFFCURVE",
"305 686 OFFCURVE",
"310 754 CURVE",
"209 754 LINE",
"207 743 OFFCURVE",
"205 735 OFFCURVE",
"201 730 CURVE SMOOTH",
"197 725 OFFCURVE",
"193 722 OFFCURVE",
"188 722 CURVE SMOOTH",
"179 722 OFFCURVE",
"170 731 OFFCURVE",
"172 754 CURVE",
"71 754 LINE",
"67 696 OFFCURVE",
"90 640 OFFCURVE",
"181 640 CURVE SMOOTH"
);
},
{
closed = 1;
nodes = (
"105 653 OFFCURVE",
"83 696 OFFCURVE",
"86 741 CURVE",
"155 741 LINE",
"154 718 OFFCURVE",
"170 709 OFFCURVE",
"187 709 CURVE SMOOTH",
"204 709 OFFCURVE",
"221 718 OFFCURVE",
"223 741 CURVE",
"293 741 LINE",
"290 692 OFFCURVE",
"258 653 OFFCURVE",
"182 653 CURVE SMOOTH"
);
},
{
closed = 1;
nodes = (
"253 660 OFFCURVE",
"282 693 OFFCURVE",
"285 734 CURVE",
"231 734 LINE",
"225 691 OFFCURVE",
"144 691 OFFCURVE",
"147 734 CURVE",
"94 734 LINE",
"91 695 OFFCURVE",
"113 660 OFFCURVE",
"182 660 CURVE SMOOTH"
);
}
);
width = 342;
}
);
unicode = 0114;
},
{
color = 11;
glyphname = Einvertedbreve;
lastChange = "2021-11-22 23:53:49 +0000";
layers = (
{
components = (
{
name = E;
}
);
layerId = "6544E2DB-1912-401E-9B5B-A29F161A5995";
paths = (
{
closed = 1;
nodes = (
"91 754 OFFCURVE",
"60 698 OFFCURVE",
"56 640 CURVE",
"157 640 LINE",
"159 663 OFFCURVE",
"168 672 OFFCURVE",
"177 672 CURVE SMOOTH",
"182 672 OFFCURVE",
"186 669 OFFCURVE",
"190 664 CURVE",
"192 659 OFFCURVE",
"194 651 OFFCURVE",
"194 640 CURVE",
"295 640 LINE",
"300 708 OFFCURVE",
"265 754 OFFCURVE",
"182 754 CURVE SMOOTH"
);
},
{
closed = 1;
nodes = (
"257 741 OFFCURVE",
"283 702 OFFCURVE",
"280 653 CURVE",
"210 653 LINE",
"212 676 OFFCURVE",
"195 685 OFFCURVE",
"178 685 CURVE SMOOTH",
"161 685 OFFCURVE",
"145 676 OFFCURVE",
"142 653 CURVE",
"73 653 LINE",
"76 698 OFFCURVE",
"104 741 OFFCURVE",
"181 741 CURVE SMOOTH"
);
},
{
closed = 1;
nodes = (
"112 734 OFFCURVE",
"84 699 OFFCURVE",
"81 660 CURVE",
"134 660 LINE",
"137 703 OFFCURVE",
"218 703 OFFCURVE",
"218 660 CURVE",
"272 660 LINE",
"275 701 OFFCURVE",
"252 734 OFFCURVE",
"181 734 CURVE SMOOTH"
);
}
);
width = 342;
}
);
unicode = 0206;
},
{
glyphname = F;
lastChange = "2021-11-22 23:52:12 +0000";
layers = (
{
layerId = "6544E2DB-1912-401E-9B5B-A29F161A5995";
paths = (
{
closed = 1;
nodes = (
"171 0 LINE",
"201 218 LINE",
"292 218 LINE",
"316 386 LINE",
"225 386 LINE",
"232 436 LINE",
"332 436 LINE",
"354 591 LINE",
"68 591 LINE",
"-15 0 LINE"
);
},
{
closed = 1;
nodes = (
"81 573 LINE",
"334 573 LINE",
"317 454 LINE",
"218 454 LINE",
"206 368 LINE",
"297 368 LINE",
"279 236 LINE",
"188 236 LINE",
"157 18 LINE",
"3 18 LINE"
);
},
{
closed = 1;
nodes = (
"150 27 LINE",
"181 245 LINE",
"272 245 LINE",
"288 359 LINE",
"197 359 LINE",
"212 463 LINE",
"311 463 LINE",
"325 564 LINE",
"88 564 LINE",
"12 27 LINE"
);
}
);
userData = {
assembly = "PUSHW[ ]	/* 4 values pushed */\01225 6 7 4 \012CALL[ ]	/* CallFunction */\012PUSHW[ ]	/* 1 value pushed */\01225 \012SRP0[ ]	/* SetRefPoint0 */\012PUSHW[ ]	/* 1 value pushed */\0122 \012MDRP[10000]	/* MoveDirectRelPt */\012PUSHW[ ]	/* 1 value pushed */\0122 \012MDAP[1]	/* MoveDirectAbsPt */\012PUSHW[ ]	/* 1 value pushed */\0127 \012SRP0[ ]	/* SetRefPoint0 */\012PUSHW[ ]	/* 1 value pushed */\01212 \012MDRP[10000]	/* MoveDirectRelPt */\012PUSHW[ ]	/* 1 value pushed */\01212 \012MDAP[1]	/* MoveDirectAbsPt */\012PUSHW[ ]	/* 1 value pushed */\01225 \012SRP0[ ]	/* SetRefPoint0 */\012PUSHW[ ]	/* 1 value pushed */\01217 \012MDRP[10000]	/* MoveDirectRelPt */\012PUSHW[ ]	/* 1 value pushed */\01217 \012MDAP[1]	/* MoveDirectAbsPt */\012PUSHW[ ]	/* 1 value pushed */\01225 \012SRP0[ ]	/* SetRefPoint0 */\012PUSHW[ ]	/* 1 value pushed */\01231 \012MDRP[11100]	/* MoveDirectRelPt */\012SVTCA[0]	/* SetFreedomAndProjectionVectorToAxis */\012PUSHW[ ]	/* 1 value pushed */\0128 \012MDAP[1]	/* MoveDirectAbsPt */\012IUP[0]	/* InterpolateUntPts */\012IUP[1]	/* InterpolateUntPts */";
};
width = 333;
}
);
note = F;
unicode = 0046;
},
{
glyphname = G;
lastChange = "2021-11-22 23:52:12 +0000";
layers = (
{
layerId = "6544E2DB-1912-401E-9B5B-A29F161A5995";
paths = (
{
closed = 1;
nodes = (
"145.667 -9 OFFCURVE",
"169.333 1.333 OFFCURVE",
"188 16 CURVE",
"189 0 LINE",
"338 0 LINE",
"385 338 LINE",
"216 338 LINE",
"216 339 LINE",
"385 339 LINE",
"401 449 LINE SMOOTH",
"416.688 556.2 OFFCURVE",
"348.657 599 OFFCURVE",
"241 599 CURVE SMOOTH",
"134.333 599 OFFCURVE",
"58.667 558.333 OFFCURVE",
"44 449 CURVE SMOOTH",
"4 165 LINE SMOOTH",
"-14.91 32.633 OFFCURVE",
"34.508 -9 OFFCURVE",
"115 -9 CURVE SMOOTH"
);
},
{
closed = 1;
nodes = (
"184.333 109 OFFCURVE",
"188.333 115 OFFCURVE",
"189 127 CURVE",
"202 220 LINE",
"181 220 LINE",
"168 127 LINE",
"167.333 115 OFFCURVE",
"170.333 109 OFFCURVE",
"177 109 CURVE SMOOTH"
);
},
{
closed = 1;
nodes = (
"45.813 9 OFFCURVE",
"4.6 47.858 OFFCURVE",
"21 165 CURVE SMOOTH",
"61 449 LINE SMOOTH",
"74.333 545 OFFCURVE",
"142 581 OFFCURVE",
"238 581 CURVE SMOOTH",
"334.198 581 OFFCURVE",
"397.196 544.013 OFFCURVE",
"384 449 CURVE SMOOTH",
"371 358 LINE",
"222 358 LINE",
"236 458 LINE SMOOTH",
"238 470 OFFCURVE",
"235.333 476 OFFCURVE",
"228 476 CURVE SMOOTH",
"221.333 476 OFFCURVE",
"217 470 OFFCURVE",
"215 458 CURVE SMOOTH",
"195 319 LINE",
"365 319 LINE",
"323 18 LINE",
"205 18 LINE",
"201 55 LINE",
"186.333 31 OFFCURVE",
"160.667 9 OFFCURVE",
"118 9 CURVE SMOOTH"
);
},
{
closed = 1;
nodes = (
"168.223 18 OFFCURVE",
"194.528 55.055 OFFCURVE",
"209 84 CURVE",
"213 27 LINE",
"315 27 LINE",
"355 310 LINE",
"202 310 LINE",
"191 229 LINE",
"213 229 LINE",
"198 127 LINE SMOOTH",
"195.333 105.667 OFFCURVE",
"186.667 100 OFFCURVE",
"176 100 CURVE SMOOTH",
"165.333 100 OFFCURVE",
"157.333 105.667 OFFCURVE",
"160 127 CURVE SMOOTH",
"207 458 LINE SMOOTH",
"209.667 479.333 OFFCURVE",
"219.333 485 OFFCURVE",
"230 485 CURVE SMOOTH",
"240.667 485 OFFCURVE",
"247.667 479.333 OFFCURVE",
"245 458 CURVE SMOOTH",
"232 367 LINE",
"363 367 LINE",
"375 449 LINE SMOOTH",
"385.508 538.32 OFFCURVE",
"330.112 572 OFFCURVE",
"237 572 CURVE SMOOTH",
"146.333 572 OFFCURVE",
"82 538.333 OFFCURVE",
"70 449 CURVE SMOOTH",
"30 165 LINE SMOOTH",
"13.75 55.894 OFFCURVE",
"51.13 18 OFFCURVE",
"119 18 CURVE SMOOTH"
);
}
);
userData = {
assembly = "PUSHW[ ]	/* 4 values pushed */\01275 6 48 4 \012CALL[ ]	/* CallFunction */\012PUSHW[ ]	/* 3 values pushed */\0123 48 75 \012SRP1[ ]	/* SetRefPoint1 */\012SRP2[ ]	/* SetRefPoint2 */\012IP[ ]	/* InterpolatePts */\012PUSHW[ ]	/* 3 values pushed */\01273 48 75 \012SRP1[ ]	/* SetRefPoint1 */\012SRP2[ ]	/* SetRefPoint2 */\012IP[ ]	/* InterpolatePts */\012PUSHW[ ]	/* 3 values pushed */\01279 48 75 \012SRP1[ ]	/* SetRefPoint1 */\012SRP2[ ]	/* SetRefPoint2 */\012IP[ ]	/* InterpolatePts */\012PUSHW[ ]	/* 1 value pushed */\01248 \012SRP0[ ]	/* SetRefPoint0 */\012PUSHW[ ]	/* 1 value pushed */\01283 \012MDRP[10000]	/* MoveDirectRelPt */\012PUSHW[ ]	/* 1 value pushed */\01283 \012MDAP[1]	/* MoveDirectAbsPt */\012PUSHW[ ]	/* 1 value pushed */\01275 \012SRP0[ ]	/* SetRefPoint0 */\012PUSHW[ ]	/* 1 value pushed */\012103 \012MDRP[11100]	/* MoveDirectRelPt */\012SVTCA[0]	/* SetFreedomAndProjectionVectorToAxis */\012PUSHW[ ]	/* 1 value pushed */\0121 \012MDAP[1]	/* MoveDirectAbsPt */\012PUSHW[ ]	/* 4 values pushed */\01235 2 8 4 \012CALL[ ]	/* CallFunction */\012PUSHW[ ]	/* 3 values pushed */\0123 8 35 \012SRP1[ ]	/* SetRefPoint1 */\012SRP2[ ]	/* SetRefPoint2 */\012IP[ ]	/* InterpolatePts */\012PUSHW[ ]	/* 3 values pushed */\01273 8 35 \012SRP1[ ]	/* SetRefPoint1 */\012SRP2[ ]	/* SetRefPoint2 */\012IP[ ]	/* InterpolatePts */\012PUSHW[ ]	/* 1 value pushed */\0128 \012SRP0[ ]	/* SetRefPoint0 */\012PUSHW[ ]	/* 1 value pushed */\01274 \012MDRP[10000]	/* MoveDirectRelPt */\012IUP[0]	/* InterpolateUntPts */\012IUP[1]	/* InterpolateUntPts */";
};
width = 412;
}
);
note = G;
unicode = 0047;
},
{
color = 11;
glyphname = Gbreve;
lastChange = "2021-11-22 23:53:49 +0000";
layers = (
{
components = (
{
name = G;
}
);
layerId = "6544E2DB-1912-401E-9B5B-A29F161A5995";
paths = (
{
closed = 1;
nodes = (
"264 640 OFFCURVE",
"305 686 OFFCURVE",
"310 754 CURVE",
"209 754 LINE",
"207 743 OFFCURVE",
"205 735 OFFCURVE",
"201 730 CURVE SMOOTH",
"197 725 OFFCURVE",
"193 722 OFFCURVE",
"188 722 CURVE SMOOTH",
"179 722 OFFCURVE",
"170 731 OFFCURVE",
"172 754 CURVE",
"71 754 LINE",
"67 696 OFFCURVE",
"90 640 OFFCURVE",
"181 640 CURVE SMOOTH"
);
},
{
closed = 1;
nodes = (
"105 653 OFFCURVE",
"83 696 OFFCURVE",
"86 741 CURVE",
"155 741 LINE",
"154 718 OFFCURVE",
"170 709 OFFCURVE",
"187 709 CURVE SMOOTH",
"204 709 OFFCURVE",
"221 718 OFFCURVE",
"223 741 CURVE",
"293 741 LINE",
"290 692 OFFCURVE",
"258 653 OFFCURVE",
"182 653 CURVE SMOOTH"
);
},
{
closed = 1;
nodes = (
"253 660 OFFCURVE",
"282 693 OFFCURVE",
"285 734 CURVE",
"231 734 LINE",
"225 691 OFFCURVE",
"144 691 OFFCURVE",
"147 734 CURVE",
"94 734 LINE",
"91 695 OFFCURVE",
"113 660 OFFCURVE",
"182 660 CURVE SMOOTH"
);
}
);
width = 412;
}
);
note = Gbreve;
unicode = 011E;
},
{
color = 11;
glyphname = Gcommaaccent;
lastChange = "2021-11-22 23:52:12 +0000";
layers = (
{
components = (
{
name = G;
}
);
layerId = "6544E2DB-1912-401E-9B5B-A29F161A5995";
paths = (
{
closed = 1;
nodes = (
"37 -428 OFFCURVE",
"96 -306 OFFCURVE",
"98 -238 CURVE SMOOTH",
"98 -190 OFFCURVE",
"81 -153 OFFCURVE",
"26 -153 CURVE SMOOTH",
"-22 -153 OFFCURVE",
"-52 -189 OFFCURVE",
"-55 -232 CURVE SMOOTH",
"-57 -257 OFFCURVE",
"-46 -275 OFFCURVE",
"-36 -288 CURVE",
"-32 -295 OFFCURVE",
"-28 -301 OFFCURVE",
"-27 -308 CURVE",
"-30 -333 OFFCURVE",
"-58 -372 OFFCURVE",
"-90 -396 CURVE",
"-73 -410 OFFCURVE",
"-60 -419 OFFCURVE",
"-51 -422 CURVE SMOOTH",
"-42 -426 OFFCURVE",
"-36 -428 OFFCURVE",
"-29 -428 CURVE SMOOTH"
);
},
{
closed = 1;
nodes = (
"-38 -411 OFFCURVE",
"-49 -411 OFFCURVE",
"-65 -396 CURVE",
"-40 -376 OFFCURVE",
"-15 -340 OFFCURVE",
"-12 -309 CURVE SMOOTH",
"-11 -294 OFFCURVE",
"-19 -287 OFFCURVE",
"-26 -276 CURVE SMOOTH",
"-34 -264 OFFCURVE",
"-42 -253 OFFCURVE",
"-41 -232 CURVE SMOOTH",
"-39 -199 OFFCURVE",
"-15 -169 OFFCURVE",
"24 -169 CURVE SMOOTH",
"71 -169 OFFCURVE",
"84 -204 OFFCURVE",
"83 -239 CURVE SMOOTH",
"81 -301 OFFCURVE",
"32 -411 OFFCURVE",
"-27 -411 CURVE SMOOTH"
);
},
{
closed = 1;
nodes = (
"28 -403 OFFCURVE",
"74 -299 OFFCURVE",
"76 -240 CURVE SMOOTH",
"75 -206 OFFCURVE",
"63 -177 OFFCURVE",
"24 -177 CURVE SMOOTH",
"-11 -177 OFFCURVE",
"-32 -203 OFFCURVE",
"-34 -232 CURVE SMOOTH",
"-36 -264 OFFCURVE",
"-3 -277 OFFCURVE",
"-5 -309 CURVE SMOOTH",
"-9 -341 OFFCURVE",
"-29 -377 OFFCURVE",
"-53 -396 CURVE",
"-46 -403 OFFCURVE",
"-36 -403 OFFCURVE",
"-27 -403 CURVE SMOOTH"
);
}
);
width = 412;
}
);
unicode = 0122;
},
{
glyphname = H;
lastChange = "2021-11-22 23:52:12 +0000";
layers = (
{
layerId = "6544E2DB-1912-401E-9B5B-A29F161A5995";
paths = (
{
closed = 1;
nodes = (
"339 0 LINE",
"422 591 LINE",
"68 591 LINE",
"-15 0 LINE"
);
},
{
closed = 1;
nodes = (
"82 573 LINE",
"236 573 LINE",
"207 365 LINE",
"220 365 LINE",
"249 573 LINE",
"402 573 LINE",
"324 18 LINE",
"171 18 LINE",
"202 241 LINE",
"189 241 LINE",
"158 18 LINE",
"4 18 LINE"
);
},
{
closed = 1;
nodes = (
"150 27 LINE",
"182 250 LINE",
"213 250 LINE",
"181 27 LINE",
"317 27 LINE",
"393 564 LINE",
"257 564 LINE",
"228 356 LINE",
"197 356 LINE",
"226 564 LINE",
"90 564 LINE",
"14 27 LINE"
);
}
);
userData = {
assembly = "PUSHW[ ]	/* 1 value pushed */\01228 \012MDAP[1]	/* MoveDirectAbsPt */\012PUSHW[ ]	/* 1 value pushed */\01223 \012MDAP[1]	/* MoveDirectAbsPt */\012PUSHW[ ]	/* 1 value pushed */\0120 \012MDRP[10000]	/* MoveDirectRelPt */\012PUSHW[ ]	/* 1 value pushed */\0120 \012MDAP[1]	/* MoveDirectAbsPt */\012PUSHW[ ]	/* 1 value pushed */\01228 \012SRP0[ ]	/* SetRefPoint0 */\012PUSHW[ ]	/* 1 value pushed */\0122 \012MDRP[10000]	/* MoveDirectRelPt */\012PUSHW[ ]	/* 1 value pushed */\0122 \012MDAP[1]	/* MoveDirectAbsPt */\012PUSHW[ ]	/* 2 values pushed */\0121 6 \012MIRP[10100]	/* MoveIndirectRelPt */\012PUSHW[ ]	/* 1 value pushed */\01223 \012SRP0[ ]	/* SetRefPoint0 */\012PUSHW[ ]	/* 2 values pushed */\01214 6 \012MIRP[10100]	/* MoveIndirectRelPt */\012PUSHW[ ]	/* 1 value pushed */\0129 \012MDRP[10000]	/* MoveDirectRelPt */\012PUSHW[ ]	/* 1 value pushed */\0129 \012MDAP[1]	/* MoveDirectAbsPt */\012PUSHW[ ]	/* 1 value pushed */\01214 \012SRP0[ ]	/* SetRefPoint0 */\012PUSHW[ ]	/* 1 value pushed */\01229 \012MDRP[11100]	/* MoveDirectRelPt */\012SVTCA[0]	/* SetFreedomAndProjectionVectorToAxis */\012PUSHW[ ]	/* 1 value pushed */\0121 \012MDAP[1]	/* MoveDirectAbsPt */\012PUSHW[ ]	/* 1 value pushed */\0129 \012MDAP[1]	/* MoveDirectAbsPt */\012PUSHW[ ]	/* 4 values pushed */\0125 3 0 4 \012CALL[ ]	/* CallFunction */\012IUP[0]	/* InterpolateUntPts */\012IUP[1]	/* InterpolateUntPts */";
};
width = 413;
}
);
note = H;
unicode = 0048;
},
{
color = 11;
glyphname = Hbar;
lastChange = "2021-11-22 23:52:12 +0000";
layers = (
{
layerId = "6544E2DB-1912-401E-9B5B-A29F161A5995";
paths = (
{
closed = 1;
nodes = (
"369 0 LINE",
"424 397 LINE",
"457 397 LINE",
"475 523 LINE",
"442 523 LINE",
"451 591 LINE",
"88 591 LINE",
"79 523 LINE",
"39 523 LINE",
"21 397 LINE",
"61 397 LINE",
"6 0 LINE"
);
},
{
closed = 1;
nodes = (
"81 415 LINE",
"42 415 LINE",
"54 505 LINE",
"93 505 LINE",
"103 573 LINE",
"260 573 LINE",
"250 505 LINE",
"265 505 LINE",
"275 573 LINE",
"432 573 LINE",
"422 505 LINE",
"454 505 LINE",
"442 415 LINE",
"410 415 LINE",
"354 18 LINE",
"197 18 LINE",
"228 241 LINE",
"213 241 LINE",
"182 18 LINE",
"25 18 LINE"
);
},
{
closed = 1;
nodes = (
"175 27 LINE",
"207 250 LINE",
"238 250 LINE",
"206 27 LINE",
"346 27 LINE",
"402 424 LINE",
"435 424 LINE",
"445 496 LINE",
"412 496 LINE",
"422 564 LINE",
"282 564 LINE",
"272 496 LINE",
"241 496 LINE",
"251 564 LINE",
"111 564 LINE",
"101 496 LINE",
"61 496 LINE",
"51 424 LINE",
"91 424 LINE",
"35 27 LINE"
);
},
{
closed = 1;
nodes = (
"231 424 LINE",
"262 424 LINE",
"252 356 LINE",
"221 356 LINE"
);
},
{
closed = 1;
nodes = (
"246 365 LINE",
"253 415 LINE",
"238 415 LINE",
"231 365 LINE"
);
}
);
width = 436;
}
);
note = Hbar;
unicode = 0126;
},
{
glyphname = I;
lastChange = "2021-11-22 23:52:12 +0000";
layers = (
{
layerId = "6544E2DB-1912-401E-9B5B-A29F161A5995";
paths = (
{
closed = 1;
nodes = (
"145 0 LINE",
"228 591 LINE",
"69 591 LINE",
"-14 0 LINE"
);
},
{
closed = 1;
nodes = (
"80 573 LINE",
"210 573 LINE",
"132 18 LINE",
"2 18 LINE"
);
},
{
closed = 1;
nodes = (
"126 27 LINE",
"202 564 LINE",
"87 564 LINE",
"11 27 LINE"
);
}
);
userData = {
assembly = "SVTCA[0]	/* SetFreedomAndProjectionVectorToAxis */\012PUSHW[ ]	/* 1 value pushed */\0120 \012MDAP[1]	/* MoveDirectAbsPt */\012IUP[0]	/* InterpolateUntPts */\012IUP[1]	/* InterpolateUntPts */";
};
width = 227;
}
);
note = I;
unicode = 0049;
},
{
color = 11;
glyphname = Ibreve;
lastChange = "2021-11-22 23:53:49 +0000";
layers = (
{
components = (
{
name = I;
}
);
layerId = "6544E2DB-1912-401E-9B5B-A29F161A5995";
paths = (
{
closed = 1;
nodes = (
"264 640 OFFCURVE",
"305 686 OFFCURVE",
"310 754 CURVE",
"209 754 LINE",
"207 743 OFFCURVE",
"205 735 OFFCURVE",
"201 730 CURVE SMOOTH",
"197 725 OFFCURVE",
"193 722 OFFCURVE",
"188 722 CURVE SMOOTH",
"179 722 OFFCURVE",
"170 731 OFFCURVE",
"172 754 CURVE",
"71 754 LINE",
"67 696 OFFCURVE",
"90 640 OFFCURVE",
"181 640 CURVE SMOOTH"
);
},
{
closed = 1;
nodes = (
"105 653 OFFCURVE",
"83 696 OFFCURVE",
"86 741 CURVE",
"155 741 LINE",
"154 718 OFFCURVE",
"170 709 OFFCURVE",
"187 709 CURVE SMOOTH",
"204 709 OFFCURVE",
"221 718 OFFCURVE",
"223 741 CURVE",
"293 741 LINE",
"290 692 OFFCURVE",
"258 653 OFFCURVE",
"182 653 CURVE SMOOTH"
);
},
{
closed = 1;
nodes = (
"253 660 OFFCURVE",
"282 693 OFFCURVE",
"285 734 CURVE",
"231 734 LINE",
"225 691 OFFCURVE",
"144 691 OFFCURVE",
"147 734 CURVE",
"94 734 LINE",
"91 695 OFFCURVE",
"113 660 OFFCURVE",
"182 660 CURVE SMOOTH"
);
}
);
width = 227;
}
);
unicode = 012C;
},
{
color = 11;
glyphname = Iinvertedbreve;
lastChange = "2021-11-22 23:53:49 +0000";
layers = (
{
components = (
{
name = I;
}
);
layerId = "6544E2DB-1912-401E-9B5B-A29F161A5995";
paths = (
{
closed = 1;
nodes = (
"91 754 OFFCURVE",
"60 698 OFFCURVE",
"56 640 CURVE",
"157 640 LINE",
"159 663 OFFCURVE",
"168 672 OFFCURVE",
"177 672 CURVE SMOOTH",
"182 672 OFFCURVE",
"186 669 OFFCURVE",
"190 664 CURVE",
"192 659 OFFCURVE",
"194 651 OFFCURVE",
"194 640 CURVE",
"295 640 LINE",
"300 708 OFFCURVE",
"265 754 OFFCURVE",
"182 754 CURVE SMOOTH"
);
},
{
closed = 1;
nodes = (
"257 741 OFFCURVE",
"283 702 OFFCURVE",
"280 653 CURVE",
"210 653 LINE",
"212 676 OFFCURVE",
"195 685 OFFCURVE",
"178 685 CURVE SMOOTH",
"161 685 OFFCURVE",
"145 676 OFFCURVE",
"142 653 CURVE",
"73 653 LINE",
"76 698 OFFCURVE",
"104 741 OFFCURVE",
"181 741 CURVE SMOOTH"
);
},
{
closed = 1;
nodes = (
"112 734 OFFCURVE",
"84 699 OFFCURVE",
"81 660 CURVE",
"134 660 LINE",
"137 703 OFFCURVE",
"218 703 OFFCURVE",
"218 660 CURVE",
"272 660 LINE",
"275 701 OFFCURVE",
"252 734 OFFCURVE",
"181 734 CURVE SMOOTH"
);
}
);
width = 227;
}
);
unicode = 020A;
},
{
glyphname = J;
lastChange = "2021-11-22 23:52:12 +0000";
layers = (
{
layerId = "6544E2DB-1912-401E-9B5B-A29F161A5995";
paths = (
{
closed = 1;
nodes = (
"157.103 -1 OFFCURVE",
"205.332 40.243 OFFCURVE",
"226 172 CURVE SMOOTH",
"285 591 LINE",
"111 591 LINE",
"51 169 LINE SMOOTH",
"48.333 154.333 OFFCURVE",
"46.667 153 OFFCURVE",
"36 153 CURVE SMOOTH",
"-11 153 LINE",
"-32 3 LINE",
"-1.333 -1 OFFCURVE",
"24.667 -1 OFFCURVE",
"34 -1 CURVE SMOOTH"
);
},
{
closed = 1;
nodes = (
"14 17 LINE SMOOTH",
"3.333 17 OFFCURVE",
"-6 17.667 OFFCURVE",
"-14 19 CURVE",
"2 134 LINE",
"33 134 LINE SMOOTH",
"57 134 OFFCURVE",
"63 141 OFFCURVE",
"67 169 CURVE SMOOTH",
"124 573 LINE",
"266 573 LINE",
"210 172 LINE SMOOTH",
"194.557 53.607 OFFCURVE",
"145.917 17 OFFCURVE",
"37 17 CURVE SMOOTH"
);
},
{
closed = 1;
nodes = (
"142.865 26 OFFCURVE",
"186.367 59.967 OFFCURVE",
"202 172 CURVE SMOOTH",
"257 564 LINE",
"131 564 LINE",
"75 169 LINE SMOOTH",
"69.667 133 OFFCURVE",
"62.667 125 OFFCURVE",
"32 125 CURVE SMOOTH",
"9 125 LINE",
"-5 27 LINE",
"-1 26.333 OFFCURVE",
"6 26 OFFCURVE",
"16 26 CURVE SMOOTH",
"38 26 LINE SMOOTH"
);
}
);
width = 278;
}
);
note = J;
unicode = 004A;
},
{
glyphname = K;
lastChange = "2021-11-22 23:52:12 +0000";
layers = (
{
layerId = "6544E2DB-1912-401E-9B5B-A29F161A5995";
paths = (
{
closed = 1;
nodes = (
"176 0 LINE",
"178 17 LINE",
"179 0 LINE",
"389 0 LINE",
"335 306 LINE",
"471 591 LINE",
"69 591 LINE",
"-14 0 LINE"
);
},
{
closed = 1;
nodes = (
"83 573 LINE",
"238 573 LINE",
"219 436 LINE",
"266 573 LINE",
"444 573 LINE",
"317 306 LINE",
"331.667 212.667 OFFCURVE",
"349.667 110 OFFCURVE",
"367 18 CURVE",
"195 18 LINE",
"183 182 LINE",
"160 18 LINE",
"5 18 LINE"
);
},
{
closed = 1;
nodes = (
"153 27 LINE",
"187 269 LINE",
"203 27 LINE",
"357 27 LINE",
"308 306 LINE",
"431 564 LINE",
"272 564 LINE",
"198 345 LINE",
"229 564 LINE",
"91 564 LINE",
"15 27 LINE"
);
}
);
userData = {
assembly = "SVTCA[0]	/* SetFreedomAndProjectionVectorToAxis */\012PUSHW[ ]	/* 1 value pushed */\0124 \012MDAP[1]	/* MoveDirectAbsPt */\012PUSHW[ ]	/* 1 value pushed */\0127 \012MDAP[1]	/* MoveDirectAbsPt */\012IUP[0]	/* InterpolateUntPts */\012IUP[1]	/* InterpolateUntPts */";
};
width = 440;
}
);
note = K;
unicode = 004B;
},
{
color = 11;
glyphname = Kcommaaccent;
lastChange = "2021-11-22 23:52:12 +0000";
layers = (
{
components = (
{
name = K;
}
);
layerId = "6544E2DB-1912-401E-9B5B-A29F161A5995";
paths = (
{
closed = 1;
nodes = (
"37 -428 OFFCURVE",
"96 -306 OFFCURVE",
"98 -238 CURVE SMOOTH",
"98 -190 OFFCURVE",
"81 -153 OFFCURVE",
"26 -153 CURVE SMOOTH",
"-22 -153 OFFCURVE",
"-52 -189 OFFCURVE",
"-55 -232 CURVE SMOOTH",
"-57 -257 OFFCURVE",
"-46 -275 OFFCURVE",
"-36 -288 CURVE",
"-32 -295 OFFCURVE",
"-28 -301 OFFCURVE",
"-27 -308 CURVE",
"-30 -333 OFFCURVE",
"-58 -372 OFFCURVE",
"-90 -396 CURVE",
"-73 -410 OFFCURVE",
"-60 -419 OFFCURVE",
"-51 -422 CURVE SMOOTH",
"-42 -426 OFFCURVE",
"-36 -428 OFFCURVE",
"-29 -428 CURVE SMOOTH"
);
},
{
closed = 1;
nodes = (
"-38 -411 OFFCURVE",
"-49 -411 OFFCURVE",
"-65 -396 CURVE",
"-40 -376 OFFCURVE",
"-15 -340 OFFCURVE",
"-12 -309 CURVE SMOOTH",
"-11 -294 OFFCURVE",
"-19 -287 OFFCURVE",
"-26 -276 CURVE SMOOTH",
"-34 -264 OFFCURVE",
"-42 -253 OFFCURVE",
"-41 -232 CURVE SMOOTH",
"-39 -199 OFFCURVE",
"-15 -169 OFFCURVE",
"24 -169 CURVE SMOOTH",
"71 -169 OFFCURVE",
"84 -204 OFFCURVE",
"83 -239 CURVE SMOOTH",
"81 -301 OFFCURVE",
"32 -411 OFFCURVE",
"-27 -411 CURVE SMOOTH"
);
},
{
closed = 1;
nodes = (
"28 -403 OFFCURVE",
"74 -299 OFFCURVE",
"76 -240 CURVE SMOOTH",
"75 -206 OFFCURVE",
"63 -177 OFFCURVE",
"24 -177 CURVE SMOOTH",
"-11 -177 OFFCURVE",
"-32 -203 OFFCURVE",
"-34 -232 CURVE SMOOTH",
"-36 -264 OFFCURVE",
"-3 -277 OFFCURVE",
"-5 -309 CURVE SMOOTH",
"-9 -341 OFFCURVE",
"-29 -377 OFFCURVE",
"-53 -396 CURVE",
"-46 -403 OFFCURVE",
"-36 -403 OFFCURVE",
"-27 -403 CURVE SMOOTH"
);
}
);
width = 440;
}
);
unicode = 0136;
},
{
glyphname = L;
lastChange = "2021-11-22 23:52:12 +0000";
layers = (
{
layerId = "6544E2DB-1912-401E-9B5B-A29F161A5995";
paths = (
{
closed = 1;
nodes = (
"250 0 LINE",
"271 153 LINE",
"182 153 LINE",
"244 591 LINE",
"67 591 LINE",
"-16 0 LINE"
);
},
{
closed = 1;
nodes = (
"81 573 LINE",
"225 573 LINE",
"163 134 LINE",
"252 134 LINE",
"236 18 LINE",
"3 18 LINE"
);
},
{
closed = 1;
nodes = (
"229 27 LINE",
"243 125 LINE",
"154 125 LINE",
"216 564 LINE",
"88 564 LINE",
"12 27 LINE"
);
}
);
userData = {
assembly = "SVTCA[0]	/* SetFreedomAndProjectionVectorToAxis */\012PUSHW[ ]	/* 4 values pushed */\0123 3 4 4 \012CALL[ ]	/* CallFunction */\012IUP[0]	/* InterpolateUntPts */\012IUP[1]	/* InterpolateUntPts */";
};
width = 314;
}
);
note = L;
rightKerningGroup = L;
unicode = 004C;
},
{
color = 11;
glyphname = Lcommaaccent;
lastChange = "2021-11-22 23:52:12 +0000";
layers = (
{
components = (
{
name = L;
}
);
layerId = "6544E2DB-1912-401E-9B5B-A29F161A5995";
paths = (
{
closed = 1;
nodes = (
"37 -428 OFFCURVE",
"96 -306 OFFCURVE",
"98 -238 CURVE SMOOTH",
"98 -190 OFFCURVE",
"81 -153 OFFCURVE",
"26 -153 CURVE SMOOTH",
"-22 -153 OFFCURVE",
"-52 -189 OFFCURVE",
"-55 -232 CURVE SMOOTH",
"-57 -257 OFFCURVE",
"-46 -275 OFFCURVE",
"-36 -288 CURVE",
"-32 -295 OFFCURVE",
"-28 -301 OFFCURVE",
"-27 -308 CURVE",
"-30 -333 OFFCURVE",
"-58 -372 OFFCURVE",
"-90 -396 CURVE",
"-73 -410 OFFCURVE",
"-60 -419 OFFCURVE",
"-51 -422 CURVE SMOOTH",
"-42 -426 OFFCURVE",
"-36 -428 OFFCURVE",
"-29 -428 CURVE SMOOTH"
);
},
{
closed = 1;
nodes = (
"-38 -411 OFFCURVE",
"-49 -411 OFFCURVE",
"-65 -396 CURVE",
"-40 -376 OFFCURVE",
"-15 -340 OFFCURVE",
"-12 -309 CURVE SMOOTH",
"-11 -294 OFFCURVE",
"-19 -287 OFFCURVE",
"-26 -276 CURVE SMOOTH",
"-34 -264 OFFCURVE",
"-42 -253 OFFCURVE",
"-41 -232 CURVE SMOOTH",
"-39 -199 OFFCURVE",
"-15 -169 OFFCURVE",
"24 -169 CURVE SMOOTH",
"71 -169 OFFCURVE",
"84 -204 OFFCURVE",
"83 -239 CURVE SMOOTH",
"81 -301 OFFCURVE",
"32 -411 OFFCURVE",
"-27 -411 CURVE SMOOTH"
);
},
{
closed = 1;
nodes = (
"28 -403 OFFCURVE",
"74 -299 OFFCURVE",
"76 -240 CURVE SMOOTH",
"75 -206 OFFCURVE",
"63 -177 OFFCURVE",
"24 -177 CURVE SMOOTH",
"-11 -177 OFFCURVE",
"-32 -203 OFFCURVE",
"-34 -232 CURVE SMOOTH",
"-36 -264 OFFCURVE",
"-3 -277 OFFCURVE",
"-5 -309 CURVE SMOOTH",
"-9 -341 OFFCURVE",
"-29 -377 OFFCURVE",
"-53 -396 CURVE",
"-46 -403 OFFCURVE",
"-36 -403 OFFCURVE",
"-27 -403 CURVE SMOOTH"
);
}
);
width = 314;
}
);
unicode = 013B;
},
{
color = 11;
glyphname = Lslash;
lastChange = "2021-11-22 23:52:12 +0000";
layers = (
{
layerId = "6544E2DB-1912-401E-9B5B-A29F161A5995";
paths = (
{
closed = 1;
nodes = (
"247 199 LINE",
"262 308 LINE",
"201 296 LINE",
"244 591 LINE",
"67 591 LINE",
"21 263 LINE",
"-31 254 LINE",
"-47 144 LINE",
"6 153 LINE",
"-16 0 LINE",
"250 0 LINE",
"271 153 LINE",
"182 153 LINE",
"187 187 LINE"
);
},
{
closed = 1;
nodes = (
"25 171 LINE",
"-30 160 LINE",
"-18 241 LINE",
"19 248 LINE",
"36 251 LINE",
"81 573 LINE",
"225 573 LINE",
"183 279 LINE",
"199 282 LINE",
"243 291 LINE",
"232 210 LINE",
"189 201 LINE",
"173 198 LINE",
"163 134 LINE",
"252 134 LINE",
"236 18 LINE",
"3 18 LINE"
);
},
{
closed = 1;
nodes = (
"88 564 LINE",
"12 27 LINE",
"229 27 LINE",
"243 125 LINE",
"154 125 LINE",
"216 564 LINE"
);
},
{
closed = 1;
nodes = (
"234 281 LINE",
"183 270 LINE",
"174 205 LINE",
"224 216 LINE"
);
},
{
closed = 1;
nodes = (
"-20 170 LINE",
"25 178 LINE",
"35 243 LINE",
"-10 235 LINE"
);
}
);
width = 314;
}
);
note = Lslash;
unicode = 0141;
},
{
glyphname = M;
lastChange = "2021-11-22 23:52:12 +0000";
layers = (
{
layerId = "6544E2DB-1912-401E-9B5B-A29F161A5995";
paths = (
{
closed = 1;
nodes = (
"476 0 LINE",
"559 591 LINE",
"329 591 LINE",
"298 483 LINE",
"299 591 LINE",
"69 591 LINE",
"-14 0 LINE"
);
},
{
closed = 1;
nodes = (
"84 573 LINE",
"281 573 LINE",
"281 357 LINE",
"342 573 LINE",
"538 573 LINE",
"460 18 LINE",
"319 18 LINE",
"352 255 LINE",
"289 18 LINE",
"178 18 LINE",
"181 255 LINE",
"148 18 LINE",
"6 18 LINE"
);
},
{
closed = 1;
nodes = (
"140 27 LINE",
"193 401 LINE",
"187 27 LINE",
"281 27 LINE",
"382 401 LINE",
"329 27 LINE",
"453 27 LINE",
"529 564 LINE",
"349 564 LINE",
"271 290 LINE",
"272 564 LINE",
"92 564 LINE",
"16 27 LINE"
);
}
);
userData = {
assembly = "SVTCA[0]	/* SetFreedomAndProjectionVectorToAxis */\012PUSHW[ ]	/* 1 value pushed */\0121 \012MDAP[1]	/* MoveDirectAbsPt */\012PUSHW[ ]	/* 1 value pushed */\0128 \012MDAP[1]	/* MoveDirectAbsPt */\012PUSHW[ ]	/* 1 value pushed */\01211 \012MDAP[1]	/* MoveDirectAbsPt */\012IUP[0]	/* InterpolateUntPts */\012IUP[1]	/* InterpolateUntPts */";
};
width = 549;
}
);
note = M;
unicode = 004D;
},
{
glyphname = N;
lastChange = "2021-11-22 23:52:12 +0000";
layers = (
{
layerId = "6544E2DB-1912-401E-9B5B-A29F161A5995";
paths = (
{
closed = 1;
nodes = (
"155 0 LINE",
"163 63 LINE",
"172 0 LINE",
"334 0 LINE",
"417 591 LINE",
"248 591 LINE",
"239 527 LINE",
"231 591 LINE",
"68 591 LINE",
"-15 0 LINE"
);
},
{
closed = 1;
nodes = (
"82 573 LINE",
"216 573 LINE",
"235 384 LINE",
"262 573 LINE",
"397 573 LINE",
"319 18 LINE",
"187 18 LINE",
"163 184 LINE",
"140 18 LINE",
"4 18 LINE"
);
},
{
closed = 1;
nodes = (
"133 27 LINE",
"165 250 LINE",
"195 27 LINE",
"312 27 LINE",
"388 564 LINE",
"269 564 LINE",
"234 314 LINE",
"208 564 LINE",
"90 564 LINE",
"14 27 LINE"
);
}
);
userData = {
assembly = "SVTCA[0]	/* SetFreedomAndProjectionVectorToAxis */\012PUSHW[ ]	/* 1 value pushed */\0121 \012MDAP[1]	/* MoveDirectAbsPt */\012PUSHW[ ]	/* 1 value pushed */\0128 \012MDAP[1]	/* MoveDirectAbsPt */\012IUP[0]	/* InterpolateUntPts */\012IUP[1]	/* InterpolateUntPts */";
};
width = 408;
}
);
note = N;
unicode = 004E;
},
{
color = 11;
glyphname = Ncommaaccent;
lastChange = "2021-11-22 23:52:12 +0000";
layers = (
{
components = (
{
name = N;
}
);
layerId = "6544E2DB-1912-401E-9B5B-A29F161A5995";
paths = (
{
closed = 1;
nodes = (
"37 -428 OFFCURVE",
"96 -306 OFFCURVE",
"98 -238 CURVE SMOOTH",
"98 -190 OFFCURVE",
"81 -153 OFFCURVE",
"26 -153 CURVE SMOOTH",
"-22 -153 OFFCURVE",
"-52 -189 OFFCURVE",
"-55 -232 CURVE SMOOTH",
"-57 -257 OFFCURVE",
"-46 -275 OFFCURVE",
"-36 -288 CURVE",
"-32 -295 OFFCURVE",
"-28 -301 OFFCURVE",
"-27 -308 CURVE",
"-30 -333 OFFCURVE",
"-58 -372 OFFCURVE",
"-90 -396 CURVE",
"-73 -410 OFFCURVE",
"-60 -419 OFFCURVE",
"-51 -422 CURVE SMOOTH",
"-42 -426 OFFCURVE",
"-36 -428 OFFCURVE",
"-29 -428 CURVE SMOOTH"
);
},
{
closed = 1;
nodes = (
"-38 -411 OFFCURVE",
"-49 -411 OFFCURVE",
"-65 -396 CURVE",
"-40 -376 OFFCURVE",
"-15 -340 OFFCURVE",
"-12 -309 CURVE SMOOTH",
"-11 -294 OFFCURVE",
"-19 -287 OFFCURVE",
"-26 -276 CURVE SMOOTH",
"-34 -264 OFFCURVE",
"-42 -253 OFFCURVE",
"-41 -232 CURVE SMOOTH",
"-39 -199 OFFCURVE",
"-15 -169 OFFCURVE",
"24 -169 CURVE SMOOTH",
"71 -169 OFFCURVE",
"84 -204 OFFCURVE",
"83 -239 CURVE SMOOTH",
"81 -301 OFFCURVE",
"32 -411 OFFCURVE",
"-27 -411 CURVE SMOOTH"
);
},
{
closed = 1;
nodes = (
"28 -403 OFFCURVE",
"74 -299 OFFCURVE",
"76 -240 CURVE SMOOTH",
"75 -206 OFFCURVE",
"63 -177 OFFCURVE",
"24 -177 CURVE SMOOTH",
"-11 -177 OFFCURVE",
"-32 -203 OFFCURVE",
"-34 -232 CURVE SMOOTH",
"-36 -264 OFFCURVE",
"-3 -277 OFFCURVE",
"-5 -309 CURVE SMOOTH",
"-9 -341 OFFCURVE",
"-29 -377 OFFCURVE",
"-53 -396 CURVE",
"-46 -403 OFFCURVE",
"-36 -403 OFFCURVE",
"-27 -403 CURVE SMOOTH"
);
}
);
width = 408;
}
);
unicode = 0145;
},
{
glyphname = Eng;
lastChange = "2021-11-22 23:52:12 +0000";
layers = (
{
layerId = "6544E2DB-1912-401E-9B5B-A29F161A5995";
paths = (
{
closed = 1;
nodes = (
"251.173 -233 OFFCURVE",
"305.378 -192.618 OFFCURVE",
"326 -56 CURVE SMOOTH",
"419 608 LINE",
"250 608 LINE",
"241 542 LINE",
"233 608 LINE",
"70 608 LINE",
"-15 0 LINE",
"147 0 LINE",
"138 -59 LINE SMOOTH",
"135.333 -73.667 OFFCURVE",
"133.667 -76 OFFCURVE",
"123 -76 CURVE SMOOTH",
"72 -76 LINE",
"50 -230 LINE",
"84.667 -232.667 OFFCURVE",
"112.667 -233 OFFCURVE",
"122 -233 CURVE SMOOTH"
);
},
{
closed = 1;
nodes = (
"100 -215 LINE SMOOTH",
"88.667 -215 OFFCURVE",
"79 -214.333 OFFCURVE",
"71 -213 CURVE",
"87 -94 LINE",
"120 -94 LINE SMOOTH",
"145.333 -94 OFFCURVE",
"152 -88.333 OFFCURVE",
"156 -59 CURVE SMOOTH",
"178 94 LINE",
"164 190 LINE",
"140 19 LINE",
"4 19 LINE",
"84 589 LINE",
"218 589 LINE",
"237 395 LINE",
"264 589 LINE",
"399 589 LINE",
"309 -56 LINE SMOOTH",
"290.946 -177.217 OFFCURVE",
"241.148 -215 OFFCURVE",
"124 -215 CURVE SMOOTH"
);
},
{
closed = 1;
nodes = (
"236.532 -205 OFFCURVE",
"285.165 -172.126 OFFCURVE",
"301 -56 CURVE SMOOTH",
"390 580 LINE",
"271 580 LINE",
"235 323 LINE",
"210 580 LINE",
"92 580 LINE",
"14 28 LINE",
"133 28 LINE",
"166 257 LINE",
"186 97 LINE",
"164 -59 LINE SMOOTH",
"158.667 -95 OFFCURVE",
"151 -104 OFFCURVE",
"119 -104 CURVE SMOOTH",
"94 -104 LINE",
"80 -204 LINE",
"84.667 -204.667 OFFCURVE",
"92.333 -205 OFFCURVE",
"103 -205 CURVE SMOOTH",
"126 -205 LINE SMOOTH"
);
}
);
userData = {
assembly = "PUSHW[ ]	/* 4 values pushed */\01250 6 8 4 \012CALL[ ]	/* CallFunction */\012PUSHW[ ]	/* 4 values pushed */\01214 6 40 4 \012CALL[ ]	/* CallFunction */\012PUSHW[ ]	/* 3 values pushed */\0126 8 14 \012SRP1[ ]	/* SetRefPoint1 */\012SRP2[ ]	/* SetRefPoint2 */\012IP[ ]	/* InterpolatePts */\012PUSHW[ ]	/* 3 values pushed */\01211 40 14 \012SRP1[ ]	/* SetRefPoint1 */\012SRP2[ ]	/* SetRefPoint2 */\012IP[ ]	/* InterpolatePts */\012PUSHW[ ]	/* 3 values pushed */\01234 40 14 \012SRP1[ ]	/* SetRefPoint1 */\012SRP2[ ]	/* SetRefPoint2 */\012IP[ ]	/* InterpolatePts */\012PUSHW[ ]	/* 1 value pushed */\01250 \012SRP0[ ]	/* SetRefPoint0 */\012PUSHW[ ]	/* 1 value pushed */\01238 \012MDRP[10000]	/* MoveDirectRelPt */\012PUSHW[ ]	/* 1 value pushed */\01238 \012MDAP[1]	/* MoveDirectAbsPt */\012PUSHW[ ]	/* 1 value pushed */\0128 \012SRP0[ ]	/* SetRefPoint0 */\012PUSHW[ ]	/* 2 values pushed */\01251 6 \012MIRP[10100]	/* MoveIndirectRelPt */\012PUSHW[ ]	/* 3 values pushed */\01255 40 14 \012SRP1[ ]	/* SetRefPoint1 */\012SRP2[ ]	/* SetRefPoint2 */\012IP[ ]	/* InterpolatePts */\012SVTCA[0]	/* SetFreedomAndProjectionVectorToAxis */\012PUSHW[ ]	/* 1 value pushed */\0127 \012MDAP[1]	/* MoveDirectAbsPt */\012IUP[0]	/* InterpolateUntPts */\012IUP[1]	/* InterpolateUntPts */";
};
width = 408;
}
);
note = Eng;
unicode = 014A;
},
{
glyphname = O;
lastChange = "2021-11-22 23:52:12 +0000";
layers = (
{
layerId = "6544E2DB-1912-401E-9B5B-A29F161A5995";
paths = (
{
closed = 1;
nodes = (
"282.295 -11 OFFCURVE",
"341.916 28.955 OFFCURVE",
"364 186 CURVE SMOOTH",
"401 451 LINE SMOOTH",
"415.667 560.333 OFFCURVE",
"356.333 601 OFFCURVE",
"247 601 CURVE SMOOTH",
"136.503 601 OFFCURVE",
"59.842 559.255 OFFCURVE",
"44 451 CURVE SMOOTH",
"7 185 LINE SMOOTH",
"-15.223 29.441 OFFCURVE",
"38.522 -11 OFFCURVE",
"161 -11 CURVE SMOOTH"
);
},
{
closed = 1;
nodes = (
"50.824 7 OFFCURVE",
"4.273 44.445 OFFCURVE",
"24 185 CURVE SMOOTH",
"61 451 LINE SMOOTH",
"74.333 547 OFFCURVE",
"144 583 OFFCURVE",
"244 583 CURVE SMOOTH",
"342.667 583 OFFCURVE",
"397.333 547 OFFCURVE",
"384 451 CURVE SMOOTH",
"347 186 LINE SMOOTH",
"327.459 44.329 OFFCURVE",
"272.178 7 OFFCURVE",
"163 7 CURVE SMOOTH"
);
},
{
closed = 1;
nodes = (
"269.255 16 OFFCURVE",
"318.261 50.294 OFFCURVE",
"338 186 CURVE SMOOTH",
"375 451 LINE SMOOTH",
"388.333 540.333 OFFCURVE",
"336.333 574 OFFCURVE",
"243 574 CURVE SMOOTH",
"148.333 574 OFFCURVE",
"83.333 541.667 OFFCURVE",
"70 451 CURVE SMOOTH",
"33 185 LINE SMOOTH",
"13.183 51.239 OFFCURVE",
"59.538 16 OFFCURVE",
"165 16 CURVE SMOOTH"
);
},
{
closed = 1;
nodes = (
"172.333 100 OFFCURVE",
"169 102 OFFCURVE",
"167 106 CURVE SMOOTH",
"165 110 OFFCURVE",
"164.667 117 OFFCURVE",
"166 127 CURVE SMOOTH",
"213 458 LINE SMOOTH",
"214.333 468.667 OFFCURVE",
"216.5 475.833 OFFCURVE",
"219.5 479.5 CURVE SMOOTH",
"222.5 483.167 OFFCURVE",
"226.333 485 OFFCURVE",
"231 485 CURVE SMOOTH",
"234.333 485 OFFCURVE",
"237 483.167 OFFCURVE",
"239 479.5 CURVE SMOOTH",
"241 475.833 OFFCURVE",
"241.333 468.667 OFFCURVE",
"240 458 CURVE SMOOTH",
"193 127 LINE SMOOTH",
"191.667 117 OFFCURVE",
"189.5 110 OFFCURVE",
"186.5 106 CURVE SMOOTH",
"183.5 102 OFFCURVE",
"180.333 100 OFFCURVE",
"177 100 CURVE SMOOTH"
);
},
{
closed = 1;
nodes = (
"179.333 109 OFFCURVE",
"180.667 110.333 OFFCURVE",
"182 113 CURVE SMOOTH",
"183.333 115.667 OFFCURVE",
"184.333 120.333 OFFCURVE",
"185 127 CURVE SMOOTH",
"232 458 LINE SMOOTH",
"233.333 465.333 OFFCURVE",
"233.5 470.167 OFFCURVE",
"232.5 472.5 CURVE SMOOTH",
"231.5 474.833 OFFCURVE",
"230.333 476 OFFCURVE",
"229 476 CURVE SMOOTH",
"227 476 OFFCURVE",
"225.5 474.833 OFFCURVE",
"224.5 472.5 CURVE SMOOTH",
"223.5 470.167 OFFCURVE",
"222.333 465.333 OFFCURVE",
"221 458 CURVE SMOOTH",
"174 127 LINE",
"173.333 115 OFFCURVE",
"174.667 109 OFFCURVE",
"178 109 CURVE SMOOTH"
);
}
);
width = 408;
}
);
note = O;
unicode = 004F;
},
{
color = 11;
glyphname = Obreve;
lastChange = "2021-11-22 23:53:49 +0000";
layers = (
{
components = (
{
name = O;
}
);
layerId = "6544E2DB-1912-401E-9B5B-A29F161A5995";
paths = (
{
closed = 1;
nodes = (
"264 640 OFFCURVE",
"305 686 OFFCURVE",
"310 754 CURVE",
"209 754 LINE",
"207 743 OFFCURVE",
"205 735 OFFCURVE",
"201 730 CURVE SMOOTH",
"197 725 OFFCURVE",
"193 722 OFFCURVE",
"188 722 CURVE SMOOTH",
"179 722 OFFCURVE",
"170 731 OFFCURVE",
"172 754 CURVE",
"71 754 LINE",
"67 696 OFFCURVE",
"90 640 OFFCURVE",
"181 640 CURVE SMOOTH"
);
},
{
closed = 1;
nodes = (
"105 653 OFFCURVE",
"83 696 OFFCURVE",
"86 741 CURVE",
"155 741 LINE",
"154 718 OFFCURVE",
"170 709 OFFCURVE",
"187 709 CURVE SMOOTH",
"204 709 OFFCURVE",
"221 718 OFFCURVE",
"223 741 CURVE",
"293 741 LINE",
"290 692 OFFCURVE",
"258 653 OFFCURVE",
"182 653 CURVE SMOOTH"
);
},
{
closed = 1;
nodes = (
"253 660 OFFCURVE",
"282 693 OFFCURVE",
"285 734 CURVE",
"231 734 LINE",
"225 691 OFFCURVE",
"144 691 OFFCURVE",
"147 734 CURVE",
"94 734 LINE",
"91 695 OFFCURVE",
"113 660 OFFCURVE",
"182 660 CURVE SMOOTH"
);
}
);
width = 408;
}
);
unicode = 014E;
},
{
color = 11;
glyphname = Oinvertedbreve;
lastChange = "2021-11-22 23:53:49 +0000";
layers = (
{
components = (
{
name = O;
}
);
layerId = "6544E2DB-1912-401E-9B5B-A29F161A5995";
paths = (
{
closed = 1;
nodes = (
"91 754 OFFCURVE",
"60 698 OFFCURVE",
"56 640 CURVE",
"157 640 LINE",
"159 663 OFFCURVE",
"168 672 OFFCURVE",
"177 672 CURVE SMOOTH",
"182 672 OFFCURVE",
"186 669 OFFCURVE",
"190 664 CURVE",
"192 659 OFFCURVE",
"194 651 OFFCURVE",
"194 640 CURVE",
"295 640 LINE",
"300 708 OFFCURVE",
"265 754 OFFCURVE",
"182 754 CURVE SMOOTH"
);
},
{
closed = 1;
nodes = (
"257 741 OFFCURVE",
"283 702 OFFCURVE",
"280 653 CURVE",
"210 653 LINE",
"212 676 OFFCURVE",
"195 685 OFFCURVE",
"178 685 CURVE SMOOTH",
"161 685 OFFCURVE",
"145 676 OFFCURVE",
"142 653 CURVE",
"73 653 LINE",
"76 698 OFFCURVE",
"104 741 OFFCURVE",
"181 741 CURVE SMOOTH"
);
},
{
closed = 1;
nodes = (
"112 734 OFFCURVE",
"84 699 OFFCURVE",
"81 660 CURVE",
"134 660 LINE",
"137 703 OFFCURVE",
"218 703 OFFCURVE",
"218 660 CURVE",
"272 660 LINE",
"275 701 OFFCURVE",
"252 734 OFFCURVE",
"181 734 CURVE SMOOTH"
);
}
);
width = 408;
}
);
unicode = 020E;
},
{
glyphname = Oslash;
lastChange = "2021-11-22 23:52:12 +0000";
layers = (
{
layerId = "6544E2DB-1912-401E-9B5B-A29F161A5995";
paths = (
{
closed = 1;
nodes = (
"53 -40 LINE",
"79 1 LINE",
"103 -8.333 OFFCURVE",
"130.667 -11 OFFCURVE",
"164 -11 CURVE SMOOTH",
"289.094 -11 OFFCURVE",
"348.756 28.821 OFFCURVE",
"371 187 CURVE SMOOTH",
"408 455 LINE SMOOTH",
"412 481.667 OFFCURVE",
"410.667 504 OFFCURVE",
"404 524 CURVE",
"474 634 LINE",
"354 634 LINE",
"330 596 LINE",
"308 602.667 OFFCURVE",
"281.667 606 OFFCURVE",
"251 606 CURVE SMOOTH",
"139.867 606 OFFCURVE",
"59.639 564.47 OFFCURVE",
"44 455 CURVE SMOOTH",
"7 186 LINE SMOOTH",
"0.333 139.333 OFFCURVE",
"1 106.333 OFFCURVE",
"9 77 CURVE",
"-64 -40 LINE"
);
},
{
closed = 1;
nodes = (
"185 110 OFFCURVE",
"188 116.333 OFFCURVE",
"190 129 CURVE SMOOTH",
"207 253 LINE",
"193 231 LINE",
"179 129 LINE SMOOTH",
"177 116.333 OFFCURVE",
"177.667 110 OFFCURVE",
"181 110 CURVE SMOOTH"
);
},
{
closed = 1;
nodes = (
"176 101 OFFCURVE",
"173 102.833 OFFCURVE",
"171 106.5 CURVE SMOOTH",
"169 110.167 OFFCURVE",
"168.667 117.667 OFFCURVE",
"170 129 CURVE SMOOTH",
"184 233 LINE",
"220 291 LINE",
"198 129 LINE SMOOTH",
"196.667 117.667 OFFCURVE",
"194.333 110.167 OFFCURVE",
"191 106.5 CURVE SMOOTH",
"187.667 102.833 OFFCURVE",
"184 101 OFFCURVE",
"180 101 CURVE SMOOTH"
);
},
{
closed = 1;
nodes = (
"28 76 LINE",
"19.333 102 OFFCURVE",
"18.333 138.667 OFFCURVE",
"25 186 CURVE SMOOTH",
"62 455 LINE SMOOTH",
"76.667 552.333 OFFCURVE",
"148 588 OFFCURVE",
"248 588 CURVE SMOOTH",
"282.667 588 OFFCURVE",
"311.667 583 OFFCURVE",
"335 573 CURVE",
"362 615 LINE",
"442 615 LINE",
"384 524 LINE",
"390.667 505.333 OFFCURVE",
"395 480.333 OFFCURVE",
"391 455 CURVE SMOOTH",
"354 187 LINE SMOOTH",
"334.248 43.795 OFFCURVE",
"277.492 7 OFFCURVE",
"166 7 CURVE SMOOTH",
"127.333 7 OFFCURVE",
"97 9.667 OFFCURVE",
"73 23 CURVE",
"44 -22 LINE",
"-34 -22 LINE"
);
},
{
closed = 1;
nodes = (
"40 -13 LINE",
"71 36 LINE",
"93.667 21.333 OFFCURVE",
"128 17 OFFCURVE",
"168 17 CURVE SMOOTH",
"274.772 17 OFFCURVE",
"325.285 51.459 OFFCURVE",
"345 187 CURVE SMOOTH",
"382 455 LINE SMOOTH",
"386.667 483 OFFCURVE",
"384 506.333 OFFCURVE",
"374 525 CURVE",
"426 606 LINE",
"366 606 LINE",
"338 561 LINE",
"314.667 573 OFFCURVE",
"284.333 579 OFFCURVE",
"247 579 CURVE SMOOTH",
"151 579 OFFCURVE",
"84.333 545.667 OFFCURVE",
"71 455 CURVE SMOOTH",
"34 186 LINE SMOOTH",
"27.333 138 OFFCURVE",
"28.667 103.667 OFFCURVE",
"38 77 CURVE",
"-18 -13 LINE"
);
},
{
closed = 1;
nodes = (
"216 462 LINE SMOOTH",
"217.333 472.667 OFFCURVE",
"219.667 479.833 OFFCURVE",
"223 483.5 CURVE SMOOTH",
"226.333 487.167 OFFCURVE",
"230 489 OFFCURVE",
"234 489 CURVE SMOOTH",
"238 489 OFFCURVE",
"241 487.167 OFFCURVE",
"243 483.5 CURVE SMOOTH",
"245 479.833 OFFCURVE",
"245.333 472.667 OFFCURVE",
"244 462 CURVE SMOOTH",
"232 376 LINE",
"196 319 LINE"
);
},
{
closed = 1;
nodes = (
"225 378 LINE",
"236 462 LINE SMOOTH",
"237.333 469.333 OFFCURVE",
"237.5 474.167 OFFCURVE",
"236.5 476.5 CURVE SMOOTH",
"235.5 478.833 OFFCURVE",
"234.333 480 OFFCURVE",
"233 480 CURVE SMOOTH",
"231.667 480 OFFCURVE",
"230.333 478.833 OFFCURVE",
"229 476.5 CURVE SMOOTH",
"227.667 474.167 OFFCURVE",
"226.333 469.333 OFFCURVE",
"225 462 CURVE SMOOTH",
"211 356 LINE"
);
}
);
userData = {
assembly = "PUSHW[ ]	/* 4 values pushed */\01272 6 56 4 \012CALL[ ]	/* CallFunction */\012PUSHW[ ]	/* 1 value pushed */\01256 \012SRP0[ ]	/* SetRefPoint0 */\012PUSHW[ ]	/* 1 value pushed */\01229 \012MDRP[10000]	/* MoveDirectRelPt */\012PUSHW[ ]	/* 1 value pushed */\01229 \012MDAP[1]	/* MoveDirectAbsPt */\012PUSHW[ ]	/* 3 values pushed */\01230 56 72 \012SRP1[ ]	/* SetRefPoint1 */\012SRP2[ ]	/* SetRefPoint2 */\012IP[ ]	/* InterpolatePts */\012PUSHW[ ]	/* 1 value pushed */\01256 \012SRP0[ ]	/* SetRefPoint0 */\012PUSHW[ ]	/* 1 value pushed */\01235 \012MDRP[10000]	/* MoveDirectRelPt */\012PUSHW[ ]	/* 1 value pushed */\01235 \012MDAP[1]	/* MoveDirectAbsPt */\012PUSHW[ ]	/* 3 values pushed */\01252 56 72 \012SRP1[ ]	/* SetRefPoint1 */\012SRP2[ ]	/* SetRefPoint2 */\012IP[ ]	/* InterpolatePts */\012PUSHW[ ]	/* 1 value pushed */\01256 \012SRP0[ ]	/* SetRefPoint0 */\012PUSHW[ ]	/* 1 value pushed */\01258 \012MDRP[10000]	/* MoveDirectRelPt */\012PUSHW[ ]	/* 1 value pushed */\01258 \012MDAP[1]	/* MoveDirectAbsPt */\012PUSHW[ ]	/* 1 value pushed */\01272 \012SRP0[ ]	/* SetRefPoint0 */\012PUSHW[ ]	/* 1 value pushed */\012116 \012MDRP[11100]	/* MoveDirectRelPt */\012SVTCA[0]	/* SetFreedomAndProjectionVectorToAxis */\012PUSHW[ ]	/* 3 values pushed */\012101 4 3 \012CALL[ ]	/* CallFunction */\012PUSHW[ ]	/* 4 values pushed */\01226 2 83 4 \012CALL[ ]	/* CallFunction */\012PUSHW[ ]	/* 4 values pushed */\01272 2 40 4 \012CALL[ ]	/* CallFunction */\012PUSHW[ ]	/* 1 value pushed */\01283 \012SRP0[ ]	/* SetRefPoint0 */\012PUSHW[ ]	/* 1 value pushed */\0120 \012MDRP[10000]	/* MoveDirectRelPt */\012PUSHW[ ]	/* 1 value pushed */\0120 \012MDAP[1]	/* MoveDirectAbsPt */\012PUSHW[ ]	/* 1 value pushed */\01272 \012SRP0[ ]	/* SetRefPoint0 */\012PUSHW[ ]	/* 1 value pushed */\01213 \012MDRP[10000]	/* MoveDirectRelPt */\012PUSHW[ ]	/* 1 value pushed */\01213 \012MDAP[1]	/* MoveDirectAbsPt */\012PUSHW[ ]	/* 1 value pushed */\012101 \012SRP0[ ]	/* SetRefPoint0 */\012PUSHW[ ]	/* 1 value pushed */\01216 \012MDRP[10000]	/* MoveDirectRelPt */\012PUSHW[ ]	/* 3 values pushed */\01230 4 101 \012SRP1[ ]	/* SetRefPoint1 */\012SRP2[ ]	/* SetRefPoint2 */\012IP[ ]	/* InterpolatePts */\012PUSHW[ ]	/* 3 values pushed */\01235 4 101 \012SRP1[ ]	/* SetRefPoint1 */\012SRP2[ ]	/* SetRefPoint2 */\012IP[ ]	/* InterpolatePts */\012PUSHW[ ]	/* 3 values pushed */\01252 4 101 \012SRP1[ ]	/* SetRefPoint1 */\012SRP2[ ]	/* SetRefPoint2 */\012IP[ ]	/* InterpolatePts */\012PUSHW[ ]	/* 3 values pushed */\01257 4 101 \012SRP1[ ]	/* SetRefPoint1 */\012SRP2[ ]	/* SetRefPoint2 */\012IP[ ]	/* InterpolatePts */\012PUSHW[ ]	/* 1 value pushed */\0124 \012SRP0[ ]	/* SetRefPoint0 */\012PUSHW[ ]	/* 1 value pushed */\01286 \012MDRP[10000]	/* MoveDirectRelPt */\012PUSHW[ ]	/* 1 value pushed */\01286 \012MDAP[1]	/* MoveDirectAbsPt */\012IUP[0]	/* InterpolateUntPts */\012IUP[1]	/* InterpolateUntPts */";
};
width = 414;
}
);
note = Oslash;
unicode = 00D8;
},
{
glyphname = OE;
lastChange = "2021-11-22 23:52:12 +0000";
layers = (
{
layerId = "6544E2DB-1912-401E-9B5B-A29F161A5995";
paths = (
{
closed = 1;
nodes = (
"200 -11 OFFCURVE",
"229.667 -8 OFFCURVE",
"255 0 CURVE",
"458 0 LINE",
"479 153 LINE",
"372 153 LINE",
"381 219 LINE",
"479 219 LINE",
"503 387 LINE",
"405 387 LINE",
"412 437 LINE",
"519 437 LINE",
"541 593 LINE",
"329 593 LINE",
"306.333 599.667 OFFCURVE",
"283.333 601 OFFCURVE",
"254 601 CURVE SMOOTH",
"140.908 601 OFFCURVE",
"60.935 559.891 OFFCURVE",
"45 451 CURVE SMOOTH",
"8 185 LINE SMOOTH",
"-14.39 28.268 OFFCURVE",
"42.167 -11 OFFCURVE",
"168 -11 CURVE SMOOTH"
);
},
{
closed = 1;
nodes = (
"179.333 100 OFFCURVE",
"176 102 OFFCURVE",
"174 106 CURVE SMOOTH",
"172 110 OFFCURVE",
"171.667 117 OFFCURVE",
"173 127 CURVE SMOOTH",
"220 458 LINE SMOOTH",
"221.333 468.667 OFFCURVE",
"223.5 475.833 OFFCURVE",
"226.5 479.5 CURVE SMOOTH",
"229.5 483.167 OFFCURVE",
"233.333 485 OFFCURVE",
"238 485 CURVE SMOOTH",
"242 485 OFFCURVE",
"245 483.167 OFFCURVE",
"247 479.5 CURVE SMOOTH",
"249 475.833 OFFCURVE",
"249.333 468.667 OFFCURVE",
"248 458 CURVE SMOOTH",
"201 127 LINE SMOOTH",
"199.667 117 OFFCURVE",
"197.5 110 OFFCURVE",
"194.5 106 CURVE SMOOTH",
"191.5 102 OFFCURVE",
"188 100 OFFCURVE",
"184 100 CURVE SMOOTH"
);
},
{
closed = 1;
nodes = (
"189 109 OFFCURVE",
"191.333 115 OFFCURVE",
"192 127 CURVE",
"239 458 LINE SMOOTH",
"240.333 465.333 OFFCURVE",
"240.5 470.167 OFFCURVE",
"239.5 472.5 CURVE SMOOTH",
"238.5 474.833 OFFCURVE",
"237.333 476 OFFCURVE",
"236 476 CURVE SMOOTH",
"234 476 OFFCURVE",
"232.667 474.833 OFFCURVE",
"232 472.5 CURVE SMOOTH",
"229 458 LINE",
"182 127 LINE",
"181.333 115 OFFCURVE",
"182.333 109 OFFCURVE",
"185 109 CURVE SMOOTH"
);
},
{
closed = 1;
nodes = (
"55.625 7 OFFCURVE",
"6.156 43.612 OFFCURVE",
"26 185 CURVE SMOOTH",
"63 451 LINE SMOOTH",
"76.333 547 OFFCURVE",
"148.333 583 OFFCURVE",
"251 583 CURVE SMOOTH",
"277.667 583 OFFCURVE",
"304.333 579 OFFCURVE",
"323 575 CURVE",
"520 575 LINE",
"503 455 LINE",
"396 455 LINE",
"384 369 LINE",
"482 369 LINE",
"464 237 LINE",
"366 237 LINE",
"351 135 LINE",
"458 135 LINE",
"442 18 LINE",
"253 18 LINE",
"230.333 10 OFFCURVE",
"200.667 7 OFFCURVE",
"170 7 CURVE SMOOTH"
);
},
{
closed = 1;
nodes = (
"202.667 16 OFFCURVE",
"229.333 19 OFFCURVE",
"252 27 CURVE",
"434 27 LINE",
"448 126 LINE",
"342 126 LINE",
"359 246 LINE",
"456 246 LINE",
"472 360 LINE",
"375 360 LINE",
"390 464 LINE",
"496 464 LINE",
"510 566 LINE",
"319 566 LINE",
"299.667 571.333 OFFCURVE",
"276.667 574 OFFCURVE",
"250 574 CURVE SMOOTH",
"152.667 574 OFFCURVE",
"84.333 541.667 OFFCURVE",
"71 451 CURVE SMOOTH",
"34 185 LINE SMOOTH",
"13.94 49.594 OFFCURVE",
"63.994 16 OFFCURVE",
"172 16 CURVE SMOOTH"
);
}
);
userData = {
assembly = "PUSHW[ ]	/* 4 values pushed */\01291 6 49 4 \012CALL[ ]	/* CallFunction */\012PUSHW[ ]	/* 4 values pushed */\01212 6 58 4 \012CALL[ ]	/* CallFunction */\012PUSHW[ ]	/* 3 values pushed */\01211 49 91 \012SRP1[ ]	/* SetRefPoint1 */\012SRP2[ ]	/* SetRefPoint2 */\012IP[ ]	/* InterpolatePts */\012PUSHW[ ]	/* 1 value pushed */\01211 \012MDAP[1]	/* MoveDirectAbsPt */\012PUSHW[ ]	/* 1 value pushed */\01258 \012SRP0[ ]	/* SetRefPoint0 */\012PUSHW[ ]	/* 1 value pushed */\01218 \012MDRP[10000]	/* MoveDirectRelPt */\012PUSHW[ ]	/* 1 value pushed */\01218 \012MDAP[1]	/* MoveDirectAbsPt */\012PUSHW[ ]	/* 1 value pushed */\01211 \012SRP0[ ]	/* SetRefPoint0 */\012PUSHW[ ]	/* 2 values pushed */\01241 6 \012MIRP[10100]	/* MoveIndirectRelPt */\012PUSHW[ ]	/* 1 value pushed */\01212 \012SRP0[ ]	/* SetRefPoint0 */\012PUSHW[ ]	/* 1 value pushed */\01263 \012MDRP[10000]	/* MoveDirectRelPt */\012PUSHW[ ]	/* 1 value pushed */\01263 \012MDAP[1]	/* MoveDirectAbsPt */\012PUSHW[ ]	/* 1 value pushed */\01212 \012SRP0[ ]	/* SetRefPoint0 */\012PUSHW[ ]	/* 1 value pushed */\01296 \012MDRP[10000]	/* MoveDirectRelPt */\012PUSHW[ ]	/* 1 value pushed */\01296 \012MDAP[1]	/* MoveDirectAbsPt */\012PUSHW[ ]	/* 1 value pushed */\01258 \012SRP0[ ]	/* SetRefPoint0 */\012PUSHW[ ]	/* 1 value pushed */\01299 \012MDRP[10000]	/* MoveDirectRelPt */\012PUSHW[ ]	/* 1 value pushed */\01299 \012MDAP[1]	/* MoveDirectAbsPt */\012PUSHW[ ]	/* 1 value pushed */\01212 \012SRP0[ ]	/* SetRefPoint0 */\012PUSHW[ ]	/* 1 value pushed */\012106 \012MDRP[11100]	/* MoveDirectRelPt */\012SVTCA[0]	/* SetFreedomAndProjectionVectorToAxis */\012PUSHW[ ]	/* 4 values pushed */\01225 2 54 4 \012CALL[ ]	/* CallFunction */\012PUSHW[ ]	/* 4 values pushed */\01220 3 21 4 \012CALL[ ]	/* CallFunction */\012PUSHW[ ]	/* 4 values pushed */\01211 2 32 4 \012CALL[ ]	/* CallFunction */\012PUSHW[ ]	/* 1 value pushed */\01254 \012SRP0[ ]	/* SetRefPoint0 */\012PUSHW[ ]	/* 1 value pushed */\0120 \012MDRP[10000]	/* MoveDirectRelPt */\012PUSHW[ ]	/* 1 value pushed */\0120 \012MDAP[1]	/* MoveDirectAbsPt */\012PUSHW[ ]	/* 1 value pushed */\01225 \012SRP0[ ]	/* SetRefPoint0 */\012PUSHW[ ]	/* 2 values pushed */\01222 2 \012MIRP[10100]	/* MoveIndirectRelPt */\012IUP[0]	/* InterpolateUntPts */\012IUP[1]	/* InterpolateUntPts */";
};
width = 517;
}
);
note = OE;
unicode = 0152;
},
{
glyphname = P;
lastChange = "2021-11-22 23:52:12 +0000";
layers = (
{
layerId = "6544E2DB-1912-401E-9B5B-A29F161A5995";
paths = (
{
closed = 1;
nodes = (
"179 0 LINE",
"207 203 LINE",
"245 203 LINE SMOOTH",
"342.567 203 OFFCURVE",
"381.51 285.869 OFFCURVE",
"395 383 CURVE SMOOTH",
"408 472 LINE SMOOTH",
"418.667 542.667 OFFCURVE",
"386.333 591 OFFCURVE",
"293 591 CURVE SMOOTH",
"68 591 LINE",
"-15 0 LINE"
);
},
{
closed = 1;
nodes = (
"83 573 LINE",
"290 573 LINE SMOOTH",
"371.333 573 OFFCURVE",
"399 532 OFFCURVE",
"391 472 CURVE SMOOTH",
"378 383 LINE SMOOTH",
"364.341 295.582 OFFCURVE",
"333.533 222 OFFCURVE",
"248 222 CURVE SMOOTH",
"193 222 LINE",
"164 18 LINE",
"5 18 LINE"
);
},
{
closed = 1;
nodes = (
"156 27 LINE",
"185 231 LINE",
"249 231 LINE SMOOTH",
"325.573 231 OFFCURVE",
"359.242 302.312 OFFCURVE",
"370 383 CURVE SMOOTH",
"383 472 LINE SMOOTH",
"389.667 526.667 OFFCURVE",
"365 564 OFFCURVE",
"289 564 CURVE SMOOTH",
"90 564 LINE",
"14 27 LINE"
);
},
{
closed = 1;
nodes = (
"221 488 LINE",
"234 488 LINE SMOOTH",
"241.333 488 OFFCURVE",
"244.833 481.333 OFFCURVE",
"244.5 468 CURVE SMOOTH",
"244.167 454.667 OFFCURVE",
"241.333 431.333 OFFCURVE",
"236 398 CURVE SMOOTH",
"231.333 364 OFFCURVE",
"226.667 340.667 OFFCURVE",
"222 328 CURVE SMOOTH",
"217.333 315.333 OFFCURVE",
"212 309 OFFCURVE",
"206 309 CURVE SMOOTH",
"196 309 LINE"
);
},
{
closed = 1;
nodes = (
"207 318 LINE SMOOTH",
"210.333 318 OFFCURVE",
"213.667 323.833 OFFCURVE",
"217 335.5 CURVE SMOOTH",
"220.333 347.167 OFFCURVE",
"224 368 OFFCURVE",
"228 398 CURVE SMOOTH",
"232.667 428 OFFCURVE",
"235.5 448.833 OFFCURVE",
"236.5 460.5 CURVE SMOOTH",
"237.5 472.167 OFFCURVE",
"236.333 478 OFFCURVE",
"233 478 CURVE SMOOTH",
"229 478 LINE",
"206 318 LINE"
);
}
);
userData = {
assembly = "SVTCA[0]	/* SetFreedomAndProjectionVectorToAxis */\012PUSHW[ ]	/* 1 value pushed */\01212 \012MDAP[1]	/* MoveDirectAbsPt */\012PUSHW[ ]	/* 4 values pushed */\01214 1 34 4 \012CALL[ ]	/* CallFunction */\012IUP[0]	/* InterpolateUntPts */\012IUP[1]	/* InterpolateUntPts */";
};
width = 412;
}
);
note = P;
unicode = 0050;
},
{
glyphname = Thorn;
lastChange = "2021-11-22 23:52:12 +0000";
layers = (
{
layerId = "6544E2DB-1912-401E-9B5B-A29F161A5995";
paths = (
{
closed = 1;
nodes = (
"179 0 LINE",
"195 115 LINE",
"233 115 LINE SMOOTH",
"330.567 115 OFFCURVE",
"369.51 197.869 OFFCURVE",
"383 295 CURVE SMOOTH",
"395 384 LINE SMOOTH",
"405.667 454.667 OFFCURVE",
"373.333 503 OFFCURVE",
"280 503 CURVE SMOOTH",
"250 503 LINE",
"263 591 LINE",
"68 591 LINE",
"-15 0 LINE"
);
},
{
closed = 1;
nodes = (
"83 573 LINE",
"243 573 LINE",
"231 485 LINE",
"278 485 LINE SMOOTH",
"359.333 485 OFFCURVE",
"387.333 444 OFFCURVE",
"378 384 CURVE SMOOTH",
"366 295 LINE SMOOTH",
"352.582 209.123 OFFCURVE",
"319.026 133 OFFCURVE",
"235 133 CURVE SMOOTH",
"180 133 LINE",
"164 18 LINE",
"5 18 LINE"
);
},
{
closed = 1;
nodes = (
"156 27 LINE",
"173 143 LINE",
"237 143 LINE SMOOTH",
"313.573 143 OFFCURVE",
"347.242 214.312 OFFCURVE",
"358 295 CURVE SMOOTH",
"370 384 LINE SMOOTH",
"378 438.667 OFFCURVE",
"352 476 OFFCURVE",
"276 476 CURVE SMOOTH",
"220 476 LINE",
"233 564 LINE",
"90 564 LINE",
"14 27 LINE"
);
},
{
closed = 1;
nodes = (
"209 399 LINE",
"222 399 LINE SMOOTH",
"229.333 399 OFFCURVE",
"232.667 392.5 OFFCURVE",
"232 379.5 CURVE SMOOTH",
"231.333 366.5 OFFCURVE",
"228.667 343.333 OFFCURVE",
"224 310 CURVE SMOOTH",
"219.333 276 OFFCURVE",
"214.667 252.667 OFFCURVE",
"210 240 CURVE SMOOTH",
"205.333 227.333 OFFCURVE",
"200 221 OFFCURVE",
"194 221 CURVE SMOOTH",
"184 221 LINE"
);
},
{
closed = 1;
nodes = (
"195 230 LINE SMOOTH",
"198.333 230 OFFCURVE",
"201.667 235.833 OFFCURVE",
"205 247.5 CURVE SMOOTH",
"208.333 259.167 OFFCURVE",
"212 280 OFFCURVE",
"216 310 CURVE SMOOTH",
"220 340 OFFCURVE",
"222.5 360.833 OFFCURVE",
"223.5 372.5 CURVE SMOOTH",
"224.5 384.167 OFFCURVE",
"223.333 390 OFFCURVE",
"220 390 CURVE SMOOTH",
"216 390 LINE",
"194 230 LINE"
);
}
);
userData = {
assembly = "SVTCA[0]	/* SetFreedomAndProjectionVectorToAxis */\012PUSHW[ ]	/* 1 value pushed */\01214 \012MDAP[1]	/* MoveDirectAbsPt */\012IUP[0]	/* InterpolateUntPts */\012IUP[1]	/* InterpolateUntPts */";
};
width = 409;
}
);
note = Thorn;
unicode = 00DE;
},
{
glyphname = Q;
lastChange = "2021-11-22 23:52:12 +0000";
layers = (
{
layerId = "6544E2DB-1912-401E-9B5B-A29F161A5995";
paths = (
{
closed = 1;
nodes = (
"345 -45 LINE",
"328.5 -3 LINE SMOOTH",
"322.167 13.667 OFFCURVE",
"316 29 OFFCURVE",
"310 43 CURVE",
"336.667 73.667 OFFCURVE",
"354.333 120 OFFCURVE",
"365 188 CURVE SMOOTH",
"403 457 LINE SMOOTH",
"418.772 567.401 OFFCURVE",
"358.937 610 OFFCURVE",
"248 610 CURVE SMOOTH",
"137.351 610 OFFCURVE",
"60.803 567.62 OFFCURVE",
"45 457 CURVE SMOOTH",
"7 188 LINE SMOOTH",
"-15.186 32.695 OFFCURVE",
"34.937 -7.998 OFFCURVE",
"152 -11 CURVE",
"199 -129 LINE"
);
},
{
closed = 1;
nodes = (
"163 7 LINE",
"50.302 7 OFFCURVE",
"4.545 44.52 OFFCURVE",
"24 188 CURVE SMOOTH",
"62 457 LINE SMOOTH",
"76.667 555.667 OFFCURVE",
"146 591 OFFCURVE",
"246 591 CURVE SMOOTH",
"347.244 591 OFFCURVE",
"399.231 554.906 OFFCURVE",
"386 457 CURVE SMOOTH",
"348 188 LINE SMOOTH",
"337.333 114.667 OFFCURVE",
"318 71.667 OFFCURVE",
"290 45 CURVE",
"300.667 18.333 OFFCURVE",
"312.667 -13.667 OFFCURVE",
"322 -39 CURVE",
"209 -104 LINE"
);
},
{
closed = 1;
nodes = (
"311 -35 LINE",
"279 46 LINE",
"307 71.333 OFFCURVE",
"328.333 113.333 OFFCURVE",
"339 188 CURVE SMOOTH",
"377 457 LINE SMOOTH",
"390.333 549 OFFCURVE",
"337.333 582 OFFCURVE",
"244 582 CURVE SMOOTH",
"149.333 582 OFFCURVE",
"84.333 549 OFFCURVE",
"71 457 CURVE SMOOTH",
"33 188 LINE SMOOTH",
"13.247 52.199 OFFCURVE",
"59.744 17 OFFCURVE",
"165 17 CURVE SMOOTH",
"171 17 LINE",
"214 -91 LINE"
);
},
{
closed = 1;
nodes = (
"172.333 102 OFFCURVE",
"169.167 103.833 OFFCURVE",
"167.5 107.5 CURVE SMOOTH",
"165.833 111.167 OFFCURVE",
"165.667 118.333 OFFCURVE",
"167 129 CURVE SMOOTH",
"214 465 LINE SMOOTH",
"215.333 475.667 OFFCURVE",
"217.5 482.833 OFFCURVE",
"220.5 486.5 CURVE SMOOTH",
"223.5 490.167 OFFCURVE",
"227.333 492 OFFCURVE",
"232 492 CURVE SMOOTH",
"236 492 OFFCURVE",
"239 490.167 OFFCURVE",
"241 486.5 CURVE SMOOTH",
"243 482.833 OFFCURVE",
"243.333 475.667 OFFCURVE",
"242 465 CURVE SMOOTH",
"195 129 LINE SMOOTH",
"193.667 118.333 OFFCURVE",
"191.333 111.167 OFFCURVE",
"188 107.5 CURVE SMOOTH",
"184.667 103.833 OFFCURVE",
"181 102 OFFCURVE",
"177 102 CURVE SMOOTH"
);
},
{
closed = 1;
nodes = (
"179.333 111 OFFCURVE",
"180.667 112.167 OFFCURVE",
"182 114.5 CURVE SMOOTH",
"183.333 116.833 OFFCURVE",
"184.667 121.667 OFFCURVE",
"186 129 CURVE SMOOTH",
"233 465 LINE SMOOTH",
"234.333 472.333 OFFCURVE",
"234.5 477.167 OFFCURVE",
"233.5 479.5 CURVE SMOOTH",
"232.5 481.833 OFFCURVE",
"231.333 483 OFFCURVE",
"230 483 CURVE SMOOTH",
"228.667 483 OFFCURVE",
"227.5 481.833 OFFCURVE",
"226.5 479.5 CURVE SMOOTH",
"225.5 477.167 OFFCURVE",
"224.333 472.333 OFFCURVE",
"223 465 CURVE SMOOTH",
"176 129 LINE SMOOTH",
"174.667 121.667 OFFCURVE",
"174.333 116.833 OFFCURVE",
"175 114.5 CURVE SMOOTH",
"175.667 112.167 OFFCURVE",
"176.667 111 OFFCURVE",
"178 111 CURVE SMOOTH"
);
}
);
userData = {
assembly = "PUSHW[ ]	/* 4 values pushed */\01249 6 34 4 \012CALL[ ]	/* CallFunction */\012PUSHW[ ]	/* 1 value pushed */\01234 \012SRP0[ ]	/* SetRefPoint0 */\012PUSHW[ ]	/* 1 value pushed */\01237 \012MDRP[10000]	/* MoveDirectRelPt */\012PUSHW[ ]	/* 1 value pushed */\01237 \012MDAP[1]	/* MoveDirectAbsPt */\012PUSHW[ ]	/* 1 value pushed */\01249 \012SRP0[ ]	/* SetRefPoint0 */\012PUSHW[ ]	/* 1 value pushed */\01297 \012MDRP[11100]	/* MoveDirectRelPt */\012IUP[0]	/* InterpolateUntPts */\012IUP[1]	/* InterpolateUntPts */";
};
width = 412;
}
);
note = Q;
unicode = 0051;
},
{
glyphname = R;
lastChange = "2021-11-22 23:52:12 +0000";
layers = (
{
layerId = "6544E2DB-1912-401E-9B5B-A29F161A5995";
paths = (
{
closed = 1;
nodes = (
"397 0 LINE",
"373 229 LINE",
"366.333 255.667 OFFCURVE",
"364 268 OFFCURVE",
"356 280 CURVE",
"392 306.667 OFFCURVE",
"405.333 347.333 OFFCURVE",
"412 390 CURVE SMOOTH",
"424 472 LINE SMOOTH",
"435.237 545.038 OFFCURVE",
"396.939 591 OFFCURVE",
"306 591 CURVE SMOOTH",
"79 591 LINE",
"-4 0 LINE"
);
},
{
closed = 1;
nodes = (
"93 573 LINE",
"303 573 LINE SMOOTH",
"385.667 573 OFFCURVE",
"414 530.667 OFFCURVE",
"406 472 CURVE SMOOTH",
"394 390 LINE SMOOTH",
"387.333 347.333 OFFCURVE",
"367.333 303.667 OFFCURVE",
"326 281 CURVE",
"340.667 271.667 OFFCURVE",
"348 256.667 OFFCURVE",
"356 218 CURVE",
"377 18 LINE",
"209 22 LINE",
"207.667 48.667 OFFCURVE",
"206 72.667 OFFCURVE",
"204 94 CURVE SMOOTH",
"202.667 112 OFFCURVE",
"201.333 128.833 OFFCURVE",
"200 144.5 CURVE SMOOTH",
"198 172 LINE",
"176 18 LINE",
"15 18 LINE"
);
},
{
closed = 1;
nodes = (
"169 27 LINE",
"203 265 LINE",
"204 265 LINE",
"204 258.566 OFFCURVE",
"206.552 173.856 OFFCURVE",
"208 142 CURVE SMOOTH",
"213 27 LINE",
"367 27 LINE",
"347 222 LINE",
"337.691 263.893 OFFCURVE",
"324.687 276.789 OFFCURVE",
"299 280 CURVE",
"357.667 294.667 OFFCURVE",
"379.333 339.333 OFFCURVE",
"386 390 CURVE SMOOTH",
"398 472 LINE SMOOTH",
"404.667 526.667 OFFCURVE",
"378 564 OFFCURVE",
"302 564 CURVE SMOOTH",
"101 564 LINE",
"25 27 LINE"
);
},
{
closed = 1;
nodes = (
"234 488 LINE",
"247 488 LINE SMOOTH",
"254.333 488 OFFCURVE",
"257.833 481.333 OFFCURVE",
"257.5 468 CURVE SMOOTH",
"257.167 454.667 OFFCURVE",
"254.333 431.333 OFFCURVE",
"249 398 CURVE SMOOTH",
"244.333 364.667 OFFCURVE",
"239.833 343 OFFCURVE",
"235.5 333 CURVE SMOOTH",
"231.167 323 OFFCURVE",
"226 318 OFFCURVE",
"220 318 CURVE SMOOTH",
"210 318 LINE"
);
},
{
closed = 1;
nodes = (
"221 327 LINE SMOOTH",
"223.667 327 OFFCURVE",
"226.667 331.5 OFFCURVE",
"230 340.5 CURVE SMOOTH",
"233.333 349.5 OFFCURVE",
"237 368.667 OFFCURVE",
"241 398 CURVE SMOOTH",
"245.667 428 OFFCURVE",
"248.5 448.833 OFFCURVE",
"249.5 460.5 CURVE SMOOTH",
"250.5 472.167 OFFCURVE",
"249.333 478 OFFCURVE",
"246 478 CURVE SMOOTH",
"241 478 LINE",
"219 327 LINE"
);
}
);
userData = {
assembly = "SVTCA[0]	/* SetFreedomAndProjectionVectorToAxis */\012PUSHW[ ]	/* 1 value pushed */\01214 \012MDAP[1]	/* MoveDirectAbsPt */\012PUSHW[ ]	/* 1 value pushed */\01224 \012MDAP[1]	/* MoveDirectAbsPt */\012PUSHW[ ]	/* 1 value pushed */\01251 \012MDAP[1]	/* MoveDirectAbsPt */\012IUP[0]	/* InterpolateUntPts */\012IUP[1]	/* InterpolateUntPts */";
};
width = 436;
}
);
note = R;
rightKerningGroup = parenright;
unicode = 0052;
},
{
color = 11;
glyphname = Rcommaaccent;
lastChange = "2021-11-22 23:52:12 +0000";
layers = (
{
components = (
{
name = R;
}
);
layerId = "6544E2DB-1912-401E-9B5B-A29F161A5995";
paths = (
{
closed = 1;
nodes = (
"37 -428 OFFCURVE",
"96 -306 OFFCURVE",
"98 -238 CURVE SMOOTH",
"98 -190 OFFCURVE",
"81 -153 OFFCURVE",
"26 -153 CURVE SMOOTH",
"-22 -153 OFFCURVE",
"-52 -189 OFFCURVE",
"-55 -232 CURVE SMOOTH",
"-57 -257 OFFCURVE",
"-46 -275 OFFCURVE",
"-36 -288 CURVE",
"-32 -295 OFFCURVE",
"-28 -301 OFFCURVE",
"-27 -308 CURVE",
"-30 -333 OFFCURVE",
"-58 -372 OFFCURVE",
"-90 -396 CURVE",
"-73 -410 OFFCURVE",
"-60 -419 OFFCURVE",
"-51 -422 CURVE SMOOTH",
"-42 -426 OFFCURVE",
"-36 -428 OFFCURVE",
"-29 -428 CURVE SMOOTH"
);
},
{
closed = 1;
nodes = (
"-38 -411 OFFCURVE",
"-49 -411 OFFCURVE",
"-65 -396 CURVE",
"-40 -376 OFFCURVE",
"-15 -340 OFFCURVE",
"-12 -309 CURVE SMOOTH",
"-11 -294 OFFCURVE",
"-19 -287 OFFCURVE",
"-26 -276 CURVE SMOOTH",
"-34 -264 OFFCURVE",
"-42 -253 OFFCURVE",
"-41 -232 CURVE SMOOTH",
"-39 -199 OFFCURVE",
"-15 -169 OFFCURVE",
"24 -169 CURVE SMOOTH",
"71 -169 OFFCURVE",
"84 -204 OFFCURVE",
"83 -239 CURVE SMOOTH",
"81 -301 OFFCURVE",
"32 -411 OFFCURVE",
"-27 -411 CURVE SMOOTH"
);
},
{
closed = 1;
nodes = (
"28 -403 OFFCURVE",
"74 -299 OFFCURVE",
"76 -240 CURVE SMOOTH",
"75 -206 OFFCURVE",
"63 -177 OFFCURVE",
"24 -177 CURVE SMOOTH",
"-11 -177 OFFCURVE",
"-32 -203 OFFCURVE",
"-34 -232 CURVE SMOOTH",
"-36 -264 OFFCURVE",
"-3 -277 OFFCURVE",
"-5 -309 CURVE SMOOTH",
"-9 -341 OFFCURVE",
"-29 -377 OFFCURVE",
"-53 -396 CURVE",
"-46 -403 OFFCURVE",
"-36 -403 OFFCURVE",
"-27 -403 CURVE SMOOTH"
);
}
);
width = 436;
}
);
unicode = 0156;
},
{
color = 11;
glyphname = Rinvertedbreve;
lastChange = "2021-11-22 23:53:49 +0000";
layers = (
{
components = (
{
name = R;
}
);
layerId = "6544E2DB-1912-401E-9B5B-A29F161A5995";
paths = (
{
closed = 1;
nodes = (
"91 754 OFFCURVE",
"60 698 OFFCURVE",
"56 640 CURVE",
"157 640 LINE",
"159 663 OFFCURVE",
"168 672 OFFCURVE",
"177 672 CURVE SMOOTH",
"182 672 OFFCURVE",
"186 669 OFFCURVE",
"190 664 CURVE",
"192 659 OFFCURVE",
"194 651 OFFCURVE",
"194 640 CURVE",
"295 640 LINE",
"300 708 OFFCURVE",
"265 754 OFFCURVE",
"182 754 CURVE SMOOTH"
);
},
{
closed = 1;
nodes = (
"257 741 OFFCURVE",
"283 702 OFFCURVE",
"280 653 CURVE",
"210 653 LINE",
"212 676 OFFCURVE",
"195 685 OFFCURVE",
"178 685 CURVE SMOOTH",
"161 685 OFFCURVE",
"145 676 OFFCURVE",
"142 653 CURVE",
"73 653 LINE",
"76 698 OFFCURVE",
"104 741 OFFCURVE",
"181 741 CURVE SMOOTH"
);
},
{
closed = 1;
nodes = (
"112 734 OFFCURVE",
"84 699 OFFCURVE",
"81 660 CURVE",
"134 660 LINE",
"137 703 OFFCURVE",
"218 703 OFFCURVE",
"218 660 CURVE",
"272 660 LINE",
"275 701 OFFCURVE",
"252 734 OFFCURVE",
"181 734 CURVE SMOOTH"
);
}
);
width = 436;
}
);
unicode = 0212;
},
{
glyphname = S;
lastChange = "2021-11-22 23:52:12 +0000";
layers = (
{
layerId = "6544E2DB-1912-401E-9B5B-A29F161A5995";
paths = (
{
closed = 1;
nodes = (
"289.883 -7 OFFCURVE",
"364.533 44.85 OFFCURVE",
"385 183 CURVE SMOOTH",
"399.682 275.984 OFFCURVE",
"382.505 316.922 OFFCURVE",
"326 348 CURVE",
"402 348 LINE",
"415 436 LINE SMOOTH",
"429.667 541.333 OFFCURVE",
"376 594 OFFCURVE",
"254 594 CURVE SMOOTH",
"115.453 594 OFFCURVE",
"62.646 546.853 OFFCURVE",
"44 411 CURVE SMOOTH",
"30.667 316.333 OFFCURVE",
"45 262 OFFCURVE",
"117 226 CURVE",
"118 225 LINE",
"14 225 LINE",
"8 181 LINE SMOOTH",
"-12.246 36.744 OFFCURVE",
"37.339 -7 OFFCURVE",
"165 -7 CURVE SMOOTH"
);
},
{
closed = 1;
nodes = (
"189.333 110 OFFCURVE",
"192 112.5 OFFCURVE",
"194 117.5 CURVE SMOOTH",
"196 122.5 OFFCURVE",
"198.333 133.667 OFFCURVE",
"201 151 CURVE SMOOTH",
"203.667 176.333 OFFCURVE",
"200.667 191.667 OFFCURVE",
"190 205 CURVE",
"184 158 LINE SMOOTH",
"180.667 137.333 OFFCURVE",
"179.333 124.167 OFFCURVE",
"180 118.5 CURVE SMOOTH",
"180.667 112.833 OFFCURVE",
"182.667 110 OFFCURVE",
"186 110 CURVE SMOOTH"
);
},
{
closed = 1;
nodes = (
"51.633 11 OFFCURVE",
"7.154 50.978 OFFCURVE",
"25 181 CURVE SMOOTH",
"29 207 LINE",
"187 207 LINE",
"173.667 219 OFFCURVE",
"155 228.333 OFFCURVE",
"127 243 CURVE SMOOTH",
"61.667 275 OFFCURVE",
"50 325.667 OFFCURVE",
"62 411 CURVE SMOOTH",
"78.056 531.417 OFFCURVE",
"125.593 576 OFFCURVE",
"251 576 CURVE SMOOTH",
"361.667 576 OFFCURVE",
"410.667 529.333 OFFCURVE",
"398 436 CURVE SMOOTH",
"388 366 LINE",
"240 366 LINE",
"246.667 360.667 OFFCURVE",
"256.333 356.667 OFFCURVE",
"267 354 CURVE",
"266 355 LINE",
"267.333 354.333 OFFCURVE",
"269.167 353.5 OFFCURVE",
"271.5 352.5 CURVE SMOOTH",
"277 350 LINE",
"278 349 LINE",
"358.076 314.682 OFFCURVE",
"383.362 290.535 OFFCURVE",
"368 183 CURVE SMOOTH",
"350.069 57.482 OFFCURVE",
"280.149 11 OFFCURVE",
"167 11 CURVE SMOOTH"
);
},
{
closed = 1;
nodes = (
"274.82 20 OFFCURVE",
"343.46 63.858 OFFCURVE",
"359 183 CURVE SMOOTH",
"374.199 284.327 OFFCURVE",
"349.512 309.828 OFFCURVE",
"273 341 CURVE SMOOTH",
"233.777 359.103 OFFCURVE",
"205.922 362.145 OFFCURVE",
"214 416 CURVE SMOOTH",
"218 442.667 OFFCURVE",
"223.333 465 OFFCURVE",
"238 465 CURVE SMOOTH",
"247.333 465 OFFCURVE",
"251.667 458.667 OFFCURVE",
"251 446 CURVE SMOOTH",
"250.333 433.333 OFFCURVE",
"248.333 414.667 OFFCURVE",
"245 390 CURVE SMOOTH",
"243 376 LINE",
"380 376 LINE",
"389 436 LINE SMOOTH",
"401 522.667 OFFCURVE",
"354.667 566 OFFCURVE",
"250 566 CURVE SMOOTH",
"131.126 566 OFFCURVE",
"86.146 526.711 OFFCURVE",
"70 411 CURVE SMOOTH",
"59.333 328.333 OFFCURVE",
"69.667 281.667 OFFCURVE",
"131 251 CURVE SMOOTH",
"191.826 220.587 OFFCURVE",
"217.016 209.787 OFFCURVE",
"209 151 CURVE SMOOTH",
"205.667 129.667 OFFCURVE",
"202.5 116 OFFCURVE",
"199.5 110 CURVE SMOOTH",
"196.5 104 OFFCURVE",
"191.667 101 OFFCURVE",
"185 101 CURVE SMOOTH",
"179 101 OFFCURVE",
"175 104.333 OFFCURVE",
"173 111 CURVE SMOOTH",
"171 117.667 OFFCURVE",
"171.667 133.333 OFFCURVE",
"175 158 CURVE SMOOTH",
"180 198 LINE",
"36 198 LINE",
"34 181 LINE SMOOTH",
"16.432 58.025 OFFCURVE",
"58.683 20 OFFCURVE",
"168 20 CURVE SMOOTH"
);
},
{
closed = 1;
nodes = (
"236 390 LINE SMOOTH",
"239.333 411.333 OFFCURVE",
"241.5 427.667 OFFCURVE",
"242.5 439 CURVE SMOOTH",
"243.5 450.333 OFFCURVE",
"241.667 456 OFFCURVE",
"237 456 CURVE SMOOTH",
"233 456 OFFCURVE",
"229.833 452 OFFCURVE",
"227.5 444 CURVE SMOOTH",
"225.167 436 OFFCURVE",
"223.333 426.667 OFFCURVE",
"222 416 CURVE SMOOTH",
"219.333 393.333 OFFCURVE",
"223.333 380.333 OFFCURVE",
"234 371 CURVE"
);
}
);
userData = {
assembly = "PUSHW[ ]	/* 4 values pushed */\012113 6 70 4 \012CALL[ ]	/* CallFunction */\012PUSHW[ ]	/* 3 values pushed */\01260 70 113 \012SRP1[ ]	/* SetRefPoint1 */\012SRP2[ ]	/* SetRefPoint2 */\012IP[ ]	/* InterpolatePts */\012PUSHW[ ]	/* 3 values pushed */\01280 70 113 \012SRP1[ ]	/* SetRefPoint1 */\012SRP2[ ]	/* SetRefPoint2 */\012IP[ ]	/* InterpolatePts */\012PUSHW[ ]	/* 1 value pushed */\012113 \012SRP0[ ]	/* SetRefPoint0 */\012PUSHW[ ]	/* 1 value pushed */\012144 \012MDRP[11100]	/* MoveDirectRelPt */\012SVTCA[0]	/* SetFreedomAndProjectionVectorToAxis */\012PUSHW[ ]	/* 4 values pushed */\01221 2 10 4 \012CALL[ ]	/* CallFunction */\012PUSHW[ ]	/* 4 values pushed */\01237 3 45 4 \012CALL[ ]	/* CallFunction */\012IUP[0]	/* InterpolateUntPts */\012IUP[1]	/* InterpolateUntPts */";
};
width = 431;
}
);
leftKerningGroup = S;
note = S;
unicode = 0053;
},
{
color = 11;
glyphname = Scommaaccent;
lastChange = "2021-11-22 23:52:12 +0000";
layers = (
{
components = (
{
name = S;
}
);
layerId = "6544E2DB-1912-401E-9B5B-A29F161A5995";
paths = (
{
closed = 1;
nodes = (
"37 -428 OFFCURVE",
"96 -306 OFFCURVE",
"98 -238 CURVE SMOOTH",
"98 -190 OFFCURVE",
"81 -153 OFFCURVE",
"26 -153 CURVE SMOOTH",
"-22 -153 OFFCURVE",
"-52 -189 OFFCURVE",
"-55 -232 CURVE SMOOTH",
"-57 -257 OFFCURVE",
"-46 -275 OFFCURVE",
"-36 -288 CURVE",
"-32 -295 OFFCURVE",
"-28 -301 OFFCURVE",
"-27 -308 CURVE",
"-30 -333 OFFCURVE",
"-58 -372 OFFCURVE",
"-90 -396 CURVE",
"-73 -410 OFFCURVE",
"-60 -419 OFFCURVE",
"-51 -422 CURVE SMOOTH",
"-42 -426 OFFCURVE",
"-36 -428 OFFCURVE",
"-29 -428 CURVE SMOOTH"
);
},
{
closed = 1;
nodes = (
"-38 -411 OFFCURVE",
"-49 -411 OFFCURVE",
"-65 -396 CURVE",
"-40 -376 OFFCURVE",
"-15 -340 OFFCURVE",
"-12 -309 CURVE SMOOTH",
"-11 -294 OFFCURVE",
"-19 -287 OFFCURVE",
"-26 -276 CURVE SMOOTH",
"-34 -264 OFFCURVE",
"-42 -253 OFFCURVE",
"-41 -232 CURVE SMOOTH",
"-39 -199 OFFCURVE",
"-15 -169 OFFCURVE",
"24 -169 CURVE SMOOTH",
"71 -169 OFFCURVE",
"84 -204 OFFCURVE",
"83 -239 CURVE SMOOTH",
"81 -301 OFFCURVE",
"32 -411 OFFCURVE",
"-27 -411 CURVE SMOOTH"
);
},
{
closed = 1;
nodes = (
"28 -403 OFFCURVE",
"74 -299 OFFCURVE",
"76 -240 CURVE SMOOTH",
"75 -206 OFFCURVE",
"63 -177 OFFCURVE",
"24 -177 CURVE SMOOTH",
"-11 -177 OFFCURVE",
"-32 -203 OFFCURVE",
"-34 -232 CURVE SMOOTH",
"-36 -264 OFFCURVE",
"-3 -277 OFFCURVE",
"-5 -309 CURVE SMOOTH",
"-9 -341 OFFCURVE",
"-29 -377 OFFCURVE",
"-53 -396 CURVE",
"-46 -403 OFFCURVE",
"-36 -403 OFFCURVE",
"-27 -403 CURVE SMOOTH"
);
}
);
width = 431;
}
);
unicode = 0218;
},
{
color = 9;
glyphname = Germandbls;
lastChange = "2021-11-22 23:52:12 +0000";
layers = (
{
layerId = "6544E2DB-1912-401E-9B5B-A29F161A5995";
paths = (
{
closed = 1;
nodes = (
"21 1 OFFCURVE",
"5 1 OFFCURVE",
"197 0 CURVE",
"267 0 LINE SMOOTH",
"374 0 OFFCURVE",
"441 39 OFFCURVE",
"456 151 CURVE SMOOTH",
"467 228 LINE SMOOTH",
"475 285 OFFCURVE",
"464 325 OFFCURVE",
"434 347 CURVE",
"464 372 OFFCURVE",
"478 407 OFFCURVE",
"484 450 CURVE SMOOTH",
"493 513 LINE SMOOTH",
"504 592 OFFCURVE",
"435 642 OFFCURVE",
"322 642 CURVE SMOOTH",
"189 642 OFFCURVE",
"101 621 OFFCURVE",
"81 497 CURVE",
"62 361 LINE",
"11 1 LINE"
);
},
{
closed = 1;
nodes = (
"241 271 LINE",
"265 270 LINE",
"253 175 LINE",
"252 171 LINE SMOOTH",
"250 158 OFFCURVE",
"247 133 OFFCURVE",
"250 130 CURVE",
"221 130 LINE"
);
},
{
closed = 1;
nodes = (
"181 29 LINE",
"246 490 LINE SMOOTH",
"251 527 OFFCURVE",
"260 546 OFFCURVE",
"292 546 CURVE SMOOTH",
"331 546 OFFCURVE",
"328 520 OFFCURVE",
"322 476 CURVE SMOOTH",
"316 432 LINE SMOOTH",
"310 396 OFFCURVE",
"305 374 OFFCURVE",
"282 374 CURVE SMOOTH",
"258 374 LINE",
"248 300 LINE",
"278 298 LINE SMOOTH",
"281 298 OFFCURVE",
"283 297 OFFCURVE",
"285 295 CURVE SMOOTH",
"289 292 OFFCURVE",
"292 286 OFFCURVE",
"291 274 CURVE",
"279 175 LINE SMOOTH",
"275 152 OFFCURVE",
"270 102 OFFCURVE",
"247 102 CURVE SMOOTH",
"215 102 LINE",
"205 28 LINE",
"271 28 LINE SMOOTH",
"359 28 OFFCURVE",
"417 58 OFFCURVE",
"430 151 CURVE SMOOTH",
"441 228 LINE SMOOTH",
"452 305 OFFCURVE",
"414 341 OFFCURVE",
"358 341 CURVE",
"358 343 LINE",
"419 350 OFFCURVE",
"449 394 OFFCURVE",
"457 450 CURVE SMOOTH",
"466 513 LINE SMOOTH",
"475 576 OFFCURVE",
"415 614 OFFCURVE",
"318 614 CURVE SMOOTH",
"199 614 OFFCURVE",
"121 596 OFFCURVE",
"107 493 CURVE SMOOTH",
"104 470 LINE",
"93 389 LINE",
"42 29 LINE"
);
},
{
closed = 1;
nodes = (
"32 19 LINE",
"82 380 LINE",
"96 479 LINE",
"98 493 LINE SMOOTH",
"114 606 OFFCURVE",
"196 624 OFFCURVE",
"319 624 CURVE SMOOTH",
"423 624 OFFCURVE",
"484 581 OFFCURVE",
"475 513 CURVE SMOOTH",
"466 450 LINE SMOOTH",
"460 405 OFFCURVE",
"437 364 OFFCURVE",
"399 343 CURVE",
"437 328 OFFCURVE",
"459 292 OFFCURVE",
"450 228 CURVE SMOOTH",
"439 151 LINE SMOOTH",
"425 52 OFFCURVE",
"366 19 OFFCURVE",
"270 19 CURVE SMOOTH",
"195 19 LINE",
"208 111 LINE",
"249 111 LINE SMOOTH",
"262 111 OFFCURVE",
"266 150 OFFCURVE",
"269 171 CURVE SMOOTH",
"270 175 LINE",
"282 274 LINE SMOOTH",
"283 280 OFFCURVE",
"283 284 OFFCURVE",
"280 287 CURVE SMOOTH",
"279 288 OFFCURVE",
"278 289 OFFCURVE",
"277 289 CURVE SMOOTH",
"238 291 LINE",
"251 383 LINE",
"284 383 LINE SMOOTH",
"291 383 OFFCURVE",
"296 387 OFFCURVE",
"299 396 CURVE SMOOTH",
"302 405 OFFCURVE",
"304 417 OFFCURVE",
"307 432 CURVE SMOOTH",
"313 476 LINE SMOOTH",
"318 515 OFFCURVE",
"322 536 OFFCURVE",
"291 536 CURVE SMOOTH",
"266 536 OFFCURVE",
"259 521 OFFCURVE",
"255 490 CURVE SMOOTH",
"189 19 LINE"
);
},
{
closed = 1;
nodes = (
"272 490 LINE SMOOTH",
"274 509 OFFCURVE",
"280 518 OFFCURVE",
"289 518 CURVE SMOOTH",
"295 518 OFFCURVE",
"298 514 OFFCURVE",
"298 507 CURVE SMOOTH",
"298 500 OFFCURVE",
"296 489 OFFCURVE",
"295 476 CURVE SMOOTH",
"289 432 LINE SMOOTH",
"286 412 OFFCURVE",
"285 409 OFFCURVE",
"284 402 CURVE",
"259 402 LINE"
);
}
);
width = 509;
}
);
unicode = 1E9E;
},
{
glyphname = Schwa;
lastChange = "2021-11-22 23:52:12 +0000";
layers = (
{
layerId = "6544E2DB-1912-401E-9B5B-A29F161A5995";
paths = (
{
closed = 1;
nodes = (
"122 601 OFFCURVE",
"59 567 OFFCURVE",
"33 381 CURVE SMOOTH",
"2 161 LINE SMOOTH",
"-16 33 OFFCURVE",
"42 -9 OFFCURVE",
"156 -9 CURVE SMOOTH",
"270 -9 OFFCURVE",
"341 33 OFFCURVE",
"359 161 CURVE SMOOTH",
"390 381 LINE SMOOTH",
"416 567 OFFCURVE",
"366 601 OFFCURVE",
"242 601 CURVE SMOOTH"
);
},
{
closed = 1;
nodes = (
"349 583 OFFCURVE",
"395 549 OFFCURVE",
"372 381 CURVE SMOOTH",
"341 161 LINE SMOOTH",
"325 47 OFFCURVE",
"262 13 OFFCURVE",
"159 13 CURVE SMOOTH",
"56 13 OFFCURVE",
"3 47 OFFCURVE",
"19 161 CURVE SMOOTH",
"38 296 LINE",
"208 296 LINE",
"230 454 LINE SMOOTH",
"232 465 OFFCURVE",
"233 476 OFFCURVE",
"228 476 CURVE SMOOTH",
"223 476 OFFCURVE",
"221 465 OFFCURVE",
"219 454 CURVE SMOOTH",
"205 350 LINE",
"46 350 LINE",
"50 381 LINE SMOOTH",
"73 548 OFFCURVE",
"128 583 OFFCURVE",
"239 583 CURVE SMOOTH"
);
},
{
closed = 1;
nodes = (
"134 574 OFFCURVE",
"82 538 OFFCURVE",
"60 381 CURVE SMOOTH",
"57 359 LINE",
"198 359 LINE",
"211 454 LINE SMOOTH",
"213 469 OFFCURVE",
"216 485 OFFCURVE",
"229 485 CURVE SMOOTH",
"238 485 OFFCURVE",
"241 476 OFFCURVE",
"238 454 CURVE SMOOTH",
"215 287 LINE",
"46 287 LINE",
"28 161 LINE SMOOTH",
"13 55 OFFCURVE",
"63 23 OFFCURVE",
"161 23 CURVE SMOOTH",
"260 23 OFFCURVE",
"318 55 OFFCURVE",
"333 161 CURVE SMOOTH",
"364 381 LINE SMOOTH",
"386 538 OFFCURVE",
"343 574 OFFCURVE",
"238 574 CURVE SMOOTH"
);
},
{
closed = 1;
nodes = (
"193 128 LINE SMOOTH",
"190 113 OFFCURVE",
"183 108 OFFCURVE",
"174 108 CURVE SMOOTH",
"166 108 OFFCURVE",
"160 114 OFFCURVE",
"161 124 CURVE SMOOTH",
"174 216 LINE",
"205 216 LINE"
);
},
{
closed = 1;
nodes = (
"182 207 LINE",
"172 136 LINE SMOOTH",
"170 122 OFFCURVE",
"169 118 OFFCURVE",
"176 118 CURVE SMOOTH",
"182 118 OFFCURVE",
"183 122 OFFCURVE",
"185 136 CURVE SMOOTH",
"195 207 LINE"
);
}
);
width = 408;
}
);
unicode = 018F;
},
{
glyphname = T;
lastChange = "2021-11-22 23:52:12 +0000";
layers = (
{
layerId = "6544E2DB-1912-401E-9B5B-A29F161A5995";
paths = (
{
closed = 1;
nodes = (
"230 0 LINE",
"291 436 LINE",
"362 436 LINE",
"384 591 LINE",
"55 591 LINE",
"33 436 LINE",
"105 436 LINE",
"44 0 LINE"
);
},
{
closed = 1;
nodes = (
"124 454 LINE",
"52 454 LINE",
"69 573 LINE",
"365 573 LINE",
"348 454 LINE",
"276 454 LINE",
"215 18 LINE",
"63 18 LINE"
);
},
{
closed = 1;
nodes = (
"207 27 LINE",
"269 463 LINE",
"341 463 LINE",
"355 564 LINE",
"77 564 LINE",
"63 463 LINE",
"135 463 LINE",
"73 27 LINE"
);
}
);
userData = {
assembly = "SVTCA[0]	/* SetFreedomAndProjectionVectorToAxis */\012PUSHW[ ]	/* 1 value pushed */\0121 \012MDAP[1]	/* MoveDirectAbsPt */\012IUP[0]	/* InterpolateUntPts */\012IUP[1]	/* InterpolateUntPts */";
};
width = 363;
}
);
note = T;
unicode = 0054;
},
{
color = 11;
glyphname = Tcommaaccent;
lastChange = "2021-11-22 23:52:12 +0000";
layers = (
{
components = (
{
name = T;
}
);
layerId = "6544E2DB-1912-401E-9B5B-A29F161A5995";
paths = (
{
closed = 1;
nodes = (
"37 -428 OFFCURVE",
"96 -306 OFFCURVE",
"98 -238 CURVE SMOOTH",
"98 -190 OFFCURVE",
"81 -153 OFFCURVE",
"26 -153 CURVE SMOOTH",
"-22 -153 OFFCURVE",
"-52 -189 OFFCURVE",
"-55 -232 CURVE SMOOTH",
"-57 -257 OFFCURVE",
"-46 -275 OFFCURVE",
"-36 -288 CURVE",
"-32 -295 OFFCURVE",
"-28 -301 OFFCURVE",
"-27 -308 CURVE",
"-30 -333 OFFCURVE",
"-58 -372 OFFCURVE",
"-90 -396 CURVE",
"-73 -410 OFFCURVE",
"-60 -419 OFFCURVE",
"-51 -422 CURVE SMOOTH",
"-42 -426 OFFCURVE",
"-36 -428 OFFCURVE",
"-29 -428 CURVE SMOOTH"
);
},
{
closed = 1;
nodes = (
"-38 -411 OFFCURVE",
"-49 -411 OFFCURVE",
"-65 -396 CURVE",
"-40 -376 OFFCURVE",
"-15 -340 OFFCURVE",
"-12 -309 CURVE SMOOTH",
"-11 -294 OFFCURVE",
"-19 -287 OFFCURVE",
"-26 -276 CURVE SMOOTH",
"-34 -264 OFFCURVE",
"-42 -253 OFFCURVE",
"-41 -232 CURVE SMOOTH",
"-39 -199 OFFCURVE",
"-15 -169 OFFCURVE",
"24 -169 CURVE SMOOTH",
"71 -169 OFFCURVE",
"84 -204 OFFCURVE",
"83 -239 CURVE SMOOTH",
"81 -301 OFFCURVE",
"32 -411 OFFCURVE",
"-27 -411 CURVE SMOOTH"
);
},
{
closed = 1;
nodes = (
"28 -403 OFFCURVE",
"74 -299 OFFCURVE",
"76 -240 CURVE SMOOTH",
"75 -206 OFFCURVE",
"63 -177 OFFCURVE",
"24 -177 CURVE SMOOTH",
"-11 -177 OFFCURVE",
"-32 -203 OFFCURVE",
"-34 -232 CURVE SMOOTH",
"-36 -264 OFFCURVE",
"-3 -277 OFFCURVE",
"-5 -309 CURVE SMOOTH",
"-9 -341 OFFCURVE",
"-29 -377 OFFCURVE",
"-53 -396 CURVE",
"-46 -403 OFFCURVE",
"-36 -403 OFFCURVE",
"-27 -403 CURVE SMOOTH"
);
}
);
width = 363;
}
);
unicode = 021A;
},
{
glyphname = U;
lastChange = "2021-11-22 23:52:12 +0000";
layers = (
{
layerId = "6544E2DB-1912-401E-9B5B-A29F161A5995";
paths = (
{
closed = 1;
nodes = (
"279.138 -11 OFFCURVE",
"339.96 19.271 OFFCURVE",
"362 176 CURVE SMOOTH",
"421 592 LINE",
"69 592 LINE",
"10 176 LINE SMOOTH",
"-11.92 20.123 OFFCURVE",
"39.424 -11 OFFCURVE",
"160 -11 CURVE SMOOTH"
);
},
{
closed = 1;
nodes = (
"53.88 7 OFFCURVE",
"7.235 35.173 OFFCURVE",
"27 176 CURVE SMOOTH",
"83 574 LINE",
"236 574 LINE",
"174 132 LINE SMOOTH",
"172.667 124.667 OFFCURVE",
"172.667 119.833 OFFCURVE",
"174 117.5 CURVE SMOOTH",
"175.333 115.167 OFFCURVE",
"176.667 114 OFFCURVE",
"178 114 CURVE SMOOTH",
"180 114 OFFCURVE",
"181.5 115.167 OFFCURVE",
"182.5 117.5 CURVE SMOOTH",
"183.5 119.833 OFFCURVE",
"184.667 124.667 OFFCURVE",
"186 132 CURVE SMOOTH",
"248 574 LINE",
"401 574 LINE",
"345 176 LINE SMOOTH",
"325.214 35.024 OFFCURVE",
"272.103 7 OFFCURVE",
"162 7 CURVE SMOOTH"
);
},
{
closed = 1;
nodes = (
"268.152 16 OFFCURVE",
"317.081 41.549 OFFCURVE",
"337 176 CURVE SMOOTH",
"392 565 LINE",
"256 565 LINE",
"195 132 LINE SMOOTH",
"192.333 110.667 OFFCURVE",
"185.333 105 OFFCURVE",
"176 105 CURVE SMOOTH",
"172 105 OFFCURVE",
"169 106.833 OFFCURVE",
"167 110.5 CURVE SMOOTH",
"165 114.167 OFFCURVE",
"164.667 121.333 OFFCURVE",
"166 132 CURVE SMOOTH",
"227 565 LINE",
"91 565 LINE",
"36 176 LINE SMOOTH",
"16.141 41.954 OFFCURVE",
"61.657 16 OFFCURVE",
"164 16 CURVE SMOOTH"
);
}
);
width = 417;
}
);
note = U;
unicode = 0055;
},
{
color = 11;
glyphname = Ubreve;
lastChange = "2021-11-22 23:53:49 +0000";
layers = (
{
components = (
{
name = U;
}
);
layerId = "6544E2DB-1912-401E-9B5B-A29F161A5995";
paths = (
{
closed = 1;
nodes = (
"264 640 OFFCURVE",
"305 686 OFFCURVE",
"310 754 CURVE",
"209 754 LINE",
"207 743 OFFCURVE",
"205 735 OFFCURVE",
"201 730 CURVE SMOOTH",
"197 725 OFFCURVE",
"193 722 OFFCURVE",
"188 722 CURVE SMOOTH",
"179 722 OFFCURVE",
"170 731 OFFCURVE",
"172 754 CURVE",
"71 754 LINE",
"67 696 OFFCURVE",
"90 640 OFFCURVE",
"181 640 CURVE SMOOTH"
);
},
{
closed = 1;
nodes = (
"105 653 OFFCURVE",
"83 696 OFFCURVE",
"86 741 CURVE",
"155 741 LINE",
"154 718 OFFCURVE",
"170 709 OFFCURVE",
"187 709 CURVE SMOOTH",
"204 709 OFFCURVE",
"221 718 OFFCURVE",
"223 741 CURVE",
"293 741 LINE",
"290 692 OFFCURVE",
"258 653 OFFCURVE",
"182 653 CURVE SMOOTH"
);
},
{
closed = 1;
nodes = (
"253 660 OFFCURVE",
"282 693 OFFCURVE",
"285 734 CURVE",
"231 734 LINE",
"225 691 OFFCURVE",
"144 691 OFFCURVE",
"147 734 CURVE",
"94 734 LINE",
"91 695 OFFCURVE",
"113 660 OFFCURVE",
"182 660 CURVE SMOOTH"
);
}
);
width = 417;
}
);
note = Ubreve;
unicode = 016C;
},
{
color = 11;
glyphname = Uinvertedbreve;
lastChange = "2021-11-22 23:53:49 +0000";
layers = (
{
components = (
{
name = U;
}
);
layerId = "6544E2DB-1912-401E-9B5B-A29F161A5995";
paths = (
{
closed = 1;
nodes = (
"91 754 OFFCURVE",
"60 698 OFFCURVE",
"56 640 CURVE",
"157 640 LINE",
"159 663 OFFCURVE",
"168 672 OFFCURVE",
"177 672 CURVE SMOOTH",
"182 672 OFFCURVE",
"186 669 OFFCURVE",
"190 664 CURVE",
"192 659 OFFCURVE",
"194 651 OFFCURVE",
"194 640 CURVE",
"295 640 LINE",
"300 708 OFFCURVE",
"265 754 OFFCURVE",
"182 754 CURVE SMOOTH"
);
},
{
closed = 1;
nodes = (
"257 741 OFFCURVE",
"283 702 OFFCURVE",
"280 653 CURVE",
"210 653 LINE",
"212 676 OFFCURVE",
"195 685 OFFCURVE",
"178 685 CURVE SMOOTH",
"161 685 OFFCURVE",
"145 676 OFFCURVE",
"142 653 CURVE",
"73 653 LINE",
"76 698 OFFCURVE",
"104 741 OFFCURVE",
"181 741 CURVE SMOOTH"
);
},
{
closed = 1;
nodes = (
"112 734 OFFCURVE",
"84 699 OFFCURVE",
"81 660 CURVE",
"134 660 LINE",
"137 703 OFFCURVE",
"218 703 OFFCURVE",
"218 660 CURVE",
"272 660 LINE",
"275 701 OFFCURVE",
"252 734 OFFCURVE",
"181 734 CURVE SMOOTH"
);
}
);
width = 417;
}
);
unicode = 0216;
},
{
glyphname = V;
lastChange = "2021-11-22 23:52:12 +0000";
layers = (
{
layerId = "6544E2DB-1912-401E-9B5B-A29F161A5995";
paths = (
{
closed = 1;
nodes = (
"290 0 LINE",
"457 591 LINE",
"265 591 LINE",
"236 473 LINE",
"244 591 LINE",
"45 591 LINE",
"45 0 LINE"
);
},
{
closed = 1;
nodes = (
"62 573 LINE",
"224 573 LINE",
"208 275 LINE",
"277 573 LINE",
"434 573 LINE",
"277 18 LINE",
"62 18 LINE"
);
},
{
closed = 1;
nodes = (
"270 27 LINE",
"423 564 LINE",
"284 564 LINE",
"196 192 LINE",
"192 170 LINE",
"194 192 LINE",
"215 564 LINE",
"72 564 LINE",
"71 27 LINE"
);
}
);
userData = {
assembly = "SVTCA[0]	/* SetFreedomAndProjectionVectorToAxis */\012PUSHW[ ]	/* 1 value pushed */\0122 \012MDAP[1]	/* MoveDirectAbsPt */\012IUP[0]	/* InterpolateUntPts */\012IUP[1]	/* InterpolateUntPts */";
};
width = 422;
}
);
note = V;
unicode = 0056;
},
{
glyphname = W;
lastChange = "2021-11-22 23:52:12 +0000";
layers = (
{
layerId = "6544E2DB-1912-401E-9B5B-A29F161A5995";
paths = (
{
closed = 1;
nodes = (
"272 0 LINE",
"293 76 LINE",
"295 0 LINE",
"512 0 LINE",
"682 591 LINE",
"475 591 LINE",
"471 575 OFFCURVE",
"466.167 556.167 OFFCURVE",
"460.5 534.5 CURVE SMOOTH",
"446 476 LINE",
"452 591 LINE",
"280 591 LINE",
"254 483 LINE",
"259 591 LINE",
"52 591 LINE",
"55 0 LINE"
);
},
{
closed = 1;
nodes = (
"70 573 LINE",
"239 573 LINE",
"229 304 LINE",
"263 439.5 LINE SMOOTH",
"274.333 484.5 OFFCURVE",
"285 529 OFFCURVE",
"295 573 CURVE",
"432 573 LINE",
"421 304 LINE",
"432.333 349.333 OFFCURVE",
"443.667 394.5 OFFCURVE",
"455 439.5 CURVE SMOOTH",
"488 573 LINE",
"658 573 LINE",
"499 18 LINE",
"313 18 LINE",
"311 198 LINE",
"284.5 107 LINE SMOOTH",
"275.5 77 OFFCURVE",
"267 47.333 OFFCURVE",
"259 18 CURVE",
"73 18 LINE"
);
},
{
closed = 1;
nodes = (
"252 27 LINE",
"319 261 LINE",
"322 27 LINE",
"491 27 LINE",
"646 564 LINE",
"495 564 LINE",
"408 209 LINE",
"423 564 LINE",
"302 564 LINE",
"217 209 LINE",
"230 564 LINE",
"79 564 LINE",
"82 27 LINE"
);
}
);
userData = {
assembly = "SVTCA[0]	/* SetFreedomAndProjectionVectorToAxis */\012PUSHW[ ]	/* 1 value pushed */\0123 \012MDAP[1]	/* MoveDirectAbsPt */\012PUSHW[ ]	/* 1 value pushed */\0126 \012MDAP[1]	/* MoveDirectAbsPt */\012IUP[0]	/* InterpolateUntPts */\012IUP[1]	/* InterpolateUntPts */";
};
width = 653;
}
);
note = W;
unicode = 0057;
},
{
glyphname = X;
lastChange = "2021-11-22 23:52:12 +0000";
layers = (
{
layerId = "6544E2DB-1912-401E-9B5B-A29F161A5995";
paths = (
{
closed = 1;
nodes = (
"172 0 LINE",
"173.333 5.333 OFFCURVE",
"175 10.667 OFFCURVE",
"177 16 CURVE SMOOTH",
"179 21.333 OFFCURVE",
"180.667 27 OFFCURVE",
"182 33 CURVE",
"184 0 LINE",
"376 0 LINE",
"347 305 LINE",
"462 591 LINE",
"259 591 LINE",
"253 575 LINE SMOOTH",
"251 569.667 OFFCURVE",
"249.333 564 OFFCURVE",
"248 558 CURVE",
"246 591 LINE",
"53 591 LINE",
"70.5 448.5 LINE SMOOTH",
"75.472 407.07 OFFCURVE",
"84.601 341.189 OFFCURVE",
"89 306 CURVE",
"-31 0 LINE"
);
},
{
closed = 1;
nodes = (
"107 306 LINE",
"73 573 LINE",
"230 573 LINE",
"238 471 LINE",
"248.667 505.667 OFFCURVE",
"259.667 539.667 OFFCURVE",
"271 573 CURVE",
"436 573 LINE",
"331 306 LINE",
"357 18 LINE",
"200 18 LINE",
"192 120 LINE",
"160 18 LINE",
"-6 18 LINE"
);
},
{
closed = 1;
nodes = (
"153 27 LINE",
"198 167 LINE",
"208 27 LINE",
"346 27 LINE",
"321 306 LINE",
"424 564 LINE",
"277 564 LINE",
"232 423 LINE",
"222 564 LINE",
"84 564 LINE",
"116 306 LINE",
"6 27 LINE"
);
}
);
userData = {
assembly = "SVTCA[0]	/* SetFreedomAndProjectionVectorToAxis */\012PUSHW[ ]	/* 1 value pushed */\0121 \012MDAP[1]	/* MoveDirectAbsPt */\012PUSHW[ ]	/* 1 value pushed */\01210 \012MDAP[1]	/* MoveDirectAbsPt */\012PUSHW[ ]	/* 1 value pushed */\01227 \012MDAP[1]	/* MoveDirectAbsPt */\012PUSHW[ ]	/* 1 value pushed */\0124 \012MDAP[1]	/* MoveDirectAbsPt */\012PUSHW[ ]	/* 1 value pushed */\0127 \012MDAP[1]	/* MoveDirectAbsPt */\012PUSHW[ ]	/* 1 value pushed */\01239 \012MDAP[1]	/* MoveDirectAbsPt */\012PUSHW[ ]	/* 3 values pushed */\0120 1 4 \012SRP1[ ]	/* SetRefPoint1 */\012SRP2[ ]	/* SetRefPoint2 */\012IP[ ]	/* InterpolatePts */\012PUSHW[ ]	/* 3 values pushed */\0126 1 4 \012SRP1[ ]	/* SetRefPoint1 */\012SRP2[ ]	/* SetRefPoint2 */\012IP[ ]	/* InterpolatePts */\012PUSHW[ ]	/* 3 values pushed */\01218 1 4 \012SRP1[ ]	/* SetRefPoint1 */\012SRP2[ ]	/* SetRefPoint2 */\012IP[ ]	/* InterpolatePts */\012PUSHW[ ]	/* 3 values pushed */\01226 1 4 \012SRP1[ ]	/* SetRefPoint1 */\012SRP2[ ]	/* SetRefPoint2 */\012IP[ ]	/* InterpolatePts */\012IUP[0]	/* InterpolateUntPts */\012IUP[1]	/* InterpolateUntPts */";
};
width = 436;
}
);
note = X;
unicode = 0058;
},
{
glyphname = Y;
lastChange = "2021-11-22 23:52:12 +0000";
layers = (
{
layerId = "6544E2DB-1912-401E-9B5B-A29F161A5995";
paths = (
{
closed = 1;
nodes = (
"258 0 LINE",
"291 236 LINE",
"450 591 LINE",
"269 591 LINE",
"244 527 LINE",
"237 591 LINE",
"45 591 LINE",
"103 244 LINE",
"69 0 LINE"
);
},
{
closed = 1;
nodes = (
"120 247 LINE",
"66 573 LINE",
"221 573 LINE",
"234 456 LINE",
"279 573 LINE",
"423 573 LINE",
"274 239 LINE",
"243 18 LINE",
"88 18 LINE"
);
},
{
closed = 1;
nodes = (
"235 27 LINE",
"265 241 LINE",
"410 564 LINE",
"285 564 LINE",
"241 451 LINE",
"226 404 LINE",
"225 451 LINE",
"213 564 LINE",
"78 564 LINE",
"130 250 LINE",
"98 27 LINE"
);
}
);
userData = {
assembly = "SVTCA[0]	/* SetFreedomAndProjectionVectorToAxis */\012PUSHW[ ]	/* 1 value pushed */\0122 \012MDAP[1]	/* MoveDirectAbsPt */\012IUP[0]	/* InterpolateUntPts */\012IUP[1]	/* InterpolateUntPts */";
};
width = 417;
}
);
leftKerningGroup = Y;
note = Y;
rightKerningGroup = Y;
unicode = 0059;
},
{
glyphname = Z;
lastChange = "2021-11-22 23:52:12 +0000";
layers = (
{
layerId = "6544E2DB-1912-401E-9B5B-A29F161A5995";
paths = (
{
closed = 1;
nodes = (
"260 0 LINE",
"281 155 LINE",
"194 155 LINE",
"329 492 LINE",
"343 591 LINE",
"64 591 LINE",
"42 436 LINE",
"114 436 LINE",
"-12 120 LINE",
"-28 0 LINE"
);
},
{
closed = 1;
nodes = (
"5 119 LINE",
"138 454 LINE",
"60 454 LINE",
"77 573 LINE",
"324 573 LINE",
"313 493 LINE",
"170 137 LINE",
"263 137 LINE",
"246 18 LINE",
"-9 18 LINE"
);
},
{
closed = 1;
nodes = (
"238 27 LINE",
"252 128 LINE",
"157 128 LINE",
"304 496 LINE",
"314 564 LINE",
"84 564 LINE",
"70 463 LINE",
"151 463 LINE",
"13 116 LINE",
"0 27 LINE"
);
}
);
userData = {
assembly = "PUSHW[ ]	/* 4 values pushed */\0129 5 20 4 \012CALL[ ]	/* CallFunction */\012PUSHW[ ]	/* 3 values pushed */\0122 20 9 \012SRP1[ ]	/* SetRefPoint1 */\012SRP2[ ]	/* SetRefPoint2 */\012IP[ ]	/* InterpolatePts */\012PUSHW[ ]	/* 3 values pushed */\0127 20 9 \012SRP1[ ]	/* SetRefPoint1 */\012SRP2[ ]	/* SetRefPoint2 */\012IP[ ]	/* InterpolatePts */\012PUSHW[ ]	/* 3 values pushed */\01212 20 9 \012SRP1[ ]	/* SetRefPoint1 */\012SRP2[ ]	/* SetRefPoint2 */\012IP[ ]	/* InterpolatePts */\012PUSHW[ ]	/* 3 values pushed */\01217 20 9 \012SRP1[ ]	/* SetRefPoint1 */\012SRP2[ ]	/* SetRefPoint2 */\012IP[ ]	/* InterpolatePts */\012PUSHW[ ]	/* 1 value pushed */\0129 \012SRP0[ ]	/* SetRefPoint0 */\012PUSHW[ ]	/* 2 values pushed */\01219 5 \012MIRP[10100]	/* MoveIndirectRelPt */\012PUSHW[ ]	/* 1 value pushed */\01221 \012MDRP[10000]	/* MoveDirectRelPt */\012PUSHW[ ]	/* 1 value pushed */\01221 \012MDAP[1]	/* MoveDirectAbsPt */\012PUSHW[ ]	/* 3 values pushed */\01222 20 9 \012SRP1[ ]	/* SetRefPoint1 */\012SRP2[ ]	/* SetRefPoint2 */\012IP[ ]	/* InterpolatePts */\012PUSHW[ ]	/* 3 values pushed */\01227 20 9 \012SRP1[ ]	/* SetRefPoint1 */\012SRP2[ ]	/* SetRefPoint2 */\012IP[ ]	/* InterpolatePts */\012SVTCA[0]	/* SetFreedomAndProjectionVectorToAxis */\012PUSHW[ ]	/* 4 values pushed */\0127 3 9 4 \012CALL[ ]	/* CallFunction */\012IUP[0]	/* InterpolateUntPts */\012IUP[1]	/* InterpolateUntPts */";
};
width = 323;
}
);
leftKerningGroup = Z;
note = Z;
rightKerningGroup = Z;
unicode = 005A;
},
{
glyphname = A.smcap;
lastChange = "2021-11-22 23:52:12 +0000";
layers = (
{
layerId = "6544E2DB-1912-401E-9B5B-A29F161A5995";
paths = (
{
closed = 1;
nodes = (
"311 0 LINE",
"313 496 LINE",
"101 496 LINE",
"-37 0 LINE"
);
},
{
closed = 1;
nodes = (
"161 158 LINE",
"161.723 166.316 OFFCURVE",
"164.698 216.283 OFFCURVE",
"166 228 CURVE",
"152 158 LINE"
);
},
{
closed = 1;
nodes = (
"113 478 LINE",
"296 478 LINE",
"293 18 LINE",
"147 18 LINE",
"151 82 LINE",
"141 82 LINE",
"139 72 OFFCURVE",
"136.667 61.167 OFFCURVE",
"134 49.5 CURVE SMOOTH",
"127 18 LINE",
"-15 18 LINE"
);
},
{
closed = 1;
nodes = (
"120 27 LINE",
"133 91 LINE",
"160 91 LINE",
"156 27 LINE",
"284 27 LINE",
"286 469 LINE",
"119 469 LINE",
"-4 27 LINE"
);
},
{
closed = 1;
nodes = (
"187 376 LINE",
"168 149 LINE",
"141 149 LINE"
);
}
);
userData = {
assembly = "PUSHW[ ]	/* 4 values pushed */\01226 6 24 4 \012CALL[ ]	/* CallFunction */\012PUSHW[ ]	/* 1 value pushed */\01226 \012SRP0[ ]	/* SetRefPoint0 */\012PUSHW[ ]	/* 1 value pushed */\0120 \012MDRP[10000]	/* MoveDirectRelPt */\012PUSHW[ ]	/* 1 value pushed */\0120 \012MDAP[1]	/* MoveDirectAbsPt */\012PUSHW[ ]	/* 1 value pushed */\01224 \012SRP0[ ]	/* SetRefPoint0 */\012PUSHW[ ]	/* 2 values pushed */\0121 6 \012MIRP[10100]	/* MoveIndirectRelPt */\012PUSHW[ ]	/* 1 value pushed */\01224 \012SRP0[ ]	/* SetRefPoint0 */\012PUSHW[ ]	/* 1 value pushed */\0122 \012MDRP[10000]	/* MoveDirectRelPt */\012PUSHW[ ]	/* 1 value pushed */\0122 \012MDAP[1]	/* MoveDirectAbsPt */\012PUSHW[ ]	/* 3 values pushed */\01210 24 26 \012SRP1[ ]	/* SetRefPoint1 */\012SRP2[ ]	/* SetRefPoint2 */\012IP[ ]	/* InterpolatePts */\012PUSHW[ ]	/* 3 values pushed */\01211 24 26 \012SRP1[ ]	/* SetRefPoint1 */\012SRP2[ ]	/* SetRefPoint2 */\012IP[ ]	/* InterpolatePts */\012PUSHW[ ]	/* 1 value pushed */\01216 \012MDRP[10000]	/* MoveDirectRelPt */\012PUSHW[ ]	/* 1 value pushed */\01216 \012MDAP[1]	/* MoveDirectAbsPt */\012PUSHW[ ]	/* 1 value pushed */\01224 \012SRP0[ ]	/* SetRefPoint0 */\012PUSHW[ ]	/* 1 value pushed */\01217 \012MDRP[10000]	/* MoveDirectRelPt */\012PUSHW[ ]	/* 1 value pushed */\01217 \012MDAP[1]	/* MoveDirectAbsPt */\012PUSHW[ ]	/* 1 value pushed */\01224 \012SRP0[ ]	/* SetRefPoint0 */\012PUSHW[ ]	/* 2 values pushed */\01229 5 \012MIRP[10100]	/* MoveIndirectRelPt */\012PUSHW[ ]	/* 1 value pushed */\01226 \012SRP0[ ]	/* SetRefPoint0 */\012PUSHW[ ]	/* 1 value pushed */\01233 \012MDRP[11100]	/* MoveDirectRelPt */\012SVTCA[0]	/* SetFreedomAndProjectionVectorToAxis */\012PUSHW[ ]	/* 1 value pushed */\0120 \012RCVT[ ]	/* ReadCVT */\012IF[ ]	/* If */\012PUSHW[ ]	/* 1 value pushed */\01228 \012MDAP[1]	/* MoveDirectAbsPt */\012ELSE[ ]	/* Else */\012PUSHW[ ]	/* 2 values pushed */\01228 11 \012MIAP[0]	/* MoveIndirectAbsPt */\012EIF[ ]	/* EndIf */\012PUSHW[ ]	/* 1 value pushed */\0120 \012RCVT[ ]	/* ReadCVT */\012IF[ ]	/* If */\012PUSHW[ ]	/* 1 value pushed */\01229 \012MDAP[1]	/* MoveDirectAbsPt */\012ELSE[ ]	/* Else */\012PUSHW[ ]	/* 2 values pushed */\01229 7 \012MIAP[0]	/* MoveIndirectAbsPt */\012EIF[ ]	/* EndIf */\012PUSHW[ ]	/* 3 values pushed */\0126 29 28 \012SRP1[ ]	/* SetRefPoint1 */\012SRP2[ ]	/* SetRefPoint2 */\012IP[ ]	/* InterpolatePts */\012PUSHW[ ]	/* 3 values pushed */\01210 29 28 \012SRP1[ ]	/* SetRefPoint1 */\012SRP2[ ]	/* SetRefPoint2 */\012IP[ ]	/* InterpolatePts */\012PUSHW[ ]	/* 3 values pushed */\01211 29 28 \012SRP1[ ]	/* SetRefPoint1 */\012SRP2[ ]	/* SetRefPoint2 */\012IP[ ]	/* InterpolatePts */\012PUSHW[ ]	/* 3 values pushed */\01219 29 28 \012SRP1[ ]	/* SetRefPoint1 */\012SRP2[ ]	/* SetRefPoint2 */\012IP[ ]	/* InterpolatePts */\012IUP[0]	/* InterpolateUntPts */\012IUP[1]	/* InterpolateUntPts */";
};
width = 363;
}
);
note = A.smcap;
},
{
glyphname = Aacute.smcap;
lastChange = "2021-11-22 23:52:12 +0000";
layers = (
{
layerId = "6544E2DB-1912-401E-9B5B-A29F161A5995";
paths = (
{
closed = 1;
nodes = (
"311 0 LINE",
"315 508 LINE",
"231 508 LINE",
"383 630 LINE",
"212 630 LINE",
"88 499 LINE",
"100 499 LINE",
"-37 0 LINE"
);
},
{
closed = 1;
nodes = (
"161 162 LINE",
"166 234 LINE",
"152 162 LINE"
);
},
{
closed = 1;
nodes = (
"114 489 LINE",
"297 489 LINE",
"293 18 LINE",
"147 18 LINE",
"151 84 LINE",
"141 84 LINE",
"139 73.333 OFFCURVE",
"136.667 62 OFFCURVE",
"134 50 CURVE SMOOTH",
"127 18 LINE",
"-15 18 LINE"
);
},
{
closed = 1;
nodes = (
"120 27 LINE",
"134 93 LINE",
"161 93 LINE",
"156 27 LINE",
"284 27 LINE",
"288 480 LINE",
"121 480 LINE",
"-4 27 LINE"
);
},
{
closed = 1;
nodes = (
"188 384 LINE",
"169 152 LINE",
"142 152 LINE"
);
},
{
closed = 1;
nodes = (
"217 612 LINE",
"335 612 LINE",
"216 517 LINE",
"126 517 LINE"
);
},
{
closed = 1;
nodes = (
"214 526 LINE",
"310 603 LINE",
"220 603 LINE",
"147 526 LINE"
);
}
);
userData = {
assembly = "PUSHW[ ]	/* 4 values pushed */\01235 5 12 4 \012CALL[ ]	/* CallFunction */\012PUSHW[ ]	/* 1 value pushed */\01234 \012SRP0[ ]	/* SetRefPoint0 */\012PUSHW[ ]	/* 1 value pushed */\0120 \012MDRP[10000]	/* MoveDirectRelPt */\012PUSHW[ ]	/* 1 value pushed */\0120 \012MDAP[1]	/* MoveDirectAbsPt */\012PUSHW[ ]	/* 1 value pushed */\01212 \012SRP0[ ]	/* SetRefPoint0 */\012PUSHW[ ]	/* 1 value pushed */\01221 \012MDRP[10000]	/* MoveDirectRelPt */\012PUSHW[ ]	/* 1 value pushed */\01221 \012MDAP[1]	/* MoveDirectAbsPt */\012PUSHW[ ]	/* 2 values pushed */\0121 6 \012MIRP[10100]	/* MoveIndirectRelPt */\012PUSHW[ ]	/* 1 value pushed */\01235 \012SRP0[ ]	/* SetRefPoint0 */\012PUSHW[ ]	/* 2 values pushed */\01215 6 \012MIRP[10100]	/* MoveIndirectRelPt */\012PUSHW[ ]	/* 1 value pushed */\0123 \012MDRP[10000]	/* MoveDirectRelPt */\012PUSHW[ ]	/* 1 value pushed */\0123 \012MDAP[1]	/* MoveDirectAbsPt */\012PUSHW[ ]	/* 1 value pushed */\01215 \012SRP0[ ]	/* SetRefPoint0 */\012PUSHW[ ]	/* 1 value pushed */\0129 \012MDRP[10000]	/* MoveDirectRelPt */\012PUSHW[ ]	/* 1 value pushed */\0129 \012MDAP[1]	/* MoveDirectAbsPt */\012PUSHW[ ]	/* 3 values pushed */\01210 12 35 \012SRP1[ ]	/* SetRefPoint1 */\012SRP2[ ]	/* SetRefPoint2 */\012IP[ ]	/* InterpolatePts */\012PUSHW[ ]	/* 1 value pushed */\01221 \012SRP0[ ]	/* SetRefPoint0 */\012PUSHW[ ]	/* 2 values pushed */\01238 5 \012MIRP[10100]	/* MoveIndirectRelPt */\012PUSHW[ ]	/* 3 values pushed */\01214 21 38 \012SRP1[ ]	/* SetRefPoint1 */\012SRP2[ ]	/* SetRefPoint2 */\012IP[ ]	/* InterpolatePts */\012PUSHW[ ]	/* 1 value pushed */\01215 \012SRP0[ ]	/* SetRefPoint0 */\012PUSHW[ ]	/* 1 value pushed */\01220 \012MDRP[10000]	/* MoveDirectRelPt */\012PUSHW[ ]	/* 1 value pushed */\01220 \012MDAP[1]	/* MoveDirectAbsPt */\012PUSHW[ ]	/* 1 value pushed */\01212 \012SRP0[ ]	/* SetRefPoint0 */\012PUSHW[ ]	/* 1 value pushed */\01231 \012MDRP[10000]	/* MoveDirectRelPt */\012PUSHW[ ]	/* 1 value pushed */\01231 \012MDAP[1]	/* MoveDirectAbsPt */\012PUSHW[ ]	/* 1 value pushed */\01212 \012SRP0[ ]	/* SetRefPoint0 */\012PUSHW[ ]	/* 1 value pushed */\01232 \012MDRP[10000]	/* MoveDirectRelPt */\012PUSHW[ ]	/* 1 value pushed */\01232 \012MDAP[1]	/* MoveDirectAbsPt */\012PUSHW[ ]	/* 3 values pushed */\01236 12 35 \012SRP1[ ]	/* SetRefPoint1 */\012SRP2[ ]	/* SetRefPoint2 */\012IP[ ]	/* InterpolatePts */\012PUSHW[ ]	/* 1 value pushed */\01235 \012SRP0[ ]	/* SetRefPoint0 */\012PUSHW[ ]	/* 1 value pushed */\01245 \012MDRP[11100]	/* MoveDirectRelPt */\012SVTCA[0]	/* SetFreedomAndProjectionVectorToAxis */\012PUSHW[ ]	/* 1 value pushed */\0120 \012RCVT[ ]	/* ReadCVT */\012IF[ ]	/* If */\012PUSHW[ ]	/* 1 value pushed */\01240 \012MDAP[1]	/* MoveDirectAbsPt */\012ELSE[ ]	/* Else */\012PUSHW[ ]	/* 2 values pushed */\01240 11 \012MIAP[0]	/* MoveIndirectAbsPt */\012EIF[ ]	/* EndIf */\012PUSHW[ ]	/* 1 value pushed */\0120 \012RCVT[ ]	/* ReadCVT */\012IF[ ]	/* If */\012PUSHW[ ]	/* 1 value pushed */\01238 \012MDAP[1]	/* MoveDirectAbsPt */\012ELSE[ ]	/* Else */\012PUSHW[ ]	/* 2 values pushed */\01238 7 \012MIAP[0]	/* MoveIndirectAbsPt */\012EIF[ ]	/* EndIf */\012PUSHW[ ]	/* 3 values pushed */\01224 26 3 \012CALL[ ]	/* CallFunction */\012PUSHW[ ]	/* 3 values pushed */\0126 38 40 \012SRP1[ ]	/* SetRefPoint1 */\012SRP2[ ]	/* SetRefPoint2 */\012IP[ ]	/* InterpolatePts */\012PUSHW[ ]	/* 3 values pushed */\01210 38 40 \012SRP1[ ]	/* SetRefPoint1 */\012SRP2[ ]	/* SetRefPoint2 */\012IP[ ]	/* InterpolatePts */\012PUSHW[ ]	/* 1 value pushed */\01226 \012SRP0[ ]	/* SetRefPoint0 */\012PUSHW[ ]	/* 2 values pushed */\01242 4 \012MIRP[10100]	/* MoveIndirectRelPt */\012PUSHW[ ]	/* 3 values pushed */\01212 26 42 \012SRP1[ ]	/* SetRefPoint1 */\012SRP2[ ]	/* SetRefPoint2 */\012IP[ ]	/* InterpolatePts */\012PUSHW[ ]	/* 1 value pushed */\01226 \012SRP0[ ]	/* SetRefPoint0 */\012PUSHW[ ]	/* 2 values pushed */\01213 4 \012MIRP[10100]	/* MoveIndirectRelPt */\012PUSHW[ ]	/* 3 values pushed */\01214 26 42 \012SRP1[ ]	/* SetRefPoint1 */\012SRP2[ ]	/* SetRefPoint2 */\012IP[ ]	/* InterpolatePts */\012PUSHW[ ]	/* 3 values pushed */\01215 38 40 \012SRP1[ ]	/* SetRefPoint1 */\012SRP2[ ]	/* SetRefPoint2 */\012IP[ ]	/* InterpolatePts */\012PUSHW[ ]	/* 3 values pushed */\01222 26 42 \012SRP1[ ]	/* SetRefPoint1 */\012SRP2[ ]	/* SetRefPoint2 */\012IP[ ]	/* InterpolatePts */\012PUSHW[ ]	/* 3 values pushed */\01236 26 24 \012SRP1[ ]	/* SetRefPoint1 */\012SRP2[ ]	/* SetRefPoint2 */\012IP[ ]	/* InterpolatePts */\012PUSHW[ ]	/* 3 values pushed */\01241 26 24 \012SRP1[ ]	/* SetRefPoint1 */\012SRP2[ ]	/* SetRefPoint2 */\012IP[ ]	/* InterpolatePts */\012IUP[0]	/* InterpolateUntPts */\012IUP[1]	/* InterpolateUntPts */";
};
width = 362;
}
);
note = Aacute.smcap;
},
{
glyphname = Acircumflex.smcap;
lastChange = "2021-11-22 23:52:12 +0000";
layers = (
{
layerId = "6544E2DB-1912-401E-9B5B-A29F161A5995";
paths = (
{
closed = 1;
nodes = (
"311 0 LINE",
"314 486 LINE",
"368 486 LINE",
"262 630 LINE",
"183 630 LINE",
"38 486 LINE",
"97 486 LINE",
"-37 0 LINE"
);
},
{
closed = 1;
nodes = (
"161 162 LINE",
"166 234 LINE",
"152 162 LINE"
);
},
{
closed = 1;
nodes = (
"114 489 LINE",
"297 489 LINE",
"293 18 LINE",
"147 18 LINE",
"151 84 LINE",
"141 84 LINE",
"139 73.333 OFFCURVE",
"136.667 62 OFFCURVE",
"134 50 CURVE SMOOTH",
"127 18 LINE",
"-15 18 LINE"
);
},
{
closed = 1;
nodes = (
"120 27 LINE",
"134 93 LINE",
"161 93 LINE",
"156 27 LINE",
"284 27 LINE",
"288 480 LINE",
"121 480 LINE",
"-4 27 LINE"
);
},
{
closed = 1;
nodes = (
"188 384 LINE",
"169 152 LINE",
"142 152 LINE"
);
},
{
closed = 1;
nodes = (
"207 521 LINE",
"214 508 LINE",
"196 508 LINE"
);
},
{
closed = 1;
nodes = (
"189 612 LINE",
"251 612 LINE",
"330 504 LINE",
"237 504 LINE",
"211 551 LINE",
"205 543 OFFCURVE",
"198.167 535 OFFCURVE",
"190.5 527 CURVE SMOOTH",
"182.833 519 OFFCURVE",
"176.333 511.333 OFFCURVE",
"171 504 CURVE",
"80 504 LINE"
);
},
{
closed = 1;
nodes = (
"169 513 LINE",
"213 567 LINE",
"243 513 LINE",
"312 513 LINE",
"246 603 LINE",
"191 603 LINE",
"101 513 LINE"
);
}
);
userData = {
assembly = "PUSHW[ ]	/* 4 values pushed */\01242 6 41 4 \012CALL[ ]	/* CallFunction */\012PUSHW[ ]	/* 1 value pushed */\01242 \012SRP0[ ]	/* SetRefPoint0 */\012PUSHW[ ]	/* 1 value pushed */\0120 \012MDRP[10000]	/* MoveDirectRelPt */\012PUSHW[ ]	/* 1 value pushed */\0120 \012MDAP[1]	/* MoveDirectAbsPt */\012PUSHW[ ]	/* 2 values pushed */\0122 6 \012MIRP[10100]	/* MoveIndirectRelPt */\012PUSHW[ ]	/* 1 value pushed */\01242 \012SRP0[ ]	/* SetRefPoint0 */\012PUSHW[ ]	/* 2 values pushed */\01218 6 \012MIRP[10100]	/* MoveIndirectRelPt */\012PUSHW[ ]	/* 1 value pushed */\0123 \012MDRP[10000]	/* MoveDirectRelPt */\012PUSHW[ ]	/* 1 value pushed */\0123 \012MDAP[1]	/* MoveDirectAbsPt */\012PUSHW[ ]	/* 1 value pushed */\01218 \012SRP0[ ]	/* SetRefPoint0 */\012PUSHW[ ]	/* 1 value pushed */\0129 \012MDRP[10000]	/* MoveDirectRelPt */\012PUSHW[ ]	/* 1 value pushed */\0129 \012MDAP[1]	/* MoveDirectAbsPt */\012PUSHW[ ]	/* 3 values pushed */\01210 41 42 \012SRP1[ ]	/* SetRefPoint1 */\012SRP2[ ]	/* SetRefPoint2 */\012IP[ ]	/* InterpolatePts */\012PUSHW[ ]	/* 1 value pushed */\01241 \012SRP0[ ]	/* SetRefPoint0 */\012PUSHW[ ]	/* 1 value pushed */\01224 \012MDRP[10000]	/* MoveDirectRelPt */\012PUSHW[ ]	/* 1 value pushed */\01224 \012MDAP[1]	/* MoveDirectAbsPt */\012PUSHW[ ]	/* 2 values pushed */\01212 5 \012MIRP[10100]	/* MoveIndirectRelPt */\012PUSHW[ ]	/* 3 values pushed */\01214 41 42 \012SRP1[ ]	/* SetRefPoint1 */\012SRP2[ ]	/* SetRefPoint2 */\012IP[ ]	/* InterpolatePts */\012PUSHW[ ]	/* 1 value pushed */\01218 \012SRP0[ ]	/* SetRefPoint0 */\012PUSHW[ ]	/* 1 value pushed */\01223 \012MDRP[10000]	/* MoveDirectRelPt */\012PUSHW[ ]	/* 1 value pushed */\01223 \012MDAP[1]	/* MoveDirectAbsPt */\012PUSHW[ ]	/* 3 values pushed */\01230 41 42 \012SRP1[ ]	/* SetRefPoint1 */\012SRP2[ ]	/* SetRefPoint2 */\012IP[ ]	/* InterpolatePts */\012PUSHW[ ]	/* 1 value pushed */\01241 \012SRP0[ ]	/* SetRefPoint0 */\012PUSHW[ ]	/* 1 value pushed */\01239 \012MDRP[10000]	/* MoveDirectRelPt */\012PUSHW[ ]	/* 1 value pushed */\01239 \012MDAP[1]	/* MoveDirectAbsPt */\012PUSHW[ ]	/* 1 value pushed */\01212 \012SRP0[ ]	/* SetRefPoint0 */\012PUSHW[ ]	/* 1 value pushed */\01246 \012MDRP[10000]	/* MoveDirectRelPt */\012PUSHW[ ]	/* 1 value pushed */\01246 \012MDAP[1]	/* MoveDirectAbsPt */\012PUSHW[ ]	/* 3 values pushed */\01252 41 42 \012SRP1[ ]	/* SetRefPoint1 */\012SRP2[ ]	/* SetRefPoint2 */\012IP[ ]	/* InterpolatePts */\012PUSHW[ ]	/* 3 values pushed */\01253 41 42 \012SRP1[ ]	/* SetRefPoint1 */\012SRP2[ ]	/* SetRefPoint2 */\012IP[ ]	/* InterpolatePts */\012PUSHW[ ]	/* 3 values pushed */\01254 41 42 \012SRP1[ ]	/* SetRefPoint1 */\012SRP2[ ]	/* SetRefPoint2 */\012IP[ ]	/* InterpolatePts */\012PUSHW[ ]	/* 1 value pushed */\01242 \012SRP0[ ]	/* SetRefPoint0 */\012PUSHW[ ]	/* 1 value pushed */\01256 \012MDRP[11100]	/* MoveDirectRelPt */\012SVTCA[0]	/* SetFreedomAndProjectionVectorToAxis */\012PUSHW[ ]	/* 1 value pushed */\0120 \012RCVT[ ]	/* ReadCVT */\012IF[ ]	/* If */\012PUSHW[ ]	/* 1 value pushed */\01247 \012MDAP[1]	/* MoveDirectAbsPt */\012ELSE[ ]	/* Else */\012PUSHW[ ]	/* 2 values pushed */\01247 7 \012MIAP[0]	/* MoveIndirectAbsPt */\012EIF[ ]	/* EndIf */\012PUSHW[ ]	/* 4 values pushed */\01244 4 13 4 \012CALL[ ]	/* CallFunction */\012PUSHW[ ]	/* 4 values pushed */\01251 4 34 4 \012CALL[ ]	/* CallFunction */\012PUSHW[ ]	/* 1 value pushed */\01213 \012SRP0[ ]	/* SetRefPoint0 */\012PUSHW[ ]	/* 1 value pushed */\01215 \012MDRP[10000]	/* MoveDirectRelPt */\012PUSHW[ ]	/* 3 values pushed */\01216 34 51 \012SRP1[ ]	/* SetRefPoint1 */\012SRP2[ ]	/* SetRefPoint2 */\012IP[ ]	/* InterpolatePts */\012PUSHW[ ]	/* 3 values pushed */\01226 34 51 \012SRP1[ ]	/* SetRefPoint1 */\012SRP2[ ]	/* SetRefPoint2 */\012IP[ ]	/* InterpolatePts */\012PUSHW[ ]	/* 3 values pushed */\01230 13 44 \012SRP1[ ]	/* SetRefPoint1 */\012SRP2[ ]	/* SetRefPoint2 */\012IP[ ]	/* InterpolatePts */\012PUSHW[ ]	/* 3 values pushed */\01232 34 51 \012SRP1[ ]	/* SetRefPoint1 */\012SRP2[ ]	/* SetRefPoint2 */\012IP[ ]	/* InterpolatePts */\012PUSHW[ ]	/* 1 value pushed */\01234 \012SRP0[ ]	/* SetRefPoint0 */\012PUSHW[ ]	/* 1 value pushed */\01245 \012MDRP[10000]	/* MoveDirectRelPt */\012PUSHW[ ]	/* 1 value pushed */\01245 \012MDAP[1]	/* MoveDirectAbsPt */\012PUSHW[ ]	/* 1 value pushed */\01234 \012SRP0[ ]	/* SetRefPoint0 */\012PUSHW[ ]	/* 1 value pushed */\01249 \012MDRP[10000]	/* MoveDirectRelPt */\012PUSHW[ ]	/* 1 value pushed */\01249 \012MDAP[1]	/* MoveDirectAbsPt */\012PUSHW[ ]	/* 1 value pushed */\01213 \012SRP0[ ]	/* SetRefPoint0 */\012PUSHW[ ]	/* 1 value pushed */\01252 \012MDRP[10000]	/* MoveDirectRelPt */\012PUSHW[ ]	/* 1 value pushed */\01252 \012MDAP[1]	/* MoveDirectAbsPt */\012PUSHW[ ]	/* 3 values pushed */\01254 13 44 \012SRP1[ ]	/* SetRefPoint1 */\012SRP2[ ]	/* SetRefPoint2 */\012IP[ ]	/* InterpolatePts */\012IUP[0]	/* InterpolateUntPts */\012IUP[1]	/* InterpolateUntPts */";
};
width = 362;
}
);
note = Acircumflex.smcap;
},
{
glyphname = Adieresis.smcap;
lastChange = "2021-11-22 23:52:12 +0000";
layers = (
{
layerId = "6544E2DB-1912-401E-9B5B-A29F161A5995";
paths = (
{
closed = 1;
nodes = (
"311 0 LINE",
"315 510 LINE",
"103 510 LINE",
"-37 0 LINE"
);
},
{
closed = 1;
nodes = (
"161 163 LINE",
"167 235 LINE",
"152 163 LINE"
);
},
{
closed = 1;
nodes = (
"115 492 LINE",
"298 492 LINE",
"293 18 LINE",
"147 18 LINE",
"151 84 LINE",
"141 84 LINE",
"139 73.333 OFFCURVE",
"136.667 62.167 OFFCURVE",
"134 50.5 CURVE SMOOTH",
"127 18 LINE",
"-15 18 LINE"
);
},
{
closed = 1;
nodes = (
"120 28 LINE",
"134 94 LINE",
"161 94 LINE",
"156 28 LINE",
"284 28 LINE",
"288 483 LINE",
"121 483 LINE",
"-4 28 LINE"
);
},
{
closed = 1;
nodes = (
"189 387 LINE",
"169 153 LINE",
"142 153 LINE"
);
},
{
closed = 1;
nodes = (
"134.333 555 OFFCURVE",
"116.333 577.333 OFFCURVE",
"119 604 CURVE SMOOTH",
"123 630.667 OFFCURVE",
"148.333 655 OFFCURVE",
"175 655 CURVE SMOOTH",
"201.667 655 OFFCURVE",
"220 630.667 OFFCURVE",
"216 604 CURVE SMOOTH",
"213.333 577.333 OFFCURVE",
"187.667 555 OFFCURVE",
"161 555 CURVE SMOOTH"
);
},
{
closed = 1;
nodes = (
"184.667 564 OFFCURVE",
"205.333 581.333 OFFCURVE",
"208 604 CURVE SMOOTH",
"210.667 626.667 OFFCURVE",
"195.667 645 OFFCURVE",
"173 645 CURVE SMOOTH",
"150.333 645 OFFCURVE",
"130.667 626.667 OFFCURVE",
"128 604 CURVE SMOOTH",
"125.333 581.333 OFFCURVE",
"139.333 564 OFFCURVE",
"162 564 CURVE SMOOTH"
);
},
{
closed = 1;
nodes = (
"187.333 536 OFFCURVE",
"215.667 555.667 OFFCURVE",
"229 585 CURVE",
"231.667 557 OFFCURVE",
"252 536 OFFCURVE",
"284 536 CURVE SMOOTH",
"320 536 OFFCURVE",
"352.667 566.667 OFFCURVE",
"358 604 CURVE SMOOTH",
"364.667 641.333 OFFCURVE",
"339 673 OFFCURVE",
"303 673 CURVE SMOOTH",
"271 673 OFFCURVE",
"244.667 651 OFFCURVE",
"234 623 CURVE",
"228.667 651 OFFCURVE",
"206.333 673 OFFCURVE",
"177 673 CURVE SMOOTH",
"139.667 673 OFFCURVE",
"108.667 641.333 OFFCURVE",
"102 604 CURVE SMOOTH",
"96.667 566.667 OFFCURVE",
"120.667 536 OFFCURVE",
"158 536 CURVE SMOOTH"
);
},
{
closed = 1;
nodes = (
"259 555 OFFCURVE",
"242.333 577.333 OFFCURVE",
"245 604 CURVE SMOOTH",
"249 630.667 OFFCURVE",
"273 655 OFFCURVE",
"301 655 CURVE SMOOTH",
"327.667 655 OFFCURVE",
"345 630.667 OFFCURVE",
"341 604 CURVE SMOOTH",
"338.333 577.333 OFFCURVE",
"313.667 555 OFFCURVE",
"287 555 CURVE SMOOTH"
);
},
{
closed = 1;
nodes = (
"310.667 564 OFFCURVE",
"330.333 581.333 OFFCURVE",
"333 604 CURVE SMOOTH",
"335.667 626.667 OFFCURVE",
"321.667 645 OFFCURVE",
"299 645 CURVE SMOOTH",
"276.333 645 OFFCURVE",
"256.667 626.667 OFFCURVE",
"254 604 CURVE SMOOTH",
"251.333 581.333 OFFCURVE",
"265.333 564 OFFCURVE",
"288 564 CURVE SMOOTH"
);
}
);
userData = {
assembly = "PUSHW[ ]	/* 4 values pushed */\01274 6 73 4 \012CALL[ ]	/* CallFunction */\012PUSHW[ ]	/* 1 value pushed */\01274 \012SRP0[ ]	/* SetRefPoint0 */\012PUSHW[ ]	/* 1 value pushed */\0120 \012MDRP[10000]	/* MoveDirectRelPt */\012PUSHW[ ]	/* 1 value pushed */\0120 \012MDAP[1]	/* MoveDirectAbsPt */\012PUSHW[ ]	/* 1 value pushed */\01245 \012SRP0[ ]	/* SetRefPoint0 */\012PUSHW[ ]	/* 1 value pushed */\0121 \012MDRP[10000]	/* MoveDirectRelPt */\012PUSHW[ ]	/* 1 value pushed */\0121 \012MDAP[1]	/* MoveDirectAbsPt */\012PUSHW[ ]	/* 1 value pushed */\01274 \012SRP0[ ]	/* SetRefPoint0 */\012PUSHW[ ]	/* 2 values pushed */\012101 6 \012MIRP[10100]	/* MoveIndirectRelPt */\012PUSHW[ ]	/* 1 value pushed */\0122 \012MDRP[10000]	/* MoveDirectRelPt */\012PUSHW[ ]	/* 1 value pushed */\0122 \012MDAP[1]	/* MoveDirectAbsPt */\012PUSHW[ ]	/* 1 value pushed */\01274 \012SRP0[ ]	/* SetRefPoint0 */\012PUSHW[ ]	/* 2 values pushed */\0123 6 \012MIRP[10100]	/* MoveIndirectRelPt */\012PUSHW[ ]	/* 3 values pushed */\01210 73 74 \012SRP1[ ]	/* SetRefPoint1 */\012SRP2[ ]	/* SetRefPoint2 */\012IP[ ]	/* InterpolatePts */\012PUSHW[ ]	/* 1 value pushed */\01235 \012MDRP[10000]	/* MoveDirectRelPt */\012PUSHW[ ]	/* 1 value pushed */\01235 \012MDAP[1]	/* MoveDirectAbsPt */\012PUSHW[ ]	/* 1 value pushed */\0123 \012SRP0[ ]	/* SetRefPoint0 */\012PUSHW[ ]	/* 1 value pushed */\01240 \012MDRP[10000]	/* MoveDirectRelPt */\012PUSHW[ ]	/* 1 value pushed */\01273 \012SRP0[ ]	/* SetRefPoint0 */\012PUSHW[ ]	/* 1 value pushed */\01241 \012MDRP[10000]	/* MoveDirectRelPt */\012PUSHW[ ]	/* 1 value pushed */\01241 \012MDAP[1]	/* MoveDirectAbsPt */\012PUSHW[ ]	/* 1 value pushed */\01273 \012SRP0[ ]	/* SetRefPoint0 */\012PUSHW[ ]	/* 1 value pushed */\01271 \012MDRP[10000]	/* MoveDirectRelPt */\012PUSHW[ ]	/* 1 value pushed */\01271 \012MDAP[1]	/* MoveDirectAbsPt */\012PUSHW[ ]	/* 1 value pushed */\01241 \012SRP0[ ]	/* SetRefPoint0 */\012PUSHW[ ]	/* 2 values pushed */\01276 5 \012MIRP[10100]	/* MoveIndirectRelPt */\012PUSHW[ ]	/* 3 values pushed */\01286 73 74 \012SRP1[ ]	/* SetRefPoint1 */\012SRP2[ ]	/* SetRefPoint2 */\012IP[ ]	/* InterpolatePts */\012PUSHW[ ]	/* 3 values pushed */\01298 73 74 \012SRP1[ ]	/* SetRefPoint1 */\012SRP2[ ]	/* SetRefPoint2 */\012IP[ ]	/* InterpolatePts */\012PUSHW[ ]	/* 1 value pushed */\01274 \012SRP0[ ]	/* SetRefPoint0 */\012PUSHW[ ]	/* 1 value pushed */\012105 \012MDRP[11100]	/* MoveDirectRelPt */\012SVTCA[0]	/* SetFreedomAndProjectionVectorToAxis */\012PUSHW[ ]	/* 1 value pushed */\0120 \012RCVT[ ]	/* ReadCVT */\012IF[ ]	/* If */\012PUSHW[ ]	/* 1 value pushed */\01277 \012MDAP[1]	/* MoveDirectAbsPt */\012ELSE[ ]	/* Else */\012PUSHW[ ]	/* 2 values pushed */\01277 7 \012MIAP[0]	/* MoveIndirectAbsPt */\012EIF[ ]	/* EndIf */\012PUSHW[ ]	/* 4 values pushed */\01214 2 20 4 \012CALL[ ]	/* CallFunction */\012PUSHW[ ]	/* 4 values pushed */\01257 2 66 4 \012CALL[ ]	/* CallFunction */\012PUSHW[ ]	/* 1 value pushed */\01214 \012SRP0[ ]	/* SetRefPoint0 */\012PUSHW[ ]	/* 1 value pushed */\01226 \012MDRP[10000]	/* MoveDirectRelPt */\012PUSHW[ ]	/* 1 value pushed */\01220 \012SRP0[ ]	/* SetRefPoint0 */\012PUSHW[ ]	/* 1 value pushed */\01232 \012MDRP[10000]	/* MoveDirectRelPt */\012PUSHW[ ]	/* 1 value pushed */\01257 \012SRP0[ ]	/* SetRefPoint0 */\012PUSHW[ ]	/* 1 value pushed */\01245 \012MDRP[10000]	/* MoveDirectRelPt */\012PUSHW[ ]	/* 1 value pushed */\01220 \012SRP0[ ]	/* SetRefPoint0 */\012PUSHW[ ]	/* 2 values pushed */\01289 4 \012MIRP[10100]	/* MoveIndirectRelPt */\012PUSHW[ ]	/* 1 value pushed */\01283 \012MDRP[10000]	/* MoveDirectRelPt */\012PUSHW[ ]	/* 3 values pushed */\01286 20 14 \012SRP1[ ]	/* SetRefPoint1 */\012SRP2[ ]	/* SetRefPoint2 */\012IP[ ]	/* InterpolatePts */\012PUSHW[ ]	/* 1 value pushed */\01214 \012SRP0[ ]	/* SetRefPoint0 */\012PUSHW[ ]	/* 2 values pushed */\01295 4 \012MIRP[10100]	/* MoveIndirectRelPt */\012PUSHW[ ]	/* 3 values pushed */\01298 20 14 \012SRP1[ ]	/* SetRefPoint1 */\012SRP2[ ]	/* SetRefPoint2 */\012IP[ ]	/* InterpolatePts */\012PUSHW[ ]	/* 1 value pushed */\012101 \012MDRP[10000]	/* MoveDirectRelPt */\012IUP[0]	/* InterpolateUntPts */\012IUP[1]	/* InterpolateUntPts */";
};
width = 362;
}
);
note = Adieresis.smcap;
},
{
glyphname = Agrave.smcap;
lastChange = "2021-11-22 23:52:12 +0000";
layers = (
{
layerId = "6544E2DB-1912-401E-9B5B-A29F161A5995";
paths = (
{
closed = 1;
nodes = (
"311 0 LINE",
"314 499 LINE",
"328 499 LINE",
"240 630 LINE",
"69 630 LINE",
"186 508 LINE",
"103 508 LINE",
"-37 0 LINE"
);
},
{
closed = 1;
nodes = (
"161 162 LINE",
"166 234 LINE",
"152 162 LINE"
);
},
{
closed = 1;
nodes = (
"114 489 LINE",
"297 489 LINE",
"293 18 LINE",
"147 18 LINE",
"151 84 LINE",
"141 84 LINE",
"139 73.333 OFFCURVE",
"136.667 62 OFFCURVE",
"134 50 CURVE SMOOTH",
"127 18 LINE",
"-15 18 LINE"
);
},
{
closed = 1;
nodes = (
"120 27 LINE",
"134 93 LINE",
"161 93 LINE",
"156 27 LINE",
"284 27 LINE",
"288 480 LINE",
"121 480 LINE",
"-4 27 LINE"
);
},
{
closed = 1;
nodes = (
"188 384 LINE",
"169 152 LINE",
"142 152 LINE"
);
},
{
closed = 1;
nodes = (
"113 612 LINE",
"230 612 LINE",
"293 517 LINE",
"203 517 LINE"
);
},
{
closed = 1;
nodes = (
"275 526 LINE",
"224 603 LINE",
"134 603 LINE",
"208 526 LINE"
);
}
);
userData = {
assembly = "PUSHW[ ]	/* 4 values pushed */\01234 6 33 4 \012CALL[ ]	/* CallFunction */\012PUSHW[ ]	/* 1 value pushed */\01234 \012SRP0[ ]	/* SetRefPoint0 */\012PUSHW[ ]	/* 1 value pushed */\0120 \012MDRP[10000]	/* MoveDirectRelPt */\012PUSHW[ ]	/* 1 value pushed */\0120 \012MDAP[1]	/* MoveDirectAbsPt */\012PUSHW[ ]	/* 2 values pushed */\0122 6 \012MIRP[10100]	/* MoveIndirectRelPt */\012PUSHW[ ]	/* 1 value pushed */\01234 \012SRP0[ ]	/* SetRefPoint0 */\012PUSHW[ ]	/* 2 values pushed */\01215 6 \012MIRP[10100]	/* MoveIndirectRelPt */\012PUSHW[ ]	/* 1 value pushed */\0123 \012MDRP[10000]	/* MoveDirectRelPt */\012PUSHW[ ]	/* 1 value pushed */\0123 \012MDAP[1]	/* MoveDirectAbsPt */\012PUSHW[ ]	/* 1 value pushed */\01215 \012SRP0[ ]	/* SetRefPoint0 */\012PUSHW[ ]	/* 1 value pushed */\0129 \012MDRP[10000]	/* MoveDirectRelPt */\012PUSHW[ ]	/* 1 value pushed */\0129 \012MDAP[1]	/* MoveDirectAbsPt */\012PUSHW[ ]	/* 3 values pushed */\01210 33 34 \012SRP1[ ]	/* SetRefPoint1 */\012SRP2[ ]	/* SetRefPoint2 */\012IP[ ]	/* InterpolatePts */\012PUSHW[ ]	/* 3 values pushed */\01213 33 34 \012SRP1[ ]	/* SetRefPoint1 */\012SRP2[ ]	/* SetRefPoint2 */\012IP[ ]	/* InterpolatePts */\012PUSHW[ ]	/* 1 value pushed */\01215 \012SRP0[ ]	/* SetRefPoint0 */\012PUSHW[ ]	/* 1 value pushed */\01220 \012MDRP[10000]	/* MoveDirectRelPt */\012PUSHW[ ]	/* 1 value pushed */\01220 \012MDAP[1]	/* MoveDirectAbsPt */\012PUSHW[ ]	/* 1 value pushed */\01233 \012SRP0[ ]	/* SetRefPoint0 */\012PUSHW[ ]	/* 1 value pushed */\01221 \012MDRP[10000]	/* MoveDirectRelPt */\012PUSHW[ ]	/* 1 value pushed */\01221 \012MDAP[1]	/* MoveDirectAbsPt */\012PUSHW[ ]	/* 2 values pushed */\01241 5 \012MIRP[10100]	/* MoveIndirectRelPt */\012PUSHW[ ]	/* 3 values pushed */\01223 21 41 \012SRP1[ ]	/* SetRefPoint1 */\012SRP2[ ]	/* SetRefPoint2 */\012IP[ ]	/* InterpolatePts */\012PUSHW[ ]	/* 1 value pushed */\01233 \012SRP0[ ]	/* SetRefPoint0 */\012PUSHW[ ]	/* 1 value pushed */\01231 \012MDRP[10000]	/* MoveDirectRelPt */\012PUSHW[ ]	/* 1 value pushed */\01231 \012MDAP[1]	/* MoveDirectAbsPt */\012PUSHW[ ]	/* 3 values pushed */\01236 33 34 \012SRP1[ ]	/* SetRefPoint1 */\012SRP2[ ]	/* SetRefPoint2 */\012IP[ ]	/* InterpolatePts */\012PUSHW[ ]	/* 1 value pushed */\01234 \012SRP0[ ]	/* SetRefPoint0 */\012PUSHW[ ]	/* 1 value pushed */\01245 \012MDRP[11100]	/* MoveDirectRelPt */\012SVTCA[0]	/* SetFreedomAndProjectionVectorToAxis */\012PUSHW[ ]	/* 1 value pushed */\0120 \012RCVT[ ]	/* ReadCVT */\012IF[ ]	/* If */\012PUSHW[ ]	/* 1 value pushed */\01239 \012MDAP[1]	/* MoveDirectAbsPt */\012ELSE[ ]	/* Else */\012PUSHW[ ]	/* 2 values pushed */\01239 11 \012MIAP[0]	/* MoveIndirectAbsPt */\012EIF[ ]	/* EndIf */\012PUSHW[ ]	/* 1 value pushed */\0120 \012RCVT[ ]	/* ReadCVT */\012IF[ ]	/* If */\012PUSHW[ ]	/* 1 value pushed */\01241 \012MDAP[1]	/* MoveDirectAbsPt */\012ELSE[ ]	/* Else */\012PUSHW[ ]	/* 2 values pushed */\01241 7 \012MIAP[0]	/* MoveIndirectAbsPt */\012EIF[ ]	/* EndIf */\012PUSHW[ ]	/* 4 values pushed */\01212 2 14 4 \012CALL[ ]	/* CallFunction */\012PUSHW[ ]	/* 3 values pushed */\01222 26 3 \012CALL[ ]	/* CallFunction */\012PUSHW[ ]	/* 3 values pushed */\0126 41 39 \012SRP1[ ]	/* SetRefPoint1 */\012SRP2[ ]	/* SetRefPoint2 */\012IP[ ]	/* InterpolatePts */\012PUSHW[ ]	/* 3 values pushed */\01210 41 39 \012SRP1[ ]	/* SetRefPoint1 */\012SRP2[ ]	/* SetRefPoint2 */\012IP[ ]	/* InterpolatePts */\012PUSHW[ ]	/* 3 values pushed */\01215 41 39 \012SRP1[ ]	/* SetRefPoint1 */\012SRP2[ ]	/* SetRefPoint2 */\012IP[ ]	/* InterpolatePts */\012PUSHW[ ]	/* 1 value pushed */\01214 \012SRP0[ ]	/* SetRefPoint0 */\012PUSHW[ ]	/* 2 values pushed */\01238 3 \012MIRP[10100]	/* MoveIndirectRelPt */\012PUSHW[ ]	/* 3 values pushed */\01225 14 38 \012SRP1[ ]	/* SetRefPoint1 */\012SRP2[ ]	/* SetRefPoint2 */\012IP[ ]	/* InterpolatePts */\012PUSHW[ ]	/* 3 values pushed */\01236 26 22 \012SRP1[ ]	/* SetRefPoint1 */\012SRP2[ ]	/* SetRefPoint2 */\012IP[ ]	/* InterpolatePts */\012IUP[0]	/* InterpolateUntPts */\012IUP[1]	/* InterpolateUntPts */";
};
width = 362;
}
);
note = Agrave.smcap;
},
{
glyphname = Aring.smcap;
lastChange = "2021-11-22 23:52:12 +0000";
layers = (
{
layerId = "6544E2DB-1912-401E-9B5B-A29F161A5995";
paths = (
{
closed = 1;
nodes = (
"311 0 LINE",
"315 509 LINE",
"292 509 LINE",
"300 522.333 OFFCURVE",
"305 536 OFFCURVE",
"307 550 CURVE SMOOTH",
"315.013 606.088 OFFCURVE",
"274.988 653 OFFCURVE",
"222 653 CURVE SMOOTH",
"166.876 653 OFFCURVE",
"119.124 606.87 OFFCURVE",
"111 550 CURVE SMOOTH",
"109 534.667 OFFCURVE",
"109.333 521 OFFCURVE",
"112 509 CURVE",
"103 509 LINE",
"-37 0 LINE"
);
},
{
closed = 1;
nodes = (
"161 162 LINE",
"166 234 LINE",
"152 162 LINE"
);
},
{
closed = 1;
nodes = (
"189 386 LINE",
"169 153 LINE",
"142 153 LINE"
);
},
{
closed = 1;
nodes = (
"115 491 LINE",
"143 491 LINE",
"131 505.667 OFFCURVE",
"125.333 527.333 OFFCURVE",
"128 550 CURVE SMOOTH",
"134.667 596.667 OFFCURVE",
"173.333 635 OFFCURVE",
"220 635 CURVE SMOOTH",
"264 635 OFFCURVE",
"296.667 596.667 OFFCURVE",
"290 550 CURVE SMOOTH",
"287.333 527.333 OFFCURVE",
"273.333 505.667 OFFCURVE",
"256 491 CURVE",
"298 491 LINE",
"293 18 LINE",
"147 18 LINE",
"151 84 LINE",
"141 84 LINE",
"139 73.333 OFFCURVE",
"136.667 62.167 OFFCURVE",
"134 50.5 CURVE SMOOTH",
"127 18 LINE",
"-15 18 LINE"
);
},
{
closed = 1;
nodes = (
"120 27 LINE",
"134 93 LINE",
"161 93 LINE",
"156 27 LINE",
"284 27 LINE",
"288 482 LINE",
"224 482 LINE",
"253.333 492.667 OFFCURVE",
"275.667 519.333 OFFCURVE",
"281 550 CURVE SMOOTH",
"287.667 592.667 OFFCURVE",
"256.667 626 OFFCURVE",
"218 626 CURVE SMOOTH",
"176.667 626 OFFCURVE",
"142.667 592.667 OFFCURVE",
"136 550 CURVE SMOOTH",
"130.667 519.333 OFFCURVE",
"145.333 492.667 OFFCURVE",
"172 482 CURVE",
"121 482 LINE",
"-4 27 LINE"
);
},
{
closed = 1;
nodes = (
"184.333 517 OFFCURVE",
"172.333 531.333 OFFCURVE",
"175 550 CURVE SMOOTH",
"177.667 571.333 OFFCURVE",
"194.333 587 OFFCURVE",
"213 587 CURVE SMOOTH",
"231.667 587 OFFCURVE",
"244.667 571.333 OFFCURVE",
"242 550 CURVE SMOOTH",
"239.333 531.333 OFFCURVE",
"221.667 517 OFFCURVE",
"203 517 CURVE SMOOTH"
);
},
{
closed = 1;
nodes = (
"218.667 526 OFFCURVE",
"231.333 536.667 OFFCURVE",
"234 550 CURVE SMOOTH",
"236.667 564.667 OFFCURVE",
"226.667 578 OFFCURVE",
"212 578 CURVE SMOOTH",
"198.667 578 OFFCURVE",
"186.667 564.667 OFFCURVE",
"184 550 CURVE SMOOTH",
"181.333 536.667 OFFCURVE",
"190.667 526 OFFCURVE",
"204 526 CURVE SMOOTH"
);
},
{
closed = 1;
nodes = (
"201.667 544 OFFCURVE",
"199.667 546 OFFCURVE",
"201 550 CURVE SMOOTH",
"202.333 556.667 OFFCURVE",
"205 560 OFFCURVE",
"209 560 CURVE SMOOTH",
"215.667 560 OFFCURVE",
"218.333 556.667 OFFCURVE",
"217 550 CURVE SMOOTH",
"215.667 546 OFFCURVE",
"212.333 544 OFFCURVE",
"207 544 CURVE SMOOTH"
);
}
);
userData = {
assembly = "PUSHW[ ]	/* 4 values pushed */\01267 6 66 4 \012CALL[ ]	/* CallFunction */\012PUSHW[ ]	/* 3 values pushed */\0129 66 67 \012SRP1[ ]	/* SetRefPoint1 */\012SRP2[ ]	/* SetRefPoint2 */\012IP[ ]	/* InterpolatePts */\012PUSHW[ ]	/* 1 value pushed */\01267 \012SRP0[ ]	/* SetRefPoint0 */\012PUSHW[ ]	/* 1 value pushed */\01210 \012MDRP[10000]	/* MoveDirectRelPt */\012PUSHW[ ]	/* 1 value pushed */\01210 \012MDAP[1]	/* MoveDirectAbsPt */\012PUSHW[ ]	/* 2 values pushed */\01212 6 \012MIRP[10100]	/* MoveIndirectRelPt */\012PUSHW[ ]	/* 1 value pushed */\01267 \012SRP0[ ]	/* SetRefPoint0 */\012PUSHW[ ]	/* 2 values pushed */\01236 6 \012MIRP[10100]	/* MoveIndirectRelPt */\012PUSHW[ ]	/* 1 value pushed */\01213 \012MDRP[10000]	/* MoveDirectRelPt */\012PUSHW[ ]	/* 1 value pushed */\01213 \012MDAP[1]	/* MoveDirectAbsPt */\012PUSHW[ ]	/* 3 values pushed */\01218 66 67 \012SRP1[ ]	/* SetRefPoint1 */\012SRP2[ ]	/* SetRefPoint2 */\012IP[ ]	/* InterpolatePts */\012PUSHW[ ]	/* 1 value pushed */\01236 \012SRP0[ ]	/* SetRefPoint0 */\012PUSHW[ ]	/* 1 value pushed */\01234 \012MDRP[10000]	/* MoveDirectRelPt */\012PUSHW[ ]	/* 1 value pushed */\01234 \012MDAP[1]	/* MoveDirectAbsPt */\012PUSHW[ ]	/* 3 values pushed */\01235 66 67 \012SRP1[ ]	/* SetRefPoint1 */\012SRP2[ ]	/* SetRefPoint2 */\012IP[ ]	/* InterpolatePts */\012PUSHW[ ]	/* 1 value pushed */\01236 \012SRP0[ ]	/* SetRefPoint0 */\012PUSHW[ ]	/* 1 value pushed */\01241 \012MDRP[10000]	/* MoveDirectRelPt */\012PUSHW[ ]	/* 1 value pushed */\01241 \012MDAP[1]	/* MoveDirectAbsPt */\012PUSHW[ ]	/* 1 value pushed */\01266 \012SRP0[ ]	/* SetRefPoint0 */\012PUSHW[ ]	/* 1 value pushed */\01242 \012MDRP[10000]	/* MoveDirectRelPt */\012PUSHW[ ]	/* 1 value pushed */\01242 \012MDAP[1]	/* MoveDirectAbsPt */\012PUSHW[ ]	/* 1 value pushed */\01266 \012SRP0[ ]	/* SetRefPoint0 */\012PUSHW[ ]	/* 1 value pushed */\01264 \012MDRP[10000]	/* MoveDirectRelPt */\012PUSHW[ ]	/* 1 value pushed */\01264 \012MDAP[1]	/* MoveDirectAbsPt */\012PUSHW[ ]	/* 3 values pushed */\01258 66 64 \012SRP1[ ]	/* SetRefPoint1 */\012SRP2[ ]	/* SetRefPoint2 */\012IP[ ]	/* InterpolatePts */\012PUSHW[ ]	/* 3 values pushed */\01269 66 67 \012SRP1[ ]	/* SetRefPoint1 */\012SRP2[ ]	/* SetRefPoint2 */\012IP[ ]	/* InterpolatePts */\012PUSHW[ ]	/* 3 values pushed */\01290 66 67 \012SRP1[ ]	/* SetRefPoint1 */\012SRP2[ ]	/* SetRefPoint2 */\012IP[ ]	/* InterpolatePts */\012PUSHW[ ]	/* 1 value pushed */\01242 \012SRP0[ ]	/* SetRefPoint0 */\012PUSHW[ ]	/* 2 values pushed */\01292 5 \012MIRP[10100]	/* MoveIndirectRelPt */\012PUSHW[ ]	/* 1 value pushed */\01267 \012SRP0[ ]	/* SetRefPoint0 */\012PUSHW[ ]	/* 1 value pushed */\012106 \012MDRP[11100]	/* MoveDirectRelPt */\012SVTCA[0]	/* SetFreedomAndProjectionVectorToAxis */\012PUSHW[ ]	/* 1 value pushed */\0120 \012RCVT[ ]	/* ReadCVT */\012IF[ ]	/* If */\012PUSHW[ ]	/* 1 value pushed */\01292 \012MDAP[1]	/* MoveDirectAbsPt */\012ELSE[ ]	/* Else */\012PUSHW[ ]	/* 2 values pushed */\01292 7 \012MIAP[0]	/* MoveIndirectAbsPt */\012EIF[ ]	/* EndIf */\012PUSHW[ ]	/* 3 values pushed */\0123 30 3 \012CALL[ ]	/* CallFunction */\012PUSHW[ ]	/* 4 values pushed */\01246 2 52 4 \012CALL[ ]	/* CallFunction */\012PUSHW[ ]	/* 3 values pushed */\01224 69 3 \012CALL[ ]	/* CallFunction */\012PUSHW[ ]	/* 1 value pushed */\01269 \012SRP0[ ]	/* SetRefPoint0 */\012PUSHW[ ]	/* 1 value pushed */\01258 \012MDRP[10000]	/* MoveDirectRelPt */\012PUSHW[ ]	/* 1 value pushed */\01230 \012SRP0[ ]	/* SetRefPoint0 */\012PUSHW[ ]	/* 2 values pushed */\01283 2 \012MIRP[10100]	/* MoveIndirectRelPt */\012PUSHW[ ]	/* 3 values pushed */\01290 69 24 \012SRP1[ ]	/* SetRefPoint1 */\012SRP2[ ]	/* SetRefPoint2 */\012IP[ ]	/* InterpolatePts */\012IUP[0]	/* InterpolateUntPts */\012IUP[1]	/* InterpolateUntPts */";
};
width = 362;
}
);
note = Aring.smcap;
rightKerningGroup = a;
},
{
glyphname = Atilde.smcap;
lastChange = "2021-11-22 23:52:12 +0000";
layers = (
{
layerId = "6544E2DB-1912-401E-9B5B-A29F161A5995";
paths = (
{
closed = 1;
nodes = (
"311 0 LINE",
"315 508 LINE",
"285 508 LINE",
"313 528 OFFCURVE",
"340 570 OFFCURVE",
"348 630 CURVE",
"266 630 LINE",
"264 623.333 OFFCURVE",
"262.333 617.333 OFFCURVE",
"261 612 CURVE SMOOTH",
"258 602 LINE",
"254 603.333 OFFCURVE",
"250 605.333 OFFCURVE",
"246 608 CURVE SMOOTH",
"219 623.5 LINE SMOOTH",
"210.333 628.5 OFFCURVE",
"201 631.667 OFFCURVE",
"191 633 CURVE SMOOTH",
"138.171 638.561 OFFCURVE",
"98.83 572.183 OFFCURVE",
"89 496 CURVE",
"99 496 LINE",
"-37 0 LINE"
);
},
{
closed = 1;
nodes = (
"161 162 LINE",
"166 234 LINE",
"152 162 LINE"
);
},
{
closed = 1;
nodes = (
"114 490 LINE",
"297 490 LINE",
"293 18 LINE",
"147 18 LINE",
"151 84 LINE",
"141 84 LINE",
"139 73.333 OFFCURVE",
"136.667 62 OFFCURVE",
"134 50 CURVE SMOOTH",
"127 18 LINE",
"-15 18 LINE"
);
},
{
closed = 1;
nodes = (
"120 27 LINE",
"134 93 LINE",
"161 93 LINE",
"156 27 LINE",
"284 27 LINE",
"288 481 LINE",
"121 481 LINE",
"-4 27 LINE"
);
},
{
closed = 1;
nodes = (
"189 385 LINE",
"169 153 LINE",
"142 153 LINE"
);
},
{
closed = 1;
nodes = (
"172 521.5 LINE SMOOTH",
"172.667 525.167 OFFCURVE",
"172.333 527.333 OFFCURVE",
"171 528 CURVE",
"181.667 526.667 OFFCURVE",
"188.667 521.667 OFFCURVE",
"198 515 CURVE SMOOTH",
"197 516 LINE",
"207 508 LINE",
"170 508 LINE"
);
},
{
closed = 1;
nodes = (
"233.667 513.333 OFFCURVE",
"221 522.667 OFFCURVE",
"209 532 CURVE",
"209 531 LINE",
"198.333 539 OFFCURVE",
"187 544.667 OFFCURVE",
"175 546 CURVE SMOOTH",
"167 547.333 OFFCURVE",
"157.667 531.333 OFFCURVE",
"155 514 CURVE",
"109 514 LINE",
"117 575.333 OFFCURVE",
"146.667 617.667 OFFCURVE",
"188 615 CURVE SMOOTH",
"204 613.667 OFFCURVE",
"216 605 OFFCURVE",
"228 597 CURVE SMOOTH",
"238 589.667 OFFCURVE",
"247.333 585.333 OFFCURVE",
"256 584 CURVE SMOOTH",
"269.333 582.667 OFFCURVE",
"275 597.333 OFFCURVE",
"279 612 CURVE",
"329 612 LINE",
"319.113 552.676 OFFCURVE",
"282.794 512 OFFCURVE",
"247 512 CURVE"
);
},
{
closed = 1;
nodes = (
"276.667 519.333 OFFCURVE",
"311.333 549.667 OFFCURVE",
"318 603 CURVE",
"285 603 LINE",
"281 588.333 OFFCURVE",
"275.667 573.667 OFFCURVE",
"253 575 CURVE SMOOTH",
"233.639 575 OFFCURVE",
"208.244 603.776 OFFCURVE",
"186 606 CURVE SMOOTH",
"151.333 608.667 OFFCURVE",
"125.667 573.667 OFFCURVE",
"119 523 CURVE",
"147 523 LINE",
"151 541.667 OFFCURVE",
"163.333 557.667 OFFCURVE",
"178 555 CURVE",
"203.449 555 OFFCURVE",
"225.28 522 OFFCURVE",
"250 522 CURVE"
);
}
);
userData = {
assembly = "PUSHW[ ]	/* 4 values pushed */\01279 5 22 4 \012CALL[ ]	/* CallFunction */\012PUSHW[ ]	/* 1 value pushed */\01278 \012SRP0[ ]	/* SetRefPoint0 */\012PUSHW[ ]	/* 1 value pushed */\0120 \012MDRP[10000]	/* MoveDirectRelPt */\012PUSHW[ ]	/* 1 value pushed */\0120 \012MDAP[1]	/* MoveDirectAbsPt */\012PUSHW[ ]	/* 1 value pushed */\01279 \012SRP0[ ]	/* SetRefPoint0 */\012PUSHW[ ]	/* 2 values pushed */\01235 6 \012MIRP[10100]	/* MoveIndirectRelPt */\012PUSHW[ ]	/* 1 value pushed */\0123 \012MDRP[10000]	/* MoveDirectRelPt */\012PUSHW[ ]	/* 1 value pushed */\0123 \012MDAP[1]	/* MoveDirectAbsPt */\012PUSHW[ ]	/* 1 value pushed */\01235 \012SRP0[ ]	/* SetRefPoint0 */\012PUSHW[ ]	/* 1 value pushed */\0129 \012MDRP[10000]	/* MoveDirectRelPt */\012PUSHW[ ]	/* 1 value pushed */\0129 \012MDAP[1]	/* MoveDirectAbsPt */\012PUSHW[ ]	/* 3 values pushed */\01210 22 79 \012SRP1[ ]	/* SetRefPoint1 */\012SRP2[ ]	/* SetRefPoint2 */\012IP[ ]	/* InterpolatePts */\012PUSHW[ ]	/* 1 value pushed */\01222 \012SRP0[ ]	/* SetRefPoint0 */\012PUSHW[ ]	/* 1 value pushed */\01241 \012MDRP[10000]	/* MoveDirectRelPt */\012PUSHW[ ]	/* 1 value pushed */\01241 \012MDAP[1]	/* MoveDirectAbsPt */\012PUSHW[ ]	/* 2 values pushed */\01285 5 \012MIRP[10100]	/* MoveIndirectRelPt */\012PUSHW[ ]	/* 1 value pushed */\01211 \012MDRP[10000]	/* MoveDirectRelPt */\012PUSHW[ ]	/* 1 value pushed */\01211 \012MDAP[1]	/* MoveDirectAbsPt */\012PUSHW[ ]	/* 1 value pushed */\01235 \012SRP0[ ]	/* SetRefPoint0 */\012PUSHW[ ]	/* 1 value pushed */\01240 \012MDRP[10000]	/* MoveDirectRelPt */\012PUSHW[ ]	/* 1 value pushed */\01240 \012MDAP[1]	/* MoveDirectAbsPt */\012PUSHW[ ]	/* 1 value pushed */\01222 \012SRP0[ ]	/* SetRefPoint0 */\012PUSHW[ ]	/* 1 value pushed */\01275 \012MDRP[10000]	/* MoveDirectRelPt */\012PUSHW[ ]	/* 1 value pushed */\01275 \012MDAP[1]	/* MoveDirectAbsPt */\012PUSHW[ ]	/* 1 value pushed */\01222 \012SRP0[ ]	/* SetRefPoint0 */\012PUSHW[ ]	/* 1 value pushed */\01276 \012MDRP[10000]	/* MoveDirectRelPt */\012PUSHW[ ]	/* 1 value pushed */\01276 \012MDAP[1]	/* MoveDirectAbsPt */\012PUSHW[ ]	/* 1 value pushed */\01241 \012SRP0[ ]	/* SetRefPoint0 */\012PUSHW[ ]	/* 2 values pushed */\01283 6 \012MIRP[10100]	/* MoveIndirectRelPt */\012PUSHW[ ]	/* 1 value pushed */\01235 \012SRP0[ ]	/* SetRefPoint0 */\012PUSHW[ ]	/* 1 value pushed */\012106 \012MDRP[10000]	/* MoveDirectRelPt */\012PUSHW[ ]	/* 1 value pushed */\012106 \012MDAP[1]	/* MoveDirectAbsPt */\012PUSHW[ ]	/* 3 values pushed */\012107 22 79 \012SRP1[ ]	/* SetRefPoint1 */\012SRP2[ ]	/* SetRefPoint2 */\012IP[ ]	/* InterpolatePts */\012PUSHW[ ]	/* 1 value pushed */\01279 \012SRP0[ ]	/* SetRefPoint0 */\012PUSHW[ ]	/* 1 value pushed */\012113 \012MDRP[11100]	/* MoveDirectRelPt */\012SVTCA[0]	/* SetFreedomAndProjectionVectorToAxis */\012PUSHW[ ]	/* 1 value pushed */\0120 \012RCVT[ ]	/* ReadCVT */\012IF[ ]	/* If */\012PUSHW[ ]	/* 1 value pushed */\01270 \012MDAP[1]	/* MoveDirectAbsPt */\012ELSE[ ]	/* Else */\012PUSHW[ ]	/* 2 values pushed */\01270 11 \012MIAP[0]	/* MoveIndirectAbsPt */\012EIF[ ]	/* EndIf */\012PUSHW[ ]	/* 1 value pushed */\0120 \012RCVT[ ]	/* ReadCVT */\012IF[ ]	/* If */\012PUSHW[ ]	/* 1 value pushed */\01287 \012MDAP[1]	/* MoveDirectAbsPt */\012ELSE[ ]	/* Else */\012PUSHW[ ]	/* 2 values pushed */\01287 11 \012MIAP[0]	/* MoveIndirectAbsPt */\012EIF[ ]	/* EndIf */\012PUSHW[ ]	/* 1 value pushed */\0120 \012RCVT[ ]	/* ReadCVT */\012IF[ ]	/* If */\012PUSHW[ ]	/* 1 value pushed */\01285 \012MDAP[1]	/* MoveDirectAbsPt */\012ELSE[ ]	/* Else */\012PUSHW[ ]	/* 2 values pushed */\01285 7 \012MIAP[0]	/* MoveIndirectAbsPt */\012EIF[ ]	/* EndIf */\012PUSHW[ ]	/* 4 values pushed */\012102 4 79 4 \012CALL[ ]	/* CallFunction */\012PUSHW[ ]	/* 3 values pushed */\0126 85 87 \012SRP1[ ]	/* SetRefPoint1 */\012SRP2[ ]	/* SetRefPoint2 */\012IP[ ]	/* InterpolatePts */\012PUSHW[ ]	/* 3 values pushed */\01210 85 87 \012SRP1[ ]	/* SetRefPoint1 */\012SRP2[ ]	/* SetRefPoint2 */\012IP[ ]	/* InterpolatePts */\012PUSHW[ ]	/* 3 values pushed */\01235 85 87 \012SRP1[ ]	/* SetRefPoint1 */\012SRP2[ ]	/* SetRefPoint2 */\012IP[ ]	/* InterpolatePts */\012PUSHW[ ]	/* 3 values pushed */\01271 85 87 \012SRP1[ ]	/* SetRefPoint1 */\012SRP2[ ]	/* SetRefPoint2 */\012IP[ ]	/* InterpolatePts */\012PUSHW[ ]	/* 3 values pushed */\01283 79 102 \012SRP1[ ]	/* SetRefPoint1 */\012SRP2[ ]	/* SetRefPoint2 */\012IP[ ]	/* InterpolatePts */\012PUSHW[ ]	/* 1 value pushed */\01279 \012SRP0[ ]	/* SetRefPoint0 */\012PUSHW[ ]	/* 1 value pushed */\01288 \012MDRP[10000]	/* MoveDirectRelPt */\012PUSHW[ ]	/* 1 value pushed */\01288 \012MDAP[1]	/* MoveDirectAbsPt */\012PUSHW[ ]	/* 1 value pushed */\012102 \012SRP0[ ]	/* SetRefPoint0 */\012PUSHW[ ]	/* 1 value pushed */\01293 \012MDRP[10000]	/* MoveDirectRelPt */\012PUSHW[ ]	/* 1 value pushed */\01293 \012MDAP[1]	/* MoveDirectAbsPt */\012PUSHW[ ]	/* 3 values pushed */\012107 79 102 \012SRP1[ ]	/* SetRefPoint1 */\012SRP2[ ]	/* SetRefPoint2 */\012IP[ ]	/* InterpolatePts */\012IUP[0]	/* InterpolateUntPts */\012IUP[1]	/* InterpolateUntPts */";
};
width = 362;
}
);
note = Atilde.smcap;
},
{
glyphname = AE.smcap;
lastChange = "2021-11-22 23:52:12 +0000";
layers = (
{
layerId = "6544E2DB-1912-401E-9B5B-A29F161A5995";
paths = (
{
closed = 1;
nodes = (
"402 0 LINE",
"420 135 LINE",
"326 135 LINE",
"326 180 LINE",
"420 180 LINE",
"440 327 LINE",
"327 327 LINE",
"328.333 341.667 OFFCURVE",
"327.333 350.667 OFFCURVE",
"326 360 CURVE",
"452 360 LINE",
"471 496 LINE",
"108 496 LINE",
"-32 0 LINE"
);
},
{
closed = 1;
nodes = (
"171 158 LINE",
"177 230 LINE",
"162 158 LINE"
);
},
{
closed = 1;
nodes = (
"194 357 LINE",
"197 376 LINE",
"196 357 LINE",
"178 149 LINE",
"152 149 LINE"
);
},
{
closed = 1;
nodes = (
"120 478 LINE",
"451 478 LINE",
"436 377 LINE",
"307 377 LINE",
"308.333 354.333 OFFCURVE",
"309 334 OFFCURVE",
"309 310 CURVE",
"420 310 LINE",
"404 198 LINE",
"308 198 LINE",
"307.333 184 OFFCURVE",
"307.333 170.5 OFFCURVE",
"308 157.5 CURVE SMOOTH",
"308.667 144.5 OFFCURVE",
"308.667 131 OFFCURVE",
"308 117 CURVE",
"400 117 LINE",
"386 18 LINE",
"158 18 LINE",
"160 82 LINE",
"150 82 LINE",
"148.667 72 OFFCURVE",
"146.667 61.167 OFFCURVE",
"144 49.5 CURVE SMOOTH",
"137 18 LINE",
"-9 18 LINE"
);
},
{
closed = 1;
nodes = (
"129 27 LINE",
"143 91 LINE",
"170 91 LINE",
"167 27 LINE",
"378 27 LINE",
"390 108 LINE",
"299 108 LINE",
"300 207 LINE",
"397 207 LINE",
"410 301 LINE",
"300 301 LINE",
"300 386 LINE",
"429 386 LINE",
"440 469 LINE",
"126 469 LINE",
"2 27 LINE"
);
}
);
userData = {
assembly = "SVTCA[0]	/* SetFreedomAndProjectionVectorToAxis */\012PUSHW[ ]	/* 1 value pushed */\0120 \012RCVT[ ]	/* ReadCVT */\012IF[ ]	/* If */\012PUSHW[ ]	/* 1 value pushed */\01246 \012MDAP[1]	/* MoveDirectAbsPt */\012ELSE[ ]	/* Else */\012PUSHW[ ]	/* 2 values pushed */\01246 11 \012MIAP[0]	/* MoveIndirectAbsPt */\012EIF[ ]	/* EndIf */\012PUSHW[ ]	/* 1 value pushed */\0120 \012RCVT[ ]	/* ReadCVT */\012IF[ ]	/* If */\012PUSHW[ ]	/* 1 value pushed */\01258 \012MDAP[1]	/* MoveDirectAbsPt */\012ELSE[ ]	/* Else */\012PUSHW[ ]	/* 2 values pushed */\01258 7 \012MIAP[0]	/* MoveIndirectAbsPt */\012EIF[ ]	/* EndIf */\012PUSHW[ ]	/* 4 values pushed */\01256 4 14 4 \012CALL[ ]	/* CallFunction */\012PUSHW[ ]	/* 4 values pushed */\01231 2 26 4 \012CALL[ ]	/* CallFunction */\012PUSHW[ ]	/* 4 values pushed */\0129 4 54 4 \012CALL[ ]	/* CallFunction */\012PUSHW[ ]	/* 4 values pushed */\01237 2 32 4 \012CALL[ ]	/* CallFunction */\012PUSHW[ ]	/* 1 value pushed */\01214 \012SRP0[ ]	/* SetRefPoint0 */\012PUSHW[ ]	/* 1 value pushed */\0122 \012MDRP[10000]	/* MoveDirectRelPt */\012PUSHW[ ]	/* 1 value pushed */\01258 \012SRP0[ ]	/* SetRefPoint0 */\012PUSHW[ ]	/* 2 values pushed */\01212 4 \012MIRP[10100]	/* MoveIndirectRelPt */\012PUSHW[ ]	/* 3 values pushed */\0123 58 12 \012SRP1[ ]	/* SetRefPoint1 */\012SRP2[ ]	/* SetRefPoint2 */\012IP[ ]	/* InterpolatePts */\012PUSHW[ ]	/* 1 value pushed */\01246 \012SRP0[ ]	/* SetRefPoint0 */\012PUSHW[ ]	/* 2 values pushed */\0126 4 \012MIRP[10100]	/* MoveIndirectRelPt */\012PUSHW[ ]	/* 2 values pushed */\0125 2 \012MIRP[10100]	/* MoveIndirectRelPt */\012PUSHW[ ]	/* 1 value pushed */\0129 \012SRP0[ ]	/* SetRefPoint0 */\012PUSHW[ ]	/* 2 values pushed */\01210 1 \012MIRP[10100]	/* MoveIndirectRelPt */\012PUSHW[ ]	/* 1 value pushed */\0125 \012SRP0[ ]	/* SetRefPoint0 */\012PUSHW[ ]	/* 2 values pushed */\01248 4 \012MIRP[10100]	/* MoveIndirectRelPt */\012PUSHW[ ]	/* 3 values pushed */\01219 5 48 \012SRP1[ ]	/* SetRefPoint1 */\012SRP2[ ]	/* SetRefPoint2 */\012IP[ ]	/* InterpolatePts */\012PUSHW[ ]	/* 3 values pushed */\01223 54 9 \012SRP1[ ]	/* SetRefPoint1 */\012SRP2[ ]	/* SetRefPoint2 */\012IP[ ]	/* InterpolatePts */\012PUSHW[ ]	/* 3 values pushed */\01240 58 12 \012SRP1[ ]	/* SetRefPoint1 */\012SRP2[ ]	/* SetRefPoint2 */\012IP[ ]	/* InterpolatePts */\012PUSHW[ ]	/* 1 value pushed */\01210 \012SRP0[ ]	/* SetRefPoint0 */\012PUSHW[ ]	/* 2 values pushed */\01253 4 \012MIRP[10100]	/* MoveIndirectRelPt */\012IUP[0]	/* InterpolateUntPts */\012IUP[1]	/* InterpolateUntPts */";
};
width = 463;
}
);
note = AE.smcap;
},
{
glyphname = B.smcap;
lastChange = "2021-11-22 23:52:12 +0000";
layers = (
{
layerId = "6544E2DB-1912-401E-9B5B-A29F161A5995";
paths = (
{
closed = 1;
nodes = (
"164 0 LINE SMOOTH",
"245.333 0 OFFCURVE",
"298 29.333 OFFCURVE",
"310 120 CURVE SMOOTH",
"319 178 LINE SMOOTH",
"324.333 218 OFFCURVE",
"314.333 250.333 OFFCURVE",
"297 269 CURVE",
"315.667 287.667 OFFCURVE",
"328 316.667 OFFCURVE",
"332 346 CURVE SMOOTH",
"339 394 LINE SMOOTH",
"347 454 OFFCURVE",
"319 496 OFFCURVE",
"239 496 CURVE SMOOTH",
"51 496 LINE",
"-18 0 LINE"
);
},
{
closed = 1;
nodes = (
"152 213 LINE",
"163 213 LINE SMOOTH",
"169.667 213 OFFCURVE",
"172.833 207 OFFCURVE",
"172.5 195 CURVE SMOOTH",
"172.167 183 OFFCURVE",
"170.667 168.333 OFFCURVE",
"168 151 CURVE SMOOTH",
"165.333 133 OFFCURVE",
"162.333 117.833 OFFCURVE",
"159 105.5 CURVE SMOOTH",
"155.667 93.167 OFFCURVE",
"151.333 87 OFFCURVE",
"146 87 CURVE SMOOTH",
"135 87 LINE"
);
},
{
closed = 1;
nodes = (
"147 96 LINE SMOOTH",
"149 96 OFFCURVE",
"150.833 101.333 OFFCURVE",
"152.5 112 CURVE SMOOTH",
"154.167 122.667 OFFCURVE",
"156.333 135.667 OFFCURVE",
"159 151 CURVE SMOOTH",
"163.5 188.5 LINE SMOOTH",
"164.5 198.833 OFFCURVE",
"164 204 OFFCURVE",
"162 204 CURVE SMOOTH",
"160 204 LINE",
"145 96 LINE"
);
},
{
closed = 1;
nodes = (
"65 478 LINE",
"237 478 LINE SMOOTH",
"305 478 OFFCURVE",
"328.667 443.333 OFFCURVE",
"322 394 CURVE SMOOTH",
"315 346 LINE SMOOTH",
"309.667 311.333 OFFCURVE",
"295 282 OFFCURVE",
"267 266 CURVE",
"293.667 254 OFFCURVE",
"308.667 226 OFFCURVE",
"302 178 CURVE SMOOTH",
"293 120 LINE SMOOTH",
"282.333 41.333 OFFCURVE",
"235.333 18 OFFCURVE",
"166 18 CURVE SMOOTH",
"0 18 LINE"
);
},
{
closed = 1;
nodes = (
"167 27 LINE SMOOTH",
"232.333 27 OFFCURVE",
"273.333 48 OFFCURVE",
"284 120 CURVE SMOOTH",
"293 178 LINE SMOOTH",
"301 236.667 OFFCURVE",
"273.333 263 OFFCURVE",
"232 263 CURVE",
"233 265 LINE",
"278.333 270.333 OFFCURVE",
"299.333 303.333 OFFCURVE",
"306 346 CURVE SMOOTH",
"313 394 LINE SMOOTH",
"319.667 438 OFFCURVE",
"297.667 469 OFFCURVE",
"235 469 CURVE SMOOTH",
"72 469 LINE",
"10 27 LINE"
);
},
{
closed = 1;
nodes = (
"180 407 LINE",
"191 407 LINE SMOOTH",
"197.667 407 OFFCURVE",
"200.667 401.167 OFFCURVE",
"200 389.5 CURVE SMOOTH",
"199.333 377.833 OFFCURVE",
"197.667 363.667 OFFCURVE",
"195 347 CURVE SMOOTH",
"193 330.333 OFFCURVE",
"190 316.167 OFFCURVE",
"186 304.5 CURVE SMOOTH",
"182 292.833 OFFCURVE",
"177.667 287 OFFCURVE",
"173 287 CURVE SMOOTH",
"163 287 LINE"
);
},
{
closed = 1;
nodes = (
"174 296 LINE SMOOTH",
"176 296 OFFCURVE",
"178 301 OFFCURVE",
"180 311 CURVE SMOOTH",
"182 321 OFFCURVE",
"184 333 OFFCURVE",
"186 347 CURVE SMOOTH",
"190.5 383 LINE SMOOTH",
"191.5 393 OFFCURVE",
"191 398 OFFCURVE",
"189 398 CURVE SMOOTH",
"187 398 LINE",
"173 296 LINE"
);
}
);
userData = {
assembly = "SVTCA[0]	/* SetFreedomAndProjectionVectorToAxis */\012PUSHW[ ]	/* 1 value pushed */\0120 \012RCVT[ ]	/* ReadCVT */\012IF[ ]	/* If */\012PUSHW[ ]	/* 1 value pushed */\01271 \012MDAP[1]	/* MoveDirectAbsPt */\012ELSE[ ]	/* Else */\012PUSHW[ ]	/* 2 values pushed */\01271 11 \012MIAP[0]	/* MoveIndirectAbsPt */\012EIF[ ]	/* EndIf */\012PUSHW[ ]	/* 1 value pushed */\0120 \012RCVT[ ]	/* ReadCVT */\012IF[ ]	/* If */\012PUSHW[ ]	/* 1 value pushed */\01286 \012MDAP[1]	/* MoveDirectAbsPt */\012ELSE[ ]	/* Else */\012PUSHW[ ]	/* 2 values pushed */\01286 7 \012MIAP[0]	/* MoveIndirectAbsPt */\012EIF[ ]	/* EndIf */\012PUSHW[ ]	/* 3 values pushed */\0129 86 71 \012SRP1[ ]	/* SetRefPoint1 */\012SRP2[ ]	/* SetRefPoint2 */\012IP[ ]	/* InterpolatePts */\012PUSHW[ ]	/* 3 values pushed */\01244 86 71 \012SRP1[ ]	/* SetRefPoint1 */\012SRP2[ ]	/* SetRefPoint2 */\012IP[ ]	/* InterpolatePts */\012PUSHW[ ]	/* 3 values pushed */\01253 86 71 \012SRP1[ ]	/* SetRefPoint1 */\012SRP2[ ]	/* SetRefPoint2 */\012IP[ ]	/* InterpolatePts */\012PUSHW[ ]	/* 3 values pushed */\01262 86 71 \012SRP1[ ]	/* SetRefPoint1 */\012SRP2[ ]	/* SetRefPoint2 */\012IP[ ]	/* InterpolatePts */\012IUP[0]	/* InterpolateUntPts */\012IUP[1]	/* InterpolateUntPts */";
};
width = 365;
}
);
note = B.smcap;
},
{
glyphname = C.smcap;
lastChange = "2021-11-22 23:52:12 +0000";
layers = (
{
layerId = "6544E2DB-1912-401E-9B5B-A29F161A5995";
paths = (
{
closed = 1;
nodes = (
"231.02 -9 OFFCURVE",
"280.356 25.402 OFFCURVE",
"300 158 CURVE SMOOTH",
"311 240 LINE",
"177 240 LINE",
"178 246 LINE",
"312 246 LINE",
"330 377 LINE SMOOTH",
"343.076 468.53 OFFCURVE",
"294.527 505 OFFCURVE",
"201 505 CURVE SMOOTH",
"109 505 OFFCURVE",
"44.667 471.667 OFFCURVE",
"30 377 CURVE SMOOTH",
"0 157 LINE SMOOTH",
"-19.462 25.632 OFFCURVE",
"26.021 -9 OFFCURVE",
"129 -9 CURVE SMOOTH"
);
},
{
closed = 1;
nodes = (
"39.317 9 OFFCURVE",
"0.067 40.887 OFFCURVE",
"17 157 CURVE SMOOTH",
"47 377 LINE SMOOTH",
"59 458.333 OFFCURVE",
"116.333 487 OFFCURVE",
"199 487 CURVE SMOOTH",
"279 487 OFFCURVE",
"325 458.333 OFFCURVE",
"313 377 CURVE SMOOTH",
"298 264 LINE",
"170 264 LINE",
"186 382 LINE SMOOTH",
"188 392 OFFCURVE",
"188 397 OFFCURVE",
"186 397 CURVE SMOOTH",
"184 397 OFFCURVE",
"182 392 OFFCURVE",
"180 382 CURVE SMOOTH",
"142 109 LINE",
"140 100.333 OFFCURVE",
"140.667 96 OFFCURVE",
"144 96 CURVE SMOOTH",
"144.667 96 OFFCURVE",
"146 100.333 OFFCURVE",
"148 109 CURVE SMOOTH",
"164 222 LINE",
"292 222 LINE",
"283 158 LINE SMOOTH",
"265.905 40.776 OFFCURVE",
"222.841 9 OFFCURVE",
"132 9 CURVE SMOOTH"
);
},
{
closed = 1;
nodes = (
"216.899 18 OFFCURVE",
"260.213 47.097 OFFCURVE",
"275 158 CURVE SMOOTH",
"282 213 LINE",
"170 213 LINE",
"156 109 LINE SMOOTH",
"154.667 100.333 OFFCURVE",
"152.833 94.5 OFFCURVE",
"150.5 91.5 CURVE SMOOTH",
"148.167 88.5 OFFCURVE",
"145.667 87 OFFCURVE",
"143 87 CURVE SMOOTH",
"139 87 OFFCURVE",
"136.167 88.5 OFFCURVE",
"134.5 91.5 CURVE SMOOTH",
"132.833 94.5 OFFCURVE",
"132.667 100.333 OFFCURVE",
"134 109 CURVE SMOOTH",
"172 382 LINE SMOOTH",
"173.333 391.333 OFFCURVE",
"175.333 397.667 OFFCURVE",
"178 401 CURVE SMOOTH",
"180.667 404.333 OFFCURVE",
"184 406 OFFCURVE",
"188 406 CURVE SMOOTH",
"190.667 406 OFFCURVE",
"192.667 404.333 OFFCURVE",
"194 401 CURVE SMOOTH",
"195.333 397.667 OFFCURVE",
"195.333 391.333 OFFCURVE",
"194 382 CURVE SMOOTH",
"179 273 LINE",
"291 273 LINE",
"305 377 LINE SMOOTH",
"315.667 451.667 OFFCURVE",
"274 478 OFFCURVE",
"198 478 CURVE SMOOTH",
"120.667 478 OFFCURVE",
"65.667 451.667 OFFCURVE",
"55 377 CURVE SMOOTH",
"25 157 LINE SMOOTH",
"10.279 46.59 OFFCURVE",
"46.078 18 OFFCURVE",
"133 18 CURVE SMOOTH"
);
}
);
userData = {
assembly = "SVTCA[0]	/* SetFreedomAndProjectionVectorToAxis */\012PUSHW[ ]	/* 1 value pushed */\0120 \012RCVT[ ]	/* ReadCVT */\012IF[ ]	/* If */\012PUSHW[ ]	/* 1 value pushed */\01276 \012MDAP[1]	/* MoveDirectAbsPt */\012ELSE[ ]	/* Else */\012PUSHW[ ]	/* 2 values pushed */\01276 7 \012MIAP[0]	/* MoveIndirectAbsPt */\012EIF[ ]	/* EndIf */\012PUSHW[ ]	/* 4 values pushed */\01269 4 6 4 \012CALL[ ]	/* CallFunction */\012PUSHW[ ]	/* 4 values pushed */\01247 2 36 4 \012CALL[ ]	/* CallFunction */\012PUSHW[ ]	/* 4 values pushed */\01215 4 20 4 \012CALL[ ]	/* CallFunction */\012PUSHW[ ]	/* 1 value pushed */\01276 \012SRP0[ ]	/* SetRefPoint0 */\012PUSHW[ ]	/* 2 values pushed */\0120 4 \012MIRP[10100]	/* MoveIndirectRelPt */\012PUSHW[ ]	/* 1 value pushed */\0126 \012SRP0[ ]	/* SetRefPoint0 */\012PUSHW[ ]	/* 2 values pushed */\01235 4 \012MIRP[10100]	/* MoveIndirectRelPt */\012PUSHW[ ]	/* 1 value pushed */\01215 \012SRP0[ ]	/* SetRefPoint0 */\012PUSHW[ ]	/* 1 value pushed */\01268 \012MDRP[11100]	/* MoveDirectRelPt */\012PUSHW[ ]	/* 1 value pushed */\01220 \012SRP0[ ]	/* SetRefPoint0 */\012PUSHW[ ]	/* 1 value pushed */\01285 \012MDRP[11100]	/* MoveDirectRelPt */\012PUSHW[ ]	/* 1 value pushed */\01269 \012SRP0[ ]	/* SetRefPoint0 */\012PUSHW[ ]	/* 1 value pushed */\01291 \012MDRP[10000]	/* MoveDirectRelPt */\012PUSHW[ ]	/* 1 value pushed */\01291 \012MDAP[1]	/* MoveDirectAbsPt */\012IUP[0]	/* InterpolateUntPts */\012IUP[1]	/* InterpolateUntPts */";
};
width = 350;
}
);
note = C.smcap;
},
{
glyphname = Ccedilla.smcap;
lastChange = "2021-11-22 23:52:12 +0000";
layers = (
{
layerId = "6544E2DB-1912-401E-9B5B-A29F161A5995";
paths = (
{
closed = 1;
nodes = (
"167.521 -204 OFFCURVE",
"211.587 -153.498 OFFCURVE",
"220 -89 CURVE SMOOTH",
"224 -58.333 OFFCURVE",
"215.667 -20 OFFCURVE",
"185 -4 CURVE",
"253.413 10.872 OFFCURVE",
"285.593 59.748 OFFCURVE",
"300 163 CURVE SMOOTH",
"312 248 LINE",
"178 248 LINE",
"179 254 LINE",
"313 254 LINE",
"332 389 LINE SMOOTH",
"345.333 486.333 OFFCURVE",
"294.667 521 OFFCURVE",
"204 521 CURVE SMOOTH",
"112 521 OFFCURVE",
"46.667 486.333 OFFCURVE",
"32 389 CURVE SMOOTH",
"0 162 LINE SMOOTH",
"-14.667 54 OFFCURVE",
"10 12.667 OFFCURVE",
"62 -2 CURVE",
"27 -64 LINE",
"49 -75 LINE",
"7 -170 LINE",
"33.667 -187.333 OFFCURVE",
"62.333 -204 OFFCURVE",
"93 -204 CURVE SMOOTH"
);
},
{
closed = 1;
nodes = (
"99.333 -97 OFFCURVE",
"97 -95.333 OFFCURVE",
"95 -92 CURVE",
"98.333 -90.667 OFFCURVE",
"101 -89.333 OFFCURVE",
"103 -88 CURVE SMOOTH",
"107 -86 LINE",
"107 -91 LINE",
"105.667 -93.667 OFFCURVE",
"104.667 -97 OFFCURVE",
"102 -97 CURVE SMOOTH"
);
},
{
closed = 1;
nodes = (
"68.333 -186 OFFCURVE",
"46.667 -174.333 OFFCURVE",
"28 -161 CURVE",
"64 -83 LINE",
"70.667 -101.667 OFFCURVE",
"88.333 -115 OFFCURVE",
"99 -115 CURVE SMOOTH",
"113.667 -115 OFFCURVE",
"120.333 -103 OFFCURVE",
"123 -91 CURVE SMOOTH",
"124.333 -79 OFFCURVE",
"121.667 -67 OFFCURVE",
"111 -67 CURVE SMOOTH",
"107 -67 OFFCURVE",
"96.667 -69.667 OFFCURVE",
"90 -75 CURVE",
"52 -54 LINE",
"89 13 LINE",
"26.395 21.944 OFFCURVE",
"2.617 66.113 OFFCURVE",
"17 162 CURVE SMOOTH",
"49 389 LINE SMOOTH",
"61 471.667 OFFCURVE",
"118.333 502 OFFCURVE",
"201 502 CURVE SMOOTH",
"281 502 OFFCURVE",
"327 471.667 OFFCURVE",
"315 389 CURVE SMOOTH",
"299 272 LINE",
"171 272 LINE",
"188 394 LINE SMOOTH",
"188.667 404 OFFCURVE",
"188.667 409 OFFCURVE",
"188 409 CURVE SMOOTH",
"184.667 409 OFFCURVE",
"182.667 404 OFFCURVE",
"182 394 CURVE SMOOTH",
"142 113 LINE SMOOTH",
"141.333 103.667 OFFCURVE",
"142 99 OFFCURVE",
"144 99 CURVE SMOOTH",
"146 99 OFFCURVE",
"147.333 103.667 OFFCURVE",
"148 113 CURVE SMOOTH",
"165 229 LINE",
"293 229 LINE",
"283 163 LINE SMOOTH",
"268.3 55.198 OFFCURVE",
"234.832 19.22 OFFCURVE",
"158 10 CURVE",
"154 4 OFFCURVE",
"151.5 0.333 OFFCURVE",
"150.5 -1 CURVE SMOOTH",
"141 -14 LINE",
"145 -14 LINE SMOOTH",
"190.083 -14 OFFCURVE",
"209.069 -52.585 OFFCURVE",
"203 -89 CURVE SMOOTH",
"194.446 -143.177 OFFCURVE",
"159.857 -186 OFFCURVE",
"95 -186 CURVE SMOOTH"
);
},
{
closed = 1;
nodes = (
"158.333 -176 OFFCURVE",
"188.333 -135.667 OFFCURVE",
"195 -89 CURVE SMOOTH",
"198.078 -55.143 OFFCURVE",
"184.367 -23 OFFCURVE",
"143 -23 CURVE SMOOTH",
"139 -23 OFFCURVE",
"135.5 -23.5 OFFCURVE",
"132.5 -24.5 CURVE SMOOTH",
"122 -28 LINE",
"154 19 LINE",
"227.022 25.085 OFFCURVE",
"260.375 60.625 OFFCURVE",
"275 163 CURVE SMOOTH",
"283 220 LINE",
"171 220 LINE",
"156 113 LINE SMOOTH",
"154.667 103.667 OFFCURVE",
"152.833 97.5 OFFCURVE",
"150.5 94.5 CURVE SMOOTH",
"148.167 91.5 OFFCURVE",
"145.667 90 OFFCURVE",
"143 90 CURVE SMOOTH",
"139 90 OFFCURVE",
"136.167 91.5 OFFCURVE",
"134.5 94.5 CURVE SMOOTH",
"132.833 97.5 OFFCURVE",
"132.667 103.667 OFFCURVE",
"134 113 CURVE SMOOTH",
"174 394 LINE SMOOTH",
"175.333 403.333 OFFCURVE",
"177.167 409.667 OFFCURVE",
"179.5 413 CURVE SMOOTH",
"181.833 416.333 OFFCURVE",
"185 418 OFFCURVE",
"189 418 CURVE SMOOTH",
"191.667 418 OFFCURVE",
"193.833 416.333 OFFCURVE",
"195.5 413 CURVE SMOOTH",
"197.167 409.667 OFFCURVE",
"197.333 403.333 OFFCURVE",
"196 394 CURVE SMOOTH",
"180 282 LINE",
"292 282 LINE",
"307 389 LINE SMOOTH",
"317.667 465 OFFCURVE",
"276 493 OFFCURVE",
"200 493 CURVE SMOOTH",
"122.667 493 OFFCURVE",
"67.667 465 OFFCURVE",
"57 389 CURVE SMOOTH",
"25 162 LINE SMOOTH",
"10.578 65.854 OFFCURVE",
"36.942 26.005 OFFCURVE",
"103 20 CURVE",
"64 -49 LINE",
"91 -65 LINE",
"97.667 -61 OFFCURVE",
"106.667 -58 OFFCURVE",
"112 -58 CURVE SMOOTH",
"144.736 -58 OFFCURVE",
"135.778 -125 OFFCURVE",
"98 -125 CURVE SMOOTH",
"86 -125 OFFCURVE",
"67.333 -116 OFFCURVE",
"62 -104 CURVE",
"39 -156 LINE",
"53.667 -166.667 OFFCURVE",
"70.333 -176 OFFCURVE",
"97 -176 CURVE SMOOTH"
);
}
);
userData = {
assembly = "SVTCA[0]	/* SetFreedomAndProjectionVectorToAxis */\012PUSHW[ ]	/* 1 value pushed */\01282 \012MDAP[1]	/* MoveDirectAbsPt */\012PUSHW[ ]	/* 1 value pushed */\0120 \012RCVT[ ]	/* ReadCVT */\012IF[ ]	/* If */\012PUSHW[ ]	/* 1 value pushed */\0129 \012MDAP[1]	/* MoveDirectAbsPt */\012ELSE[ ]	/* Else */\012PUSHW[ ]	/* 2 values pushed */\0129 11 \012MIAP[0]	/* MoveIndirectAbsPt */\012EIF[ ]	/* EndIf */\012PUSHW[ ]	/* 4 values pushed */\01255 2 157 4 \012CALL[ ]	/* CallFunction */\012PUSHW[ ]	/* 3 values pushed */\01240 60 3 \012CALL[ ]	/* CallFunction */\012PUSHW[ ]	/* 3 values pushed */\01229 92 3 \012CALL[ ]	/* CallFunction */\012PUSHW[ ]	/* 3 values pushed */\012136 14 3 \012CALL[ ]	/* CallFunction */\012PUSHW[ ]	/* 4 values pushed */\012115 2 102 4 \012CALL[ ]	/* CallFunction */\012PUSHW[ ]	/* 1 value pushed */\01229 \012SRP0[ ]	/* SetRefPoint0 */\012PUSHW[ ]	/* 2 values pushed */\01236 4 \012MIRP[10100]	/* MoveIndirectRelPt */\012PUSHW[ ]	/* 1 value pushed */\0120 \012MDRP[10000]	/* MoveDirectRelPt */\012PUSHW[ ]	/* 1 value pushed */\0120 \012MDAP[1]	/* MoveDirectAbsPt */\012PUSHW[ ]	/* 1 value pushed */\0129 \012SRP0[ ]	/* SetRefPoint0 */\012PUSHW[ ]	/* 2 values pushed */\01213 4 \012MIRP[10100]	/* MoveIndirectRelPt */\012PUSHW[ ]	/* 3 values pushed */\01237 60 40 \012SRP1[ ]	/* SetRefPoint1 */\012SRP2[ ]	/* SetRefPoint2 */\012IP[ ]	/* InterpolatePts */\012PUSHW[ ]	/* 1 value pushed */\01255 \012SRP0[ ]	/* SetRefPoint0 */\012PUSHW[ ]	/* 2 values pushed */\01248 2 \012MIRP[10100]	/* MoveIndirectRelPt */\012PUSHW[ ]	/* 3 values pushed */\01252 82 9 \012SRP1[ ]	/* SetRefPoint1 */\012SRP2[ ]	/* SetRefPoint2 */\012IP[ ]	/* InterpolatePts */\012PUSHW[ ]	/* 3 values pushed */\01278 82 9 \012SRP1[ ]	/* SetRefPoint1 */\012SRP2[ ]	/* SetRefPoint2 */\012IP[ ]	/* InterpolatePts */\012PUSHW[ ]	/* 1 value pushed */\01236 \012SRP0[ ]	/* SetRefPoint0 */\012PUSHW[ ]	/* 1 value pushed */\012128 \012MDRP[10000]	/* MoveDirectRelPt */\012PUSHW[ ]	/* 1 value pushed */\012128 \012MDAP[1]	/* MoveDirectAbsPt */\012PUSHW[ ]	/* 1 value pushed */\0129 \012SRP0[ ]	/* SetRefPoint0 */\012PUSHW[ ]	/* 1 value pushed */\012140 \012MDRP[11100]	/* MoveDirectRelPt */\012PUSHW[ ]	/* 1 value pushed */\012142 \012MDRP[10000]	/* MoveDirectRelPt */\012PUSHW[ ]	/* 1 value pushed */\012142 \012MDAP[1]	/* MoveDirectAbsPt */\012PUSHW[ ]	/* 1 value pushed */\012143 \012MDRP[10000]	/* MoveDirectRelPt */\012PUSHW[ ]	/* 1 value pushed */\012143 \012MDAP[1]	/* MoveDirectAbsPt */\012PUSHW[ ]	/* 3 values pushed */\012149 92 29 \012SRP1[ ]	/* SetRefPoint1 */\012SRP2[ ]	/* SetRefPoint2 */\012IP[ ]	/* InterpolatePts */\012IUP[0]	/* InterpolateUntPts */\012IUP[1]	/* InterpolateUntPts */";
};
width = 361;
}
);
note = Ccedilla.smcap;
},
{
glyphname = D.smcap;
lastChange = "2021-11-22 23:52:12 +0000";
layers = (
{
layerId = "6544E2DB-1912-401E-9B5B-A29F161A5995";
paths = (
{
closed = 1;
nodes = (
"152 0 LINE SMOOTH",
"233.333 0 OFFCURVE",
"285 29.333 OFFCURVE",
"297 120 CURVE SMOOTH",
"336 394 LINE SMOOTH",
"344 452.667 OFFCURVE",
"316.667 496 OFFCURVE",
"238 496 CURVE SMOOTH",
"50 496 LINE",
"-19 0 LINE"
);
},
{
closed = 1;
nodes = (
"65 478 LINE",
"236 478 LINE SMOOTH",
"304 478 OFFCURVE",
"326.667 443.333 OFFCURVE",
"320 394 CURVE SMOOTH",
"281 120 LINE SMOOTH",
"270.333 41.333 OFFCURVE",
"223.333 18 OFFCURVE",
"154 18 CURVE SMOOTH",
"0 18 LINE"
);
},
{
closed = 1;
nodes = (
"155 27 LINE SMOOTH",
"220.333 27 OFFCURVE",
"261.333 48 OFFCURVE",
"272 120 CURVE SMOOTH",
"311 394 LINE SMOOTH",
"317.667 438 OFFCURVE",
"296.667 469 OFFCURVE",
"234 469 CURVE SMOOTH",
"71 469 LINE",
"9 27 LINE"
);
},
{
closed = 1;
nodes = (
"178 404 LINE",
"189 404 LINE SMOOTH",
"192.333 404 OFFCURVE",
"195 402.5 OFFCURVE",
"197 399.5 CURVE SMOOTH",
"199 396.5 OFFCURVE",
"199.333 390.333 OFFCURVE",
"198 381 CURVE SMOOTH",
"160 109 LINE SMOOTH",
"158.667 100.333 OFFCURVE",
"156.667 94.5 OFFCURVE",
"154 91.5 CURVE SMOOTH",
"151.333 88.5 OFFCURVE",
"148.333 87 OFFCURVE",
"145 87 CURVE SMOOTH",
"134 87 LINE"
);
},
{
closed = 1;
nodes = (
"146 95 LINE SMOOTH",
"147.333 95 OFFCURVE",
"149 99.667 OFFCURVE",
"151 109 CURVE SMOOTH",
"189 381 LINE SMOOTH",
"191 390.333 OFFCURVE",
"190.667 395 OFFCURVE",
"188 395 CURVE SMOOTH",
"186 395 LINE",
"144 95 LINE"
);
}
);
userData = {
assembly = "SVTCA[0]	/* SetFreedomAndProjectionVectorToAxis */\012PUSHW[ ]	/* 1 value pushed */\0120 \012RCVT[ ]	/* ReadCVT */\012IF[ ]	/* If */\012PUSHW[ ]	/* 1 value pushed */\01238 \012MDAP[1]	/* MoveDirectAbsPt */\012ELSE[ ]	/* Else */\012PUSHW[ ]	/* 2 values pushed */\01238 11 \012MIAP[0]	/* MoveIndirectAbsPt */\012EIF[ ]	/* EndIf */\012PUSHW[ ]	/* 1 value pushed */\0120 \012RCVT[ ]	/* ReadCVT */\012IF[ ]	/* If */\012PUSHW[ ]	/* 1 value pushed */\01246 \012MDAP[1]	/* MoveDirectAbsPt */\012ELSE[ ]	/* Else */\012PUSHW[ ]	/* 2 values pushed */\01246 7 \012MIAP[0]	/* MoveIndirectAbsPt */\012EIF[ ]	/* EndIf */\012PUSHW[ ]	/* 3 values pushed */\01223 46 38 \012SRP1[ ]	/* SetRefPoint1 */\012SRP2[ ]	/* SetRefPoint2 */\012IP[ ]	/* InterpolatePts */\012IUP[0]	/* InterpolateUntPts */\012IUP[1]	/* InterpolateUntPts */";
};
width = 350;
}
);
note = D.smcap;
},
{
glyphname = E.smcap;
lastChange = "2021-11-22 23:52:12 +0000";
layers = (
{
layerId = "6544E2DB-1912-401E-9B5B-A29F161A5995";
paths = (
{
closed = 1;
nodes = (
"221 0 LINE",
"239 135 LINE",
"158 135 LINE",
"165 180 LINE",
"239 180 LINE",
"259 327 LINE",
"185 327 LINE",
"190 360 LINE",
"271 360 LINE",
"290 496 LINE",
"50 496 LINE",
"-19 0 LINE"
);
},
{
closed = 1;
nodes = (
"64 478 LINE",
"272 478 LINE",
"257 377 LINE",
"176 377 LINE",
"167 310 LINE",
"241 310 LINE",
"225 198 LINE",
"151 198 LINE",
"140 117 LINE",
"221 117 LINE",
"207 18 LINE",
"-1 18 LINE"
);
},
{
closed = 1;
nodes = (
"200 27 LINE",
"212 108 LINE",
"131 108 LINE",
"145 207 LINE",
"219 207 LINE",
"232 301 LINE",
"158 301 LINE",
"170 386 LINE",
"251 386 LINE",
"262 469 LINE",
"70 469 LINE",
"8 27 LINE"
);
}
);
userData = {
assembly = "SVTCA[0]	/* SetFreedomAndProjectionVectorToAxis */\012PUSHW[ ]	/* 1 value pushed */\0120 \012RCVT[ ]	/* ReadCVT */\012IF[ ]	/* If */\012PUSHW[ ]	/* 1 value pushed */\01224 \012MDAP[1]	/* MoveDirectAbsPt */\012ELSE[ ]	/* Else */\012PUSHW[ ]	/* 2 values pushed */\01224 11 \012MIAP[0]	/* MoveIndirectAbsPt */\012EIF[ ]	/* EndIf */\012PUSHW[ ]	/* 1 value pushed */\0120 \012RCVT[ ]	/* ReadCVT */\012IF[ ]	/* If */\012PUSHW[ ]	/* 1 value pushed */\01234 \012MDAP[1]	/* MoveDirectAbsPt */\012ELSE[ ]	/* Else */\012PUSHW[ ]	/* 2 values pushed */\01234 7 \012MIAP[0]	/* MoveIndirectAbsPt */\012EIF[ ]	/* EndIf */\012PUSHW[ ]	/* 4 values pushed */\01233 4 10 4 \012CALL[ ]	/* CallFunction */\012PUSHW[ ]	/* 4 values pushed */\01217 2 14 4 \012CALL[ ]	/* CallFunction */\012PUSHW[ ]	/* 4 values pushed */\0125 4 30 4 \012CALL[ ]	/* CallFunction */\012PUSHW[ ]	/* 4 values pushed */\01221 2 18 4 \012CALL[ ]	/* CallFunction */\012PUSHW[ ]	/* 1 value pushed */\01224 \012SRP0[ ]	/* SetRefPoint0 */\012PUSHW[ ]	/* 2 values pushed */\0122 4 \012MIRP[10100]	/* MoveIndirectRelPt */\012PUSHW[ ]	/* 2 values pushed */\0121 2 \012MIRP[10100]	/* MoveIndirectRelPt */\012PUSHW[ ]	/* 1 value pushed */\0125 \012SRP0[ ]	/* SetRefPoint0 */\012PUSHW[ ]	/* 2 values pushed */\0126 1 \012MIRP[10100]	/* MoveIndirectRelPt */\012PUSHW[ ]	/* 1 value pushed */\01234 \012SRP0[ ]	/* SetRefPoint0 */\012PUSHW[ ]	/* 2 values pushed */\0128 4 \012MIRP[10100]	/* MoveIndirectRelPt */\012PUSHW[ ]	/* 1 value pushed */\01210 \012SRP0[ ]	/* SetRefPoint0 */\012PUSHW[ ]	/* 2 values pushed */\0129 2 \012MIRP[10100]	/* MoveIndirectRelPt */\012PUSHW[ ]	/* 1 value pushed */\0121 \012SRP0[ ]	/* SetRefPoint0 */\012PUSHW[ ]	/* 2 values pushed */\01226 4 \012MIRP[10100]	/* MoveIndirectRelPt */\012PUSHW[ ]	/* 1 value pushed */\0126 \012SRP0[ ]	/* SetRefPoint0 */\012PUSHW[ ]	/* 2 values pushed */\01228 4 \012MIRP[10100]	/* MoveIndirectRelPt */\012IUP[0]	/* InterpolateUntPts */\012IUP[1]	/* InterpolateUntPts */";
};
width = 284;
}
);
note = E.smcap;
},
{
glyphname = Eacute.smcap;
lastChange = "2021-11-22 23:52:12 +0000";
layers = (
{
layerId = "6544E2DB-1912-401E-9B5B-A29F161A5995";
paths = (
{
closed = 1;
nodes = (
"221 0 LINE",
"240 138 LINE",
"159 138 LINE",
"165 184 LINE",
"239 184 LINE",
"261 335 LINE",
"187 335 LINE",
"191 368 LINE",
"272 368 LINE",
"292 508 LINE",
"198 508 LINE",
"342 630 LINE",
"181 630 LINE",
"70 508 LINE",
"52 508 LINE",
"-19 0 LINE"
);
},
{
closed = 1;
nodes = (
"65 489 LINE",
"273 489 LINE",
"259 386 LINE",
"178 386 LINE",
"168 317 LINE",
"242 317 LINE",
"226 203 LINE",
"152 203 LINE",
"140 120 LINE",
"221 120 LINE",
"207 18 LINE",
"-1 18 LINE"
);
},
{
closed = 1;
nodes = (
"200 27 LINE",
"212 110 LINE",
"131 110 LINE",
"145 212 LINE",
"219 212 LINE",
"233 308 LINE",
"159 308 LINE",
"171 395 LINE",
"252 395 LINE",
"264 480 LINE",
"72 480 LINE",
"8 27 LINE"
);
},
{
closed = 1;
nodes = (
"186 612 LINE",
"296 612 LINE",
"184 517 LINE",
"99 517 LINE"
);
},
{
closed = 1;
nodes = (
"182 526 LINE",
"273 603 LINE",
"188 603 LINE",
"119 526 LINE"
);
}
);
userData = {
assembly = "SVTCA[0]	/* SetFreedomAndProjectionVectorToAxis */\012PUSHW[ ]	/* 1 value pushed */\0120 \012RCVT[ ]	/* ReadCVT */\012IF[ ]	/* If */\012PUSHW[ ]	/* 1 value pushed */\01242 \012MDAP[1]	/* MoveDirectAbsPt */\012ELSE[ ]	/* Else */\012PUSHW[ ]	/* 2 values pushed */\01242 7 \012MIAP[0]	/* MoveIndirectAbsPt */\012EIF[ ]	/* EndIf */\012PUSHW[ ]	/* 4 values pushed */\0129 2 10 4 \012CALL[ ]	/* CallFunction */\012PUSHW[ ]	/* 4 values pushed */\01225 2 22 4 \012CALL[ ]	/* CallFunction */\012PUSHW[ ]	/* 4 values pushed */\01215 4 30 4 \012CALL[ ]	/* CallFunction */\012PUSHW[ ]	/* 4 values pushed */\0125 4 38 4 \012CALL[ ]	/* CallFunction */\012PUSHW[ ]	/* 4 values pushed */\01233 4 2 4 \012CALL[ ]	/* CallFunction */\012PUSHW[ ]	/* 4 values pushed */\01229 2 26 4 \012CALL[ ]	/* CallFunction */\012PUSHW[ ]	/* 1 value pushed */\0122 \012SRP0[ ]	/* SetRefPoint0 */\012PUSHW[ ]	/* 2 values pushed */\0121 2 \012MIRP[10100]	/* MoveIndirectRelPt */\012PUSHW[ ]	/* 1 value pushed */\0125 \012SRP0[ ]	/* SetRefPoint0 */\012PUSHW[ ]	/* 2 values pushed */\0126 1 \012MIRP[10100]	/* MoveIndirectRelPt */\012PUSHW[ ]	/* 1 value pushed */\01242 \012SRP0[ ]	/* SetRefPoint0 */\012PUSHW[ ]	/* 2 values pushed */\0128 4 \012MIRP[10100]	/* MoveIndirectRelPt */\012PUSHW[ ]	/* 3 values pushed */\01213 30 15 \012SRP1[ ]	/* SetRefPoint1 */\012SRP2[ ]	/* SetRefPoint2 */\012IP[ ]	/* InterpolatePts */\012PUSHW[ ]	/* 1 value pushed */\01230 \012SRP0[ ]	/* SetRefPoint0 */\012PUSHW[ ]	/* 2 values pushed */\01247 4 \012MIRP[10100]	/* MoveIndirectRelPt */\012PUSHW[ ]	/* 3 values pushed */\01216 30 47 \012SRP1[ ]	/* SetRefPoint1 */\012SRP2[ ]	/* SetRefPoint2 */\012IP[ ]	/* InterpolatePts */\012PUSHW[ ]	/* 3 values pushed */\01218 30 15 \012SRP1[ ]	/* SetRefPoint1 */\012SRP2[ ]	/* SetRefPoint2 */\012IP[ ]	/* InterpolatePts */\012PUSHW[ ]	/* 3 values pushed */\01232 30 15 \012SRP1[ ]	/* SetRefPoint1 */\012SRP2[ ]	/* SetRefPoint2 */\012IP[ ]	/* InterpolatePts */\012PUSHW[ ]	/* 1 value pushed */\0121 \012SRP0[ ]	/* SetRefPoint0 */\012PUSHW[ ]	/* 2 values pushed */\01234 4 \012MIRP[10100]	/* MoveIndirectRelPt */\012PUSHW[ ]	/* 1 value pushed */\0126 \012SRP0[ ]	/* SetRefPoint0 */\012PUSHW[ ]	/* 2 values pushed */\01236 4 \012MIRP[10100]	/* MoveIndirectRelPt */\012PUSHW[ ]	/* 1 value pushed */\01210 \012SRP0[ ]	/* SetRefPoint0 */\012PUSHW[ ]	/* 2 values pushed */\01241 4 \012MIRP[10100]	/* MoveIndirectRelPt */\012PUSHW[ ]	/* 1 value pushed */\01233 \012SRP0[ ]	/* SetRefPoint0 */\012PUSHW[ ]	/* 1 value pushed */\01244 \012MDRP[10000]	/* MoveDirectRelPt */\012IUP[0]	/* InterpolateUntPts */\012IUP[1]	/* InterpolateUntPts */";
};
width = 302;
}
);
note = Eacute.smcap;
},
{
glyphname = Ecircumflex.smcap;
lastChange = "2021-11-22 23:52:12 +0000";
layers = (
{
layerId = "6544E2DB-1912-401E-9B5B-A29F161A5995";
paths = (
{
closed = 1;
nodes = (
"222 0 LINE",
"241 138 LINE",
"160 138 LINE",
"166 184 LINE",
"241 184 LINE",
"263 335 LINE",
"188 335 LINE",
"192 368 LINE",
"273 368 LINE",
"290 486 LINE",
"329 486 LINE",
"230 630 LINE",
"155 630 LINE",
"17 486 LINE",
"49 486 LINE",
"-19 0 LINE"
);
},
{
closed = 1;
nodes = (
"65 489 LINE",
"274 489 LINE",
"260 386 LINE",
"179 386 LINE",
"169 317 LINE",
"244 317 LINE",
"228 203 LINE",
"153 203 LINE",
"141 120 LINE",
"222 120 LINE",
"208 18 LINE",
"-1 18 LINE"
);
},
{
closed = 1;
nodes = (
"201 27 LINE",
"213 110 LINE",
"132 110 LINE",
"146 212 LINE",
"221 212 LINE",
"235 308 LINE",
"160 308 LINE",
"172 395 LINE",
"253 395 LINE",
"265 480 LINE",
"72 480 LINE",
"8 27 LINE"
);
},
{
closed = 1;
nodes = (
"177 521 LINE",
"184 508 LINE",
"166 508 LINE"
);
},
{
closed = 1;
nodes = (
"161 612 LINE",
"220 612 LINE",
"293 504 LINE",
"206 504 LINE",
"181 551 LINE",
"175 543 OFFCURVE",
"168.5 535 OFFCURVE",
"161.5 527 CURVE SMOOTH",
"154.5 519 OFFCURVE",
"148.333 511.333 OFFCURVE",
"143 504 CURVE",
"57 504 LINE"
);
},
{
closed = 1;
nodes = (
"141 513 LINE",
"183 567 LINE",
"212 513 LINE",
"277 513 LINE",
"215 603 LINE",
"162 603 LINE",
"77 513 LINE"
);
}
);
userData = {
assembly = "SVTCA[0]	/* SetFreedomAndProjectionVectorToAxis */\012PUSHW[ ]	/* 1 value pushed */\0120 \012RCVT[ ]	/* ReadCVT */\012IF[ ]	/* If */\012PUSHW[ ]	/* 1 value pushed */\01251 \012MDAP[1]	/* MoveDirectAbsPt */\012ELSE[ ]	/* Else */\012PUSHW[ ]	/* 2 values pushed */\01251 7 \012MIAP[0]	/* MoveIndirectAbsPt */\012EIF[ ]	/* EndIf */\012PUSHW[ ]	/* 4 values pushed */\0129 2 10 4 \012CALL[ ]	/* CallFunction */\012PUSHW[ ]	/* 4 values pushed */\01240 4 14 4 \012CALL[ ]	/* CallFunction */\012PUSHW[ ]	/* 4 values pushed */\01233 2 30 4 \012CALL[ ]	/* CallFunction */\012PUSHW[ ]	/* 4 values pushed */\0125 4 47 4 \012CALL[ ]	/* CallFunction */\012PUSHW[ ]	/* 4 values pushed */\0121 2 2 4 \012CALL[ ]	/* CallFunction */\012PUSHW[ ]	/* 4 values pushed */\01237 2 34 4 \012CALL[ ]	/* CallFunction */\012PUSHW[ ]	/* 1 value pushed */\0125 \012SRP0[ ]	/* SetRefPoint0 */\012PUSHW[ ]	/* 2 values pushed */\0126 1 \012MIRP[10100]	/* MoveIndirectRelPt */\012PUSHW[ ]	/* 1 value pushed */\01251 \012SRP0[ ]	/* SetRefPoint0 */\012PUSHW[ ]	/* 2 values pushed */\0128 4 \012MIRP[10100]	/* MoveIndirectRelPt */\012PUSHW[ ]	/* 1 value pushed */\01214 \012SRP0[ ]	/* SetRefPoint0 */\012PUSHW[ ]	/* 1 value pushed */\01216 \012MDRP[10000]	/* MoveDirectRelPt */\012PUSHW[ ]	/* 1 value pushed */\01240 \012SRP0[ ]	/* SetRefPoint0 */\012PUSHW[ ]	/* 2 values pushed */\01238 4 \012MIRP[10100]	/* MoveIndirectRelPt */\012PUSHW[ ]	/* 3 values pushed */\01217 40 38 \012SRP1[ ]	/* SetRefPoint1 */\012SRP2[ ]	/* SetRefPoint2 */\012IP[ ]	/* InterpolatePts */\012PUSHW[ ]	/* 1 value pushed */\0122 \012SRP0[ ]	/* SetRefPoint0 */\012PUSHW[ ]	/* 2 values pushed */\01226 4 \012MIRP[10100]	/* MoveIndirectRelPt */\012PUSHW[ ]	/* 1 value pushed */\01220 \012MDRP[10000]	/* MoveDirectRelPt */\012PUSHW[ ]	/* 3 values pushed */\01224 14 40 \012SRP1[ ]	/* SetRefPoint1 */\012SRP2[ ]	/* SetRefPoint2 */\012IP[ ]	/* InterpolatePts */\012PUSHW[ ]	/* 1 value pushed */\0121 \012SRP0[ ]	/* SetRefPoint0 */\012PUSHW[ ]	/* 1 value pushed */\01241 \012MDRP[10000]	/* MoveDirectRelPt */\012PUSHW[ ]	/* 1 value pushed */\01241 \012MDAP[1]	/* MoveDirectAbsPt */\012PUSHW[ ]	/* 1 value pushed */\01238 \012SRP0[ ]	/* SetRefPoint0 */\012PUSHW[ ]	/* 1 value pushed */\01242 \012MDRP[10000]	/* MoveDirectRelPt */\012PUSHW[ ]	/* 1 value pushed */\01242 \012MDAP[1]	/* MoveDirectAbsPt */\012PUSHW[ ]	/* 1 value pushed */\0121 \012SRP0[ ]	/* SetRefPoint0 */\012PUSHW[ ]	/* 2 values pushed */\01243 4 \012MIRP[10100]	/* MoveIndirectRelPt */\012PUSHW[ ]	/* 1 value pushed */\0126 \012SRP0[ ]	/* SetRefPoint0 */\012PUSHW[ ]	/* 2 values pushed */\01245 4 \012MIRP[10100]	/* MoveIndirectRelPt */\012PUSHW[ ]	/* 1 value pushed */\01210 \012SRP0[ ]	/* SetRefPoint0 */\012PUSHW[ ]	/* 2 values pushed */\01250 4 \012MIRP[10100]	/* MoveIndirectRelPt */\012PUSHW[ ]	/* 1 value pushed */\01238 \012SRP0[ ]	/* SetRefPoint0 */\012PUSHW[ ]	/* 1 value pushed */\01253 \012MDRP[10000]	/* MoveDirectRelPt */\012PUSHW[ ]	/* 1 value pushed */\01253 \012MDAP[1]	/* MoveDirectAbsPt */\012PUSHW[ ]	/* 1 value pushed */\0121 \012SRP0[ ]	/* SetRefPoint0 */\012PUSHW[ ]	/* 1 value pushed */\01254 \012MDRP[10000]	/* MoveDirectRelPt */\012PUSHW[ ]	/* 1 value pushed */\01254 \012MDAP[1]	/* MoveDirectAbsPt */\012PUSHW[ ]	/* 1 value pushed */\01214 \012SRP0[ ]	/* SetRefPoint0 */\012PUSHW[ ]	/* 1 value pushed */\01256 \012MDRP[10000]	/* MoveDirectRelPt */\012PUSHW[ ]	/* 1 value pushed */\01256 \012MDAP[1]	/* MoveDirectAbsPt */\012PUSHW[ ]	/* 1 value pushed */\01226 \012SRP0[ ]	/* SetRefPoint0 */\012PUSHW[ ]	/* 1 value pushed */\01257 \012MDRP[10000]	/* MoveDirectRelPt */\012PUSHW[ ]	/* 1 value pushed */\01257 \012MDAP[1]	/* MoveDirectAbsPt */\012PUSHW[ ]	/* 3 values pushed */\01258 14 40 \012SRP1[ ]	/* SetRefPoint1 */\012SRP2[ ]	/* SetRefPoint2 */\012IP[ ]	/* InterpolatePts */\012IUP[0]	/* InterpolateUntPts */\012IUP[1]	/* InterpolateUntPts */";
};
width = 304;
}
);
note = Ecircumflex.smcap;
},
{
glyphname = Edieresis.smcap;
lastChange = "2021-11-22 23:52:12 +0000";
layers = (
{
layerId = "6544E2DB-1912-401E-9B5B-A29F161A5995";
paths = (
{
closed = 1;
nodes = (
"224 0 LINE",
"243 139 LINE",
"161 139 LINE",
"168 185 LINE",
"244 185 LINE",
"265 337 LINE",
"189 337 LINE",
"194 370 LINE",
"276 370 LINE",
"295 510 LINE",
"52 510 LINE",
"-19 0 LINE"
);
},
{
closed = 1;
nodes = (
"66 492 LINE",
"277 492 LINE",
"262 388 LINE",
"180 388 LINE",
"170 319 LINE",
"246 319 LINE",
"230 204 LINE",
"154 204 LINE",
"142 120 LINE",
"224 120 LINE",
"210 18 LINE",
"-1 18 LINE"
);
},
{
closed = 1;
nodes = (
"203 28 LINE",
"215 111 LINE",
"133 111 LINE",
"147 213 LINE",
"222 213 LINE",
"236 309 LINE",
"161 309 LINE",
"173 398 LINE",
"255 398 LINE",
"267 483 LINE",
"72 483 LINE",
"8 28 LINE"
);
},
{
closed = 1;
nodes = (
"107.333 555 OFFCURVE",
"91.333 577.333 OFFCURVE",
"94 604 CURVE SMOOTH",
"98 630.667 OFFCURVE",
"121.333 655 OFFCURVE",
"148 655 CURVE SMOOTH",
"173.333 655 OFFCURVE",
"191 630.667 OFFCURVE",
"187 604 CURVE SMOOTH",
"184.333 577.333 OFFCURVE",
"159.333 555 OFFCURVE",
"134 555 CURVE SMOOTH"
);
},
{
closed = 1;
nodes = (
"156.333 564 OFFCURVE",
"176.333 581.333 OFFCURVE",
"179 604 CURVE SMOOTH",
"181.667 626.667 OFFCURVE",
"167.333 645 OFFCURVE",
"146 645 CURVE SMOOTH",
"124.667 645 OFFCURVE",
"104.667 626.667 OFFCURVE",
"102 604 CURVE SMOOTH",
"99.333 581.333 OFFCURVE",
"113.667 564 OFFCURVE",
"135 564 CURVE SMOOTH"
);
},
{
closed = 1;
nodes = (
"157.667 536 OFFCURVE",
"186 555.667 OFFCURVE",
"198 585 CURVE",
"202 557 OFFCURVE",
"220.333 536 OFFCURVE",
"251 536 CURVE SMOOTH",
"285.667 536 OFFCURVE",
"316.667 566.667 OFFCURVE",
"322 604 CURVE SMOOTH",
"328.667 641.333 OFFCURVE",
"304.667 673 OFFCURVE",
"270 673 CURVE SMOOTH",
"239.333 673 OFFCURVE",
"215 651 OFFCURVE",
"203 623 CURVE",
"199 651 OFFCURVE",
"176.667 673 OFFCURVE",
"150 673 CURVE SMOOTH",
"115.333 673 OFFCURVE",
"84.667 641.333 OFFCURVE",
"78 604 CURVE SMOOTH",
"72.667 566.667 OFFCURVE",
"96.333 536 OFFCURVE",
"131 536 CURVE SMOOTH"
);
},
{
closed = 1;
nodes = (
"227.333 555 OFFCURVE",
"211.333 577.333 OFFCURVE",
"214 604 CURVE SMOOTH",
"218 630.667 OFFCURVE",
"241.333 655 OFFCURVE",
"268 655 CURVE SMOOTH",
"294.667 655 OFFCURVE",
"310 630.667 OFFCURVE",
"306 604 CURVE SMOOTH",
"303.333 577.333 OFFCURVE",
"280.667 555 OFFCURVE",
"254 555 CURVE SMOOTH"
);
},
{
closed = 1;
nodes = (
"276.333 564 OFFCURVE",
"295.333 581.333 OFFCURVE",
"298 604 CURVE SMOOTH",
"300.667 626.667 OFFCURVE",
"287.333 645 OFFCURVE",
"266 645 CURVE SMOOTH",
"243.333 645 OFFCURVE",
"224.667 626.667 OFFCURVE",
"222 604 CURVE SMOOTH",
"219.333 581.333 OFFCURVE",
"232.333 564 OFFCURVE",
"255 564 CURVE SMOOTH"
);
}
);
userData = {
assembly = "SVTCA[0]	/* SetFreedomAndProjectionVectorToAxis */\012PUSHW[ ]	/* 1 value pushed */\0120 \012RCVT[ ]	/* ReadCVT */\012IF[ ]	/* If */\012PUSHW[ ]	/* 1 value pushed */\01282 \012MDAP[1]	/* MoveDirectAbsPt */\012ELSE[ ]	/* Else */\012PUSHW[ ]	/* 2 values pushed */\01282 7 \012MIAP[0]	/* MoveIndirectAbsPt */\012EIF[ ]	/* EndIf */\012PUSHW[ ]	/* 4 values pushed */\0129 2 10 4 \012CALL[ ]	/* CallFunction */\012PUSHW[ ]	/* 4 values pushed */\01215 2 21 4 \012CALL[ ]	/* CallFunction */\012PUSHW[ ]	/* 4 values pushed */\01265 2 62 4 \012CALL[ ]	/* CallFunction */\012PUSHW[ ]	/* 4 values pushed */\01239 2 70 4 \012CALL[ ]	/* CallFunction */\012PUSHW[ ]	/* 4 values pushed */\0125 4 78 4 \012CALL[ ]	/* CallFunction */\012PUSHW[ ]	/* 4 values pushed */\01276 4 6 4 \012CALL[ ]	/* CallFunction */\012PUSHW[ ]	/* 4 values pushed */\0121 2 2 4 \012CALL[ ]	/* CallFunction */\012PUSHW[ ]	/* 4 values pushed */\01269 2 66 4 \012CALL[ ]	/* CallFunction */\012PUSHW[ ]	/* 1 value pushed */\01282 \012SRP0[ ]	/* SetRefPoint0 */\012PUSHW[ ]	/* 2 values pushed */\0128 4 \012MIRP[10100]	/* MoveIndirectRelPt */\012PUSHW[ ]	/* 1 value pushed */\01215 \012SRP0[ ]	/* SetRefPoint0 */\012PUSHW[ ]	/* 1 value pushed */\01227 \012MDRP[10000]	/* MoveDirectRelPt */\012PUSHW[ ]	/* 1 value pushed */\01221 \012SRP0[ ]	/* SetRefPoint0 */\012PUSHW[ ]	/* 1 value pushed */\01233 \012MDRP[10000]	/* MoveDirectRelPt */\012PUSHW[ ]	/* 1 value pushed */\01239 \012SRP0[ ]	/* SetRefPoint0 */\012PUSHW[ ]	/* 1 value pushed */\01251 \012MDRP[10000]	/* MoveDirectRelPt */\012PUSHW[ ]	/* 1 value pushed */\0122 \012SRP0[ ]	/* SetRefPoint0 */\012PUSHW[ ]	/* 2 values pushed */\01273 4 \012MIRP[10100]	/* MoveIndirectRelPt */\012PUSHW[ ]	/* 1 value pushed */\0121 \012SRP0[ ]	/* SetRefPoint0 */\012PUSHW[ ]	/* 2 values pushed */\01274 4 \012MIRP[10100]	/* MoveIndirectRelPt */\012PUSHW[ ]	/* 1 value pushed */\01210 \012SRP0[ ]	/* SetRefPoint0 */\012PUSHW[ ]	/* 2 values pushed */\01281 4 \012MIRP[10100]	/* MoveIndirectRelPt */\012PUSHW[ ]	/* 1 value pushed */\01221 \012SRP0[ ]	/* SetRefPoint0 */\012PUSHW[ ]	/* 2 values pushed */\01293 4 \012MIRP[10100]	/* MoveIndirectRelPt */\012PUSHW[ ]	/* 1 value pushed */\01287 \012MDRP[10000]	/* MoveDirectRelPt */\012PUSHW[ ]	/* 3 values pushed */\01290 21 15 \012SRP1[ ]	/* SetRefPoint1 */\012SRP2[ ]	/* SetRefPoint2 */\012IP[ ]	/* InterpolatePts */\012PUSHW[ ]	/* 1 value pushed */\01215 \012SRP0[ ]	/* SetRefPoint0 */\012PUSHW[ ]	/* 2 values pushed */\01299 4 \012MIRP[10100]	/* MoveIndirectRelPt */\012PUSHW[ ]	/* 3 values pushed */\012102 21 15 \012SRP1[ ]	/* SetRefPoint1 */\012SRP2[ ]	/* SetRefPoint2 */\012IP[ ]	/* InterpolatePts */\012PUSHW[ ]	/* 1 value pushed */\012105 \012MDRP[10000]	/* MoveDirectRelPt */\012IUP[0]	/* InterpolateUntPts */\012IUP[1]	/* InterpolateUntPts */";
};
width = 306;
}
);
note = Edieresis.smcap;
},
{
glyphname = Egrave.smcap;
lastChange = "2021-11-22 23:52:12 +0000";
layers = (
{
layerId = "6544E2DB-1912-401E-9B5B-A29F161A5995";
paths = (
{
closed = 1;
nodes = (
"221 0 LINE",
"240 138 LINE",
"159 138 LINE",
"165 184 LINE",
"239 184 LINE",
"261 335 LINE",
"187 335 LINE",
"191 368 LINE",
"272 368 LINE",
"292 508 LINE",
"283 508 LINE",
"207 630 LINE",
"46 630 LINE",
"156 508 LINE",
"52 508 LINE",
"-19 0 LINE"
);
},
{
closed = 1;
nodes = (
"65 489 LINE",
"273 489 LINE",
"259 386 LINE",
"178 386 LINE",
"168 317 LINE",
"242 317 LINE",
"226 203 LINE",
"152 203 LINE",
"140 120 LINE",
"221 120 LINE",
"207 18 LINE",
"-1 18 LINE"
);
},
{
closed = 1;
nodes = (
"200 27 LINE",
"212 110 LINE",
"131 110 LINE",
"145 212 LINE",
"219 212 LINE",
"233 308 LINE",
"159 308 LINE",
"171 395 LINE",
"252 395 LINE",
"264 480 LINE",
"72 480 LINE",
"8 27 LINE"
);
},
{
closed = 1;
nodes = (
"88 612 LINE",
"198 612 LINE",
"257 517 LINE",
"172 517 LINE"
);
},
{
closed = 1;
nodes = (
"239 526 LINE",
"192 603 LINE",
"107 603 LINE",
"176 526 LINE"
);
}
);
userData = {
assembly = "SVTCA[0]	/* SetFreedomAndProjectionVectorToAxis */\012PUSHW[ ]	/* 1 value pushed */\0120 \012RCVT[ ]	/* ReadCVT */\012IF[ ]	/* If */\012PUSHW[ ]	/* 1 value pushed */\01246 \012MDAP[1]	/* MoveDirectAbsPt */\012ELSE[ ]	/* Else */\012PUSHW[ ]	/* 2 values pushed */\01246 7 \012MIAP[0]	/* MoveIndirectAbsPt */\012EIF[ ]	/* EndIf */\012PUSHW[ ]	/* 4 values pushed */\0129 2 10 4 \012CALL[ ]	/* CallFunction */\012PUSHW[ ]	/* 4 values pushed */\01213 2 15 4 \012CALL[ ]	/* CallFunction */\012PUSHW[ ]	/* 4 values pushed */\01225 2 22 4 \012CALL[ ]	/* CallFunction */\012PUSHW[ ]	/* 4 values pushed */\0125 4 42 4 \012CALL[ ]	/* CallFunction */\012PUSHW[ ]	/* 4 values pushed */\0121 2 2 4 \012CALL[ ]	/* CallFunction */\012PUSHW[ ]	/* 4 values pushed */\01229 2 26 4 \012CALL[ ]	/* CallFunction */\012PUSHW[ ]	/* 1 value pushed */\0125 \012SRP0[ ]	/* SetRefPoint0 */\012PUSHW[ ]	/* 2 values pushed */\0126 1 \012MIRP[10100]	/* MoveIndirectRelPt */\012PUSHW[ ]	/* 1 value pushed */\01246 \012SRP0[ ]	/* SetRefPoint0 */\012PUSHW[ ]	/* 2 values pushed */\0128 4 \012MIRP[10100]	/* MoveIndirectRelPt */\012PUSHW[ ]	/* 1 value pushed */\01213 \012SRP0[ ]	/* SetRefPoint0 */\012PUSHW[ ]	/* 2 values pushed */\01230 4 \012MIRP[10100]	/* MoveIndirectRelPt */\012PUSHW[ ]	/* 3 values pushed */\01217 13 30 \012SRP1[ ]	/* SetRefPoint1 */\012SRP2[ ]	/* SetRefPoint2 */\012IP[ ]	/* InterpolatePts */\012PUSHW[ ]	/* 1 value pushed */\01215 \012SRP0[ ]	/* SetRefPoint0 */\012PUSHW[ ]	/* 2 values pushed */\01235 3 \012MIRP[10100]	/* MoveIndirectRelPt */\012PUSHW[ ]	/* 3 values pushed */\01219 15 35 \012SRP1[ ]	/* SetRefPoint1 */\012SRP2[ ]	/* SetRefPoint2 */\012IP[ ]	/* InterpolatePts */\012PUSHW[ ]	/* 1 value pushed */\0122 \012SRP0[ ]	/* SetRefPoint0 */\012PUSHW[ ]	/* 2 values pushed */\01236 4 \012MIRP[10100]	/* MoveIndirectRelPt */\012PUSHW[ ]	/* 1 value pushed */\01232 \012MDRP[10000]	/* MoveDirectRelPt */\012PUSHW[ ]	/* 3 values pushed */\01233 13 30 \012SRP1[ ]	/* SetRefPoint1 */\012SRP2[ ]	/* SetRefPoint2 */\012IP[ ]	/* InterpolatePts */\012PUSHW[ ]	/* 1 value pushed */\0121 \012SRP0[ ]	/* SetRefPoint0 */\012PUSHW[ ]	/* 2 values pushed */\01238 4 \012MIRP[10100]	/* MoveIndirectRelPt */\012PUSHW[ ]	/* 1 value pushed */\0126 \012SRP0[ ]	/* SetRefPoint0 */\012PUSHW[ ]	/* 2 values pushed */\01240 4 \012MIRP[10100]	/* MoveIndirectRelPt */\012PUSHW[ ]	/* 1 value pushed */\01210 \012SRP0[ ]	/* SetRefPoint0 */\012PUSHW[ ]	/* 2 values pushed */\01245 4 \012MIRP[10100]	/* MoveIndirectRelPt */\012IUP[0]	/* InterpolateUntPts */\012IUP[1]	/* InterpolateUntPts */";
};
width = 302;
}
);
note = Egrave.smcap;
},
{
glyphname = F.smcap;
lastChange = "2021-11-22 23:52:12 +0000";
layers = (
{
layerId = "6544E2DB-1912-401E-9B5B-A29F161A5995";
paths = (
{
closed = 1;
nodes = (
"140 0 LINE",
"165 180 LINE",
"239 180 LINE",
"259 327 LINE",
"185 327 LINE",
"190 360 LINE",
"271 360 LINE",
"290 496 LINE",
"50 496 LINE",
"-19 0 LINE"
);
},
{
closed = 1;
nodes = (
"64 478 LINE",
"272 478 LINE",
"257 377 LINE",
"176 377 LINE",
"167 310 LINE",
"241 310 LINE",
"225 198 LINE",
"151 198 LINE",
"126 18 LINE",
"-1 18 LINE"
);
},
{
closed = 1;
nodes = (
"119 27 LINE",
"145 207 LINE",
"219 207 LINE",
"232 301 LINE",
"158 301 LINE",
"170 386 LINE",
"251 386 LINE",
"262 469 LINE",
"70 469 LINE",
"8 27 LINE"
);
}
);
userData = {
assembly = "SVTCA[0]	/* SetFreedomAndProjectionVectorToAxis */\012PUSHW[ ]	/* 1 value pushed */\0120 \012RCVT[ ]	/* ReadCVT */\012IF[ ]	/* If */\012PUSHW[ ]	/* 1 value pushed */\01220 \012MDAP[1]	/* MoveDirectAbsPt */\012ELSE[ ]	/* Else */\012PUSHW[ ]	/* 2 values pushed */\01220 11 \012MIAP[0]	/* MoveIndirectAbsPt */\012EIF[ ]	/* EndIf */\012PUSHW[ ]	/* 1 value pushed */\0120 \012RCVT[ ]	/* ReadCVT */\012IF[ ]	/* If */\012PUSHW[ ]	/* 1 value pushed */\01228 \012MDAP[1]	/* MoveDirectAbsPt */\012ELSE[ ]	/* Else */\012PUSHW[ ]	/* 2 values pushed */\01228 7 \012MIAP[0]	/* MoveIndirectAbsPt */\012EIF[ ]	/* EndIf */\012PUSHW[ ]	/* 4 values pushed */\0125 4 26 4 \012CALL[ ]	/* CallFunction */\012PUSHW[ ]	/* 4 values pushed */\01217 2 14 4 \012CALL[ ]	/* CallFunction */\012PUSHW[ ]	/* 4 values pushed */\01224 4 6 4 \012CALL[ ]	/* CallFunction */\012PUSHW[ ]	/* 1 value pushed */\01220 \012SRP0[ ]	/* SetRefPoint0 */\012PUSHW[ ]	/* 2 values pushed */\0122 4 \012MIRP[10100]	/* MoveIndirectRelPt */\012PUSHW[ ]	/* 2 values pushed */\0121 2 \012MIRP[10100]	/* MoveIndirectRelPt */\012PUSHW[ ]	/* 2 values pushed */\01222 4 \012MIRP[10100]	/* MoveIndirectRelPt */\012IUP[0]	/* InterpolateUntPts */\012IUP[1]	/* InterpolateUntPts */";
};
width = 284;
}
);
note = F.smcap;
},
